G04 Layer: BottomSolderMaskLayer*
G04 EasyEDA v6.3.22, 2020-04-29T08:02:14--7:00*
G04 df07cc009cc040c9afc33ab3c66112f2,1d979999f33e43778db822881d36423c,10*
G04 Gerber Generator version 0.2*
G04 Scale: 100 percent, Rotated: No, Reflected: No *
G04 Dimensions in millimeters *
G04 leading zeros omitted , absolute positions ,3 integer and 3 decimal *
%FSLAX33Y33*%
%MOMM*%
G90*
G71D02*

%ADD36C,1.803197*%
%ADD37C,2.082800*%
%ADD39C,1.727200*%
%ADD42C,2.203196*%
%ADD44C,2.103196*%
%ADD46C,2.003196*%
%ADD50C,1.854200*%
%ADD51C,1.903197*%
%ADD52C,4.203192*%

%LPD*%
G54D36*
G01X85090Y99459D02*
G01X85090Y98660D01*
G01X115570Y114699D02*
G01X115570Y113900D01*
G01X87630Y99459D02*
G01X87630Y98660D01*
G01X113030Y114699D02*
G01X113030Y113900D01*
G01X90170Y99459D02*
G01X90170Y98660D01*
G01X110490Y114699D02*
G01X110490Y113900D01*
G01X92710Y99459D02*
G01X92710Y98660D01*
G01X107950Y114699D02*
G01X107950Y113900D01*
G01X95250Y99459D02*
G01X95250Y98660D01*
G01X105410Y114699D02*
G01X105410Y113900D01*
G01X97790Y99459D02*
G01X97790Y98660D01*
G01X102870Y114699D02*
G01X102870Y113900D01*
G01X100330Y99459D02*
G01X100330Y98660D01*
G01X100330Y114699D02*
G01X100330Y113900D01*
G01X102870Y99459D02*
G01X102870Y98660D01*
G01X97790Y114699D02*
G01X97790Y113900D01*
G01X105410Y99459D02*
G01X105410Y98660D01*
G01X95250Y114699D02*
G01X95250Y113900D01*
G01X107950Y99459D02*
G01X107950Y98660D01*
G01X92710Y114699D02*
G01X92710Y113900D01*
G01X110490Y99459D02*
G01X110490Y98660D01*
G01X90170Y114699D02*
G01X90170Y113900D01*
G01X113030Y99459D02*
G01X113030Y98660D01*
G01X87630Y114699D02*
G01X87630Y113900D01*
G01X115570Y99459D02*
G01X115570Y98660D01*
G01X85090Y114699D02*
G01X85090Y113900D01*
G01X118110Y99459D02*
G01X118110Y98660D01*
G01X41510Y49530D02*
G01X42309Y49530D01*
G01X33890Y74930D02*
G01X34689Y74930D01*
G01X41510Y52070D02*
G01X42309Y52070D01*
G01X33890Y72390D02*
G01X34689Y72390D01*
G01X41510Y54610D02*
G01X42309Y54610D01*
G01X33890Y69850D02*
G01X34689Y69850D01*
G01X41510Y57150D02*
G01X42309Y57150D01*
G01X33890Y67310D02*
G01X34689Y67310D01*
G01X41510Y59690D02*
G01X42309Y59690D01*
G01X33890Y64770D02*
G01X34689Y64770D01*
G01X41510Y62230D02*
G01X42309Y62230D01*
G01X33890Y62230D02*
G01X34689Y62230D01*
G01X41510Y64770D02*
G01X42309Y64770D01*
G01X33890Y59690D02*
G01X34689Y59690D01*
G01X41510Y67310D02*
G01X42309Y67310D01*
G01X33890Y57150D02*
G01X34689Y57150D01*
G01X41510Y69850D02*
G01X42309Y69850D01*
G01X33890Y54610D02*
G01X34689Y54610D01*
G01X41510Y72390D02*
G01X42309Y72390D01*
G01X33890Y52070D02*
G01X34689Y52070D01*
G01X41510Y74930D02*
G01X42309Y74930D01*
G01X33890Y49530D02*
G01X34689Y49530D01*
G01X41510Y77470D02*
G01X42309Y77470D01*
G01X21190Y55880D02*
G01X21989Y55880D01*
G01X13570Y68580D02*
G01X14369Y68580D01*
G01X21190Y58420D02*
G01X21989Y58420D01*
G01X13570Y66040D02*
G01X14369Y66040D01*
G01X21190Y60960D02*
G01X21989Y60960D01*
G01X13570Y63500D02*
G01X14369Y63500D01*
G01X21190Y63500D02*
G01X21989Y63500D01*
G01X13570Y60960D02*
G01X14369Y60960D01*
G01X21190Y66040D02*
G01X21989Y66040D01*
G01X13570Y58420D02*
G01X14369Y58420D01*
G01X21190Y68580D02*
G01X21989Y68580D01*
G01X13570Y55880D02*
G01X14369Y55880D01*
G01X21190Y71120D02*
G01X21989Y71120D01*
G01X173990Y27540D02*
G01X173990Y28339D01*
G01X128270Y12300D02*
G01X128270Y13099D01*
G01X171450Y27540D02*
G01X171450Y28339D01*
G01X130810Y12300D02*
G01X130810Y13099D01*
G01X168910Y27540D02*
G01X168910Y28339D01*
G01X133350Y12300D02*
G01X133350Y13099D01*
G01X166370Y27540D02*
G01X166370Y28339D01*
G01X135890Y12300D02*
G01X135890Y13099D01*
G01X163830Y27540D02*
G01X163830Y28339D01*
G01X138430Y12300D02*
G01X138430Y13099D01*
G01X161290Y27540D02*
G01X161290Y28339D01*
G01X140970Y12300D02*
G01X140970Y13099D01*
G01X158750Y27540D02*
G01X158750Y28339D01*
G01X143510Y12300D02*
G01X143510Y13099D01*
G01X156210Y27540D02*
G01X156210Y28339D01*
G01X146050Y12300D02*
G01X146050Y13099D01*
G01X153670Y27540D02*
G01X153670Y28339D01*
G01X148590Y12300D02*
G01X148590Y13099D01*
G01X151130Y27540D02*
G01X151130Y28339D01*
G01X151130Y12300D02*
G01X151130Y13099D01*
G01X148590Y27540D02*
G01X148590Y28339D01*
G01X153670Y12300D02*
G01X153670Y13099D01*
G01X146050Y27540D02*
G01X146050Y28339D01*
G01X156210Y12300D02*
G01X156210Y13099D01*
G01X143510Y27540D02*
G01X143510Y28339D01*
G01X158750Y12300D02*
G01X158750Y13099D01*
G01X140970Y27540D02*
G01X140970Y28339D01*
G01X161290Y12300D02*
G01X161290Y13099D01*
G01X138430Y27540D02*
G01X138430Y28339D01*
G01X163830Y12300D02*
G01X163830Y13099D01*
G01X135890Y27540D02*
G01X135890Y28339D01*
G01X166370Y12300D02*
G01X166370Y13099D01*
G01X133350Y27540D02*
G01X133350Y28339D01*
G01X168910Y12300D02*
G01X168910Y13099D01*
G01X130810Y27540D02*
G01X130810Y28339D01*
G01X171450Y12300D02*
G01X171450Y13099D01*
G01X128270Y27540D02*
G01X128270Y28339D01*
G01X173990Y12300D02*
G01X173990Y13099D01*
G01X125730Y27540D02*
G01X125730Y28339D01*
G01X57150Y27540D02*
G01X57150Y28339D01*
G01X11430Y12300D02*
G01X11430Y13099D01*
G01X54610Y27540D02*
G01X54610Y28339D01*
G01X13970Y12300D02*
G01X13970Y13099D01*
G01X52070Y27540D02*
G01X52070Y28339D01*
G01X16510Y12300D02*
G01X16510Y13099D01*
G01X49530Y27540D02*
G01X49530Y28339D01*
G01X19050Y12300D02*
G01X19050Y13099D01*
G01X46990Y27540D02*
G01X46990Y28339D01*
G01X21590Y12300D02*
G01X21590Y13099D01*
G01X44450Y27540D02*
G01X44450Y28339D01*
G01X24130Y12300D02*
G01X24130Y13099D01*
G01X41910Y27540D02*
G01X41910Y28339D01*
G01X26670Y12300D02*
G01X26670Y13099D01*
G01X39370Y27540D02*
G01X39370Y28339D01*
G01X29210Y12300D02*
G01X29210Y13099D01*
G01X36830Y27540D02*
G01X36830Y28339D01*
G01X31750Y12300D02*
G01X31750Y13099D01*
G01X34290Y27540D02*
G01X34290Y28339D01*
G01X34290Y12300D02*
G01X34290Y13099D01*
G01X31750Y27540D02*
G01X31750Y28339D01*
G01X36830Y12300D02*
G01X36830Y13099D01*
G01X29210Y27540D02*
G01X29210Y28339D01*
G01X39370Y12300D02*
G01X39370Y13099D01*
G01X26670Y27540D02*
G01X26670Y28339D01*
G01X41910Y12300D02*
G01X41910Y13099D01*
G01X24130Y27540D02*
G01X24130Y28339D01*
G01X44450Y12300D02*
G01X44450Y13099D01*
G01X21590Y27540D02*
G01X21590Y28339D01*
G01X46990Y12300D02*
G01X46990Y13099D01*
G01X19050Y27540D02*
G01X19050Y28339D01*
G01X49530Y12300D02*
G01X49530Y13099D01*
G01X16510Y27540D02*
G01X16510Y28339D01*
G01X52070Y12300D02*
G01X52070Y13099D01*
G01X13970Y27540D02*
G01X13970Y28339D01*
G01X54610Y12300D02*
G01X54610Y13099D01*
G01X11430Y27540D02*
G01X11430Y28339D01*
G01X57150Y12300D02*
G01X57150Y13099D01*
G01X8890Y27540D02*
G01X8890Y28339D01*
G01X70720Y39370D02*
G01X71519Y39370D01*
G01X55480Y85090D02*
G01X56279Y85090D01*
G01X70720Y41910D02*
G01X71519Y41910D01*
G01X55480Y82550D02*
G01X56279Y82550D01*
G01X70720Y44450D02*
G01X71519Y44450D01*
G01X55480Y80010D02*
G01X56279Y80010D01*
G01X70720Y46990D02*
G01X71519Y46990D01*
G01X55480Y77470D02*
G01X56279Y77470D01*
G01X70720Y49530D02*
G01X71519Y49530D01*
G01X55480Y74930D02*
G01X56279Y74930D01*
G01X70720Y52070D02*
G01X71519Y52070D01*
G01X55480Y72390D02*
G01X56279Y72390D01*
G01X70720Y54610D02*
G01X71519Y54610D01*
G01X55480Y69850D02*
G01X56279Y69850D01*
G01X70720Y57150D02*
G01X71519Y57150D01*
G01X55480Y67310D02*
G01X56279Y67310D01*
G01X70720Y59690D02*
G01X71519Y59690D01*
G01X55480Y64770D02*
G01X56279Y64770D01*
G01X70720Y62230D02*
G01X71519Y62230D01*
G01X55480Y62230D02*
G01X56279Y62230D01*
G01X70720Y64770D02*
G01X71519Y64770D01*
G01X55480Y59690D02*
G01X56279Y59690D01*
G01X70720Y67310D02*
G01X71519Y67310D01*
G01X55480Y57150D02*
G01X56279Y57150D01*
G01X70720Y69850D02*
G01X71519Y69850D01*
G01X55480Y54610D02*
G01X56279Y54610D01*
G01X70720Y72390D02*
G01X71519Y72390D01*
G01X55480Y52070D02*
G01X56279Y52070D01*
G01X70720Y74930D02*
G01X71519Y74930D01*
G01X55480Y49530D02*
G01X56279Y49530D01*
G01X70720Y77470D02*
G01X71519Y77470D01*
G01X55480Y46990D02*
G01X56279Y46990D01*
G01X70720Y80010D02*
G01X71519Y80010D01*
G01X55480Y44450D02*
G01X56279Y44450D01*
G01X70720Y82550D02*
G01X71519Y82550D01*
G01X55480Y41910D02*
G01X56279Y41910D01*
G01X70720Y85090D02*
G01X71519Y85090D01*
G01X55480Y39370D02*
G01X56279Y39370D01*
G01X70720Y87630D02*
G01X71519Y87630D01*
G01X144380Y44450D02*
G01X145179Y44450D01*
G01X129140Y74930D02*
G01X129939Y74930D01*
G01X144380Y46990D02*
G01X145179Y46990D01*
G01X129140Y72390D02*
G01X129939Y72390D01*
G01X144380Y49530D02*
G01X145179Y49530D01*
G01X129140Y69850D02*
G01X129939Y69850D01*
G01X144380Y52070D02*
G01X145179Y52070D01*
G01X129140Y67310D02*
G01X129939Y67310D01*
G01X144380Y54610D02*
G01X145179Y54610D01*
G01X129140Y64770D02*
G01X129939Y64770D01*
G01X144380Y57150D02*
G01X145179Y57150D01*
G01X129140Y62230D02*
G01X129939Y62230D01*
G01X144380Y59690D02*
G01X145179Y59690D01*
G01X129140Y59690D02*
G01X129939Y59690D01*
G01X144380Y62230D02*
G01X145179Y62230D01*
G01X129140Y57150D02*
G01X129939Y57150D01*
G01X144380Y64770D02*
G01X145179Y64770D01*
G01X129140Y54610D02*
G01X129939Y54610D01*
G01X144380Y67310D02*
G01X145179Y67310D01*
G01X129140Y52070D02*
G01X129939Y52070D01*
G01X144380Y69850D02*
G01X145179Y69850D01*
G01X129140Y49530D02*
G01X129939Y49530D01*
G01X144380Y72390D02*
G01X145179Y72390D01*
G01X129140Y46990D02*
G01X129939Y46990D01*
G01X144380Y74930D02*
G01X145179Y74930D01*
G01X129140Y44450D02*
G01X129939Y44450D01*
G01X144380Y77470D02*
G01X145179Y77470D01*
G01X174860Y44450D02*
G01X175659Y44450D01*
G01X159620Y74930D02*
G01X160419Y74930D01*
G01X174860Y46990D02*
G01X175659Y46990D01*
G01X159620Y72390D02*
G01X160419Y72390D01*
G01X174860Y49530D02*
G01X175659Y49530D01*
G01X159620Y69850D02*
G01X160419Y69850D01*
G01X174860Y52070D02*
G01X175659Y52070D01*
G01X159620Y67310D02*
G01X160419Y67310D01*
G01X174860Y54610D02*
G01X175659Y54610D01*
G01X159620Y64770D02*
G01X160419Y64770D01*
G01X174860Y57150D02*
G01X175659Y57150D01*
G01X159620Y62230D02*
G01X160419Y62230D01*
G01X174860Y59690D02*
G01X175659Y59690D01*
G01X159620Y59690D02*
G01X160419Y59690D01*
G01X174860Y62230D02*
G01X175659Y62230D01*
G01X159620Y57150D02*
G01X160419Y57150D01*
G01X174860Y64770D02*
G01X175659Y64770D01*
G01X159620Y54610D02*
G01X160419Y54610D01*
G01X174860Y67310D02*
G01X175659Y67310D01*
G01X159620Y52070D02*
G01X160419Y52070D01*
G01X174860Y69850D02*
G01X175659Y69850D01*
G01X159620Y49530D02*
G01X160419Y49530D01*
G01X174860Y72390D02*
G01X175659Y72390D01*
G01X159620Y46990D02*
G01X160419Y46990D01*
G01X174860Y74930D02*
G01X175659Y74930D01*
G01X159620Y44450D02*
G01X160419Y44450D01*
G01X174860Y77470D02*
G01X175659Y77470D01*
G54D37*
G01X29337Y68453D03*
G01X29337Y78613D03*
G01X26289Y68453D03*
G01X26289Y78613D03*
G36*
G01X117208Y112999D02*
G01X117208Y115600D01*
G01X119011Y115600D01*
G01X119011Y112999D01*
G01X117208Y112999D01*
G37*
G54D39*
G01X31750Y7620D03*
G01X34290Y7620D03*
G01X36830Y7620D03*
G01X39370Y7620D03*
G01X41910Y7620D03*
G01X44450Y7620D03*
G01X46990Y7620D03*
G01X49530Y7620D03*
G01X52070Y7620D03*
G01X54610Y7620D03*
G01X6350Y7620D03*
G01X8890Y7620D03*
G01X11430Y7620D03*
G01X13970Y7620D03*
G01X16510Y7620D03*
G01X19050Y7620D03*
G01X21590Y7620D03*
G01X24130Y7620D03*
G01X26670Y7620D03*
G01X29210Y7620D03*
G01X123190Y7620D03*
G01X125730Y7620D03*
G01X128270Y7620D03*
G01X130810Y7620D03*
G01X133350Y7620D03*
G01X135890Y7620D03*
G01X138430Y7620D03*
G01X140970Y7620D03*
G01X143510Y7620D03*
G01X146050Y7620D03*
G01X148590Y7620D03*
G01X151130Y7620D03*
G01X153670Y7620D03*
G01X156210Y7620D03*
G01X158750Y7620D03*
G01X161290Y7620D03*
G01X163830Y7620D03*
G01X166370Y7620D03*
G01X168910Y7620D03*
G01X171450Y7620D03*
G36*
G01X32989Y76568D02*
G01X32989Y78371D01*
G01X35590Y78371D01*
G01X35590Y76568D01*
G01X32989Y76568D01*
G37*
G36*
G01X109387Y7787D02*
G01X109387Y9992D01*
G01X111592Y9992D01*
G01X111592Y7787D01*
G01X109387Y7787D01*
G37*
G54D42*
G01X110490Y6350D03*
G01X107950Y8890D03*
G01X107950Y6350D03*
G01X105410Y8890D03*
G01X105410Y6350D03*
G01X102870Y8890D03*
G01X102870Y6350D03*
G01X100330Y8890D03*
G01X100330Y6350D03*
G01X97790Y8890D03*
G01X97790Y6350D03*
G01X95250Y8890D03*
G01X95250Y6350D03*
G01X92710Y8890D03*
G01X92710Y6350D03*
G01X90170Y8890D03*
G01X90170Y6350D03*
G01X87630Y8890D03*
G01X87630Y6350D03*
G01X85090Y8890D03*
G01X85090Y6350D03*
G01X82550Y8890D03*
G01X82550Y6350D03*
G01X80010Y8890D03*
G01X80010Y6350D03*
G01X77470Y8890D03*
G01X77470Y6350D03*
G01X74930Y8890D03*
G01X74930Y6350D03*
G01X72390Y8890D03*
G01X72390Y6350D03*
G36*
G01X12669Y70218D02*
G01X12669Y72021D01*
G01X15270Y72021D01*
G01X15270Y70218D01*
G01X12669Y70218D01*
G37*
G36*
G01X45938Y98008D02*
G01X45938Y100111D01*
G01X48041Y100111D01*
G01X48041Y98008D01*
G01X45938Y98008D01*
G37*
G54D44*
G01X44450Y99060D03*
G36*
G01X124828Y11399D02*
G01X124828Y14000D01*
G01X126631Y14000D01*
G01X126631Y11399D01*
G01X124828Y11399D01*
G37*
G36*
G01X7988Y11399D02*
G01X7988Y14000D01*
G01X9791Y14000D01*
G01X9791Y11399D01*
G01X7988Y11399D01*
G37*
G36*
G01X54579Y86728D02*
G01X54579Y88531D01*
G01X57180Y88531D01*
G01X57180Y86728D01*
G01X54579Y86728D01*
G37*
G36*
G01X19761Y110820D02*
G01X19761Y112699D01*
G01X21640Y112699D01*
G01X21640Y110820D01*
G01X19761Y110820D01*
G37*
G36*
G01X21920Y110820D02*
G01X21920Y112699D01*
G01X23799Y112699D01*
G01X23799Y110820D01*
G01X21920Y110820D01*
G37*
G36*
G01X24079Y110820D02*
G01X24079Y112699D01*
G01X25958Y112699D01*
G01X25958Y110820D01*
G01X24079Y110820D01*
G37*
G54D37*
G01X152400Y106680D03*
G01X162560Y106680D03*
G01X134620Y106680D03*
G01X134620Y96520D03*
G01X152400Y111760D03*
G01X162560Y111760D03*
G01X48260Y78740D03*
G01X48260Y88900D03*
G01X129540Y106680D03*
G01X129540Y96520D03*
G54D46*
G01X135890Y114300D03*
G01X133350Y114300D03*
G01X130810Y114300D03*
G01X128270Y114300D03*
G01X125730Y114300D03*
G36*
G01X122189Y113299D02*
G01X122189Y115300D01*
G01X124190Y115300D01*
G01X124190Y113299D01*
G01X122189Y113299D01*
G37*
G01X172720Y93980D03*
G01X167640Y93980D03*
G36*
G01X60058Y104508D02*
G01X60058Y106311D01*
G01X61861Y106311D01*
G01X61861Y104508D01*
G01X60058Y104508D01*
G37*
G54D36*
G01X60960Y113030D03*
G01X76200Y113030D03*
G01X76200Y105410D03*
G36*
G01X34658Y104508D02*
G01X34658Y106311D01*
G01X36461Y106311D01*
G01X36461Y104508D01*
G01X34658Y104508D01*
G37*
G01X35560Y113030D03*
G01X50800Y113030D03*
G01X50800Y105410D03*
G54D50*
G01X147320Y100330D03*
G01X147320Y102870D03*
G01X142240Y100330D03*
G01X142240Y102870D03*
G54D46*
G01X149860Y116840D03*
G01X144780Y116840D03*
G01X63500Y17780D03*
G01X63500Y22860D03*
G01X124460Y99060D03*
G01X124460Y104140D03*
G01X160020Y101600D03*
G01X160020Y96520D03*
G01X154940Y101600D03*
G01X154940Y96520D03*
G01X25400Y104140D03*
G01X20320Y104140D03*
G01X20320Y78740D03*
G01X15240Y78740D03*
G01X40640Y83820D03*
G01X35560Y83820D03*
G01X139700Y83820D03*
G01X134620Y83820D03*
G01X170180Y83820D03*
G01X165100Y83820D03*
G01X66040Y93980D03*
G01X60960Y93980D03*
G01X119380Y17780D03*
G01X119380Y22860D03*
G36*
G01X128239Y76568D02*
G01X128239Y78371D01*
G01X130840Y78371D01*
G01X130840Y76568D01*
G01X128239Y76568D01*
G37*
G54D51*
G01X169679Y106580D03*
G01X167688Y106580D03*
G36*
G01X166786Y108219D02*
G01X166786Y110022D01*
G01X168589Y110022D01*
G01X168589Y108219D01*
G01X166786Y108219D01*
G37*
G01X169679Y109120D03*
G54D52*
G01X172379Y113880D03*
G01X172379Y101780D03*
G54D42*
G01X6910Y109510D03*
G01X13409Y109510D03*
G01X13409Y114009D03*
G01X6910Y114009D03*
G36*
G01X158719Y76568D02*
G01X158719Y78371D01*
G01X161320Y78371D01*
G01X161320Y76568D01*
G01X158719Y76568D01*
G37*
M00*
M02*
