G04 Layer: TopSilkLayer*
G04 EasyEDA v6.3.22, 2020-04-01T16:04:37--7:00*
G04 e4bcf462cb0447a68219b7cdce75b0ac,1d979999f33e43778db822881d36423c,10*
G04 Gerber Generator version 0.2*
G04 Scale: 100 percent, Rotated: No, Reflected: No *
G04 Dimensions in millimeters *
G04 leading zeros omitted , absolute positions ,3 integer and 3 decimal *
%FSLAX33Y33*%
%MOMM*%
G90*
G71D02*

%ADD10C,0.254000*%
%ADD30C,0.119990*%
%ADD31C,0.203200*%
%ADD32C,0.202999*%
%ADD33C,0.177800*%
%ADD34C,0.152400*%

%LPD*%
G54D10*
G01X20777Y110109D02*
G01X24942Y110109D01*
G01X20193Y111506D02*
G01X20599Y111506D01*
G01X25120Y111506D02*
G01X25527Y111506D01*
G01X154330Y105486D02*
G01X154330Y107873D01*
G01X154330Y107873D02*
G01X160629Y107873D01*
G01X160629Y107873D02*
G01X160629Y105486D01*
G01X160629Y105486D02*
G01X154330Y105486D01*
G01X133426Y104749D02*
G01X135813Y104749D01*
G01X135813Y104749D02*
G01X135813Y98450D01*
G01X135813Y98450D02*
G01X133426Y98450D01*
G01X133426Y98450D02*
G01X133426Y104749D01*
G01X29133Y70510D02*
G01X26746Y70510D01*
G01X26746Y70510D02*
G01X26746Y76809D01*
G01X26746Y76809D02*
G01X29133Y76809D01*
G01X29133Y76809D02*
G01X29133Y70510D01*
G01X154330Y110566D02*
G01X154330Y112953D01*
G01X154330Y112953D02*
G01X160629Y112953D01*
G01X160629Y112953D02*
G01X160629Y110566D01*
G01X160629Y110566D02*
G01X154330Y110566D01*
G01X49453Y80670D02*
G01X47066Y80670D01*
G01X47066Y80670D02*
G01X47066Y86969D01*
G01X47066Y86969D02*
G01X49453Y86969D01*
G01X49453Y86969D02*
G01X49453Y80670D01*
G01X128346Y104749D02*
G01X130733Y104749D01*
G01X130733Y104749D02*
G01X130733Y98450D01*
G01X130733Y98450D02*
G01X128346Y98450D01*
G01X128346Y98450D02*
G01X128346Y104749D01*
G54D30*
G01X119499Y107680D02*
G01X119499Y112859D01*
G01X83700Y112859D01*
G01X83700Y100500D01*
G01X119499Y100500D01*
G01X119499Y105679D01*
G01X119499Y115689D02*
G01X83700Y115689D01*
G01X83700Y97670D01*
G01X119499Y97670D01*
G01X119499Y115689D01*
G54D10*
G01X30480Y8255D02*
G01X30480Y6985D01*
G01X7620Y8255D02*
G01X6985Y8890D01*
G01X5715Y8890D01*
G01X5080Y8255D01*
G01X7620Y6985D02*
G01X6985Y6350D01*
G01X5715Y6350D01*
G01X5080Y6985D01*
G01X5080Y8255D02*
G01X5080Y6985D01*
G01X30480Y8255D02*
G01X29845Y8890D01*
G01X28575Y8890D01*
G01X27940Y8255D01*
G01X30480Y6985D02*
G01X29845Y6350D01*
G01X28575Y6350D01*
G01X27940Y6985D01*
G01X27940Y8255D02*
G01X27305Y8890D01*
G01X26035Y8890D01*
G01X25400Y8255D01*
G01X27940Y6985D02*
G01X27305Y6350D01*
G01X26035Y6350D01*
G01X25400Y6985D01*
G01X25400Y8255D02*
G01X24765Y8890D01*
G01X23495Y8890D01*
G01X22860Y8255D01*
G01X25400Y6985D02*
G01X24765Y6350D01*
G01X23495Y6350D01*
G01X22860Y6985D01*
G01X22860Y8255D02*
G01X22225Y8890D01*
G01X20955Y8890D01*
G01X20320Y8255D01*
G01X22860Y6985D02*
G01X22225Y6350D01*
G01X20955Y6350D01*
G01X20320Y6985D01*
G01X20320Y8255D02*
G01X19685Y8890D01*
G01X18415Y8890D01*
G01X17780Y8255D01*
G01X20320Y6985D02*
G01X19685Y6350D01*
G01X18415Y6350D01*
G01X17780Y6985D01*
G01X17780Y8255D02*
G01X17145Y8890D01*
G01X15875Y8890D01*
G01X15240Y8255D01*
G01X17780Y6985D02*
G01X17145Y6350D01*
G01X15875Y6350D01*
G01X15240Y6985D01*
G01X15240Y8255D02*
G01X14605Y8890D01*
G01X13335Y8890D01*
G01X12700Y8255D01*
G01X15240Y6985D02*
G01X14605Y6350D01*
G01X13335Y6350D01*
G01X12700Y6985D01*
G01X12700Y8255D02*
G01X12065Y8890D01*
G01X10795Y8890D01*
G01X10160Y8255D01*
G01X12700Y6985D02*
G01X12065Y6350D01*
G01X10795Y6350D01*
G01X10160Y6985D01*
G01X10160Y8255D02*
G01X9525Y8890D01*
G01X8255Y8890D01*
G01X7620Y8255D01*
G01X10160Y6985D02*
G01X9525Y6350D01*
G01X8255Y6350D01*
G01X7620Y6985D01*
G01X55880Y8255D02*
G01X55880Y6985D01*
G01X33020Y8255D02*
G01X32385Y8890D01*
G01X31115Y8890D01*
G01X30480Y8255D01*
G01X33020Y6985D02*
G01X32385Y6350D01*
G01X31115Y6350D01*
G01X30480Y6985D01*
G01X30480Y8255D02*
G01X30480Y6985D01*
G01X55880Y8255D02*
G01X55245Y8890D01*
G01X53975Y8890D01*
G01X53340Y8255D01*
G01X55880Y6985D02*
G01X55245Y6350D01*
G01X53975Y6350D01*
G01X53340Y6985D01*
G01X53340Y8255D02*
G01X52705Y8890D01*
G01X51435Y8890D01*
G01X50800Y8255D01*
G01X53340Y6985D02*
G01X52705Y6350D01*
G01X51435Y6350D01*
G01X50800Y6985D01*
G01X50800Y8255D02*
G01X50165Y8890D01*
G01X48895Y8890D01*
G01X48260Y8255D01*
G01X50800Y6985D02*
G01X50165Y6350D01*
G01X48895Y6350D01*
G01X48260Y6985D01*
G01X48260Y8255D02*
G01X47625Y8890D01*
G01X46355Y8890D01*
G01X45720Y8255D01*
G01X48260Y6985D02*
G01X47625Y6350D01*
G01X46355Y6350D01*
G01X45720Y6985D01*
G01X45720Y8255D02*
G01X45085Y8890D01*
G01X43815Y8890D01*
G01X43180Y8255D01*
G01X45720Y6985D02*
G01X45085Y6350D01*
G01X43815Y6350D01*
G01X43180Y6985D01*
G01X43180Y8255D02*
G01X42545Y8890D01*
G01X41275Y8890D01*
G01X40640Y8255D01*
G01X43180Y6985D02*
G01X42545Y6350D01*
G01X41275Y6350D01*
G01X40640Y6985D01*
G01X40640Y8255D02*
G01X40005Y8890D01*
G01X38735Y8890D01*
G01X38100Y8255D01*
G01X40640Y6985D02*
G01X40005Y6350D01*
G01X38735Y6350D01*
G01X38100Y6985D01*
G01X38100Y8255D02*
G01X37465Y8890D01*
G01X36195Y8890D01*
G01X35560Y8255D01*
G01X38100Y6985D02*
G01X37465Y6350D01*
G01X36195Y6350D01*
G01X35560Y6985D01*
G01X35560Y8255D02*
G01X34925Y8890D01*
G01X33655Y8890D01*
G01X33020Y8255D01*
G01X35560Y6985D02*
G01X34925Y6350D01*
G01X33655Y6350D01*
G01X33020Y6985D01*
G01X147320Y8255D02*
G01X147320Y6985D01*
G01X124460Y8255D02*
G01X123825Y8890D01*
G01X122555Y8890D01*
G01X121920Y8255D01*
G01X124460Y6985D02*
G01X123825Y6350D01*
G01X122555Y6350D01*
G01X121920Y6985D01*
G01X121920Y8255D02*
G01X121920Y6985D01*
G01X147320Y8255D02*
G01X146685Y8890D01*
G01X145415Y8890D01*
G01X144780Y8255D01*
G01X147320Y6985D02*
G01X146685Y6350D01*
G01X145415Y6350D01*
G01X144780Y6985D01*
G01X144780Y8255D02*
G01X144145Y8890D01*
G01X142875Y8890D01*
G01X142240Y8255D01*
G01X144780Y6985D02*
G01X144145Y6350D01*
G01X142875Y6350D01*
G01X142240Y6985D01*
G01X142240Y8255D02*
G01X141605Y8890D01*
G01X140335Y8890D01*
G01X139700Y8255D01*
G01X142240Y6985D02*
G01X141605Y6350D01*
G01X140335Y6350D01*
G01X139700Y6985D01*
G01X139700Y8255D02*
G01X139065Y8890D01*
G01X137795Y8890D01*
G01X137160Y8255D01*
G01X139700Y6985D02*
G01X139065Y6350D01*
G01X137795Y6350D01*
G01X137160Y6985D01*
G01X137160Y8255D02*
G01X136525Y8890D01*
G01X135255Y8890D01*
G01X134620Y8255D01*
G01X137160Y6985D02*
G01X136525Y6350D01*
G01X135255Y6350D01*
G01X134620Y6985D01*
G01X134620Y8255D02*
G01X133985Y8890D01*
G01X132715Y8890D01*
G01X132080Y8255D01*
G01X134620Y6985D02*
G01X133985Y6350D01*
G01X132715Y6350D01*
G01X132080Y6985D01*
G01X132080Y8255D02*
G01X131445Y8890D01*
G01X130175Y8890D01*
G01X129540Y8255D01*
G01X132080Y6985D02*
G01X131445Y6350D01*
G01X130175Y6350D01*
G01X129540Y6985D01*
G01X129540Y8255D02*
G01X128905Y8890D01*
G01X127635Y8890D01*
G01X127000Y8255D01*
G01X129540Y6985D02*
G01X128905Y6350D01*
G01X127635Y6350D01*
G01X127000Y6985D01*
G01X127000Y8255D02*
G01X126365Y8890D01*
G01X125095Y8890D01*
G01X124460Y8255D01*
G01X127000Y6985D02*
G01X126365Y6350D01*
G01X125095Y6350D01*
G01X124460Y6985D01*
G01X172720Y8255D02*
G01X172720Y6985D01*
G01X149860Y8255D02*
G01X149225Y8890D01*
G01X147955Y8890D01*
G01X147320Y8255D01*
G01X149860Y6985D02*
G01X149225Y6350D01*
G01X147955Y6350D01*
G01X147320Y6985D01*
G01X147320Y8255D02*
G01X147320Y6985D01*
G01X172720Y8255D02*
G01X172085Y8890D01*
G01X170815Y8890D01*
G01X170180Y8255D01*
G01X172720Y6985D02*
G01X172085Y6350D01*
G01X170815Y6350D01*
G01X170180Y6985D01*
G01X170180Y8255D02*
G01X169545Y8890D01*
G01X168275Y8890D01*
G01X167640Y8255D01*
G01X170180Y6985D02*
G01X169545Y6350D01*
G01X168275Y6350D01*
G01X167640Y6985D01*
G01X167640Y8255D02*
G01X167005Y8890D01*
G01X165735Y8890D01*
G01X165100Y8255D01*
G01X167640Y6985D02*
G01X167005Y6350D01*
G01X165735Y6350D01*
G01X165100Y6985D01*
G01X165100Y8255D02*
G01X164465Y8890D01*
G01X163195Y8890D01*
G01X162560Y8255D01*
G01X165100Y6985D02*
G01X164465Y6350D01*
G01X163195Y6350D01*
G01X162560Y6985D01*
G01X162560Y8255D02*
G01X161925Y8890D01*
G01X160655Y8890D01*
G01X160020Y8255D01*
G01X162560Y6985D02*
G01X161925Y6350D01*
G01X160655Y6350D01*
G01X160020Y6985D01*
G01X160020Y8255D02*
G01X159385Y8890D01*
G01X158115Y8890D01*
G01X157480Y8255D01*
G01X160020Y6985D02*
G01X159385Y6350D01*
G01X158115Y6350D01*
G01X157480Y6985D01*
G01X157480Y8255D02*
G01X156845Y8890D01*
G01X155575Y8890D01*
G01X154940Y8255D01*
G01X157480Y6985D02*
G01X156845Y6350D01*
G01X155575Y6350D01*
G01X154940Y6985D01*
G01X154940Y8255D02*
G01X154305Y8890D01*
G01X153035Y8890D01*
G01X152400Y8255D01*
G01X154940Y6985D02*
G01X154305Y6350D01*
G01X153035Y6350D01*
G01X152400Y6985D01*
G01X152400Y8255D02*
G01X151765Y8890D01*
G01X150495Y8890D01*
G01X149860Y8255D01*
G01X152400Y6985D02*
G01X151765Y6350D01*
G01X150495Y6350D01*
G01X149860Y6985D01*
G54D31*
G01X123825Y115570D02*
G01X121920Y115570D01*
G01X121920Y113030D01*
G01X137160Y113030D01*
G01X137160Y115570D01*
G54D32*
G01X137160Y115570D02*
G01X123825Y115570D01*
G54D30*
G01X37099Y78859D02*
G01X35730Y78859D01*
G01X35730Y48140D01*
G01X40469Y48140D01*
G01X40469Y78859D01*
G01X39100Y78859D01*
G01X32900Y78859D02*
G01X32900Y48140D01*
G01X43299Y48140D01*
G01X43299Y78859D01*
G01X32900Y78859D01*
G54D10*
G01X174752Y93980D02*
G01X173736Y93980D01*
G01X174244Y93218D02*
G01X174244Y94742D01*
G01X140040Y106469D02*
G01X144439Y106439D01*
G01X144439Y111970D02*
G01X144439Y111929D01*
G01X144439Y106510D02*
G01X144439Y106439D01*
G01X140040Y111970D02*
G01X140040Y111929D01*
G01X140040Y106510D02*
G01X140040Y106469D01*
G01X144439Y111970D02*
G01X143090Y111970D01*
G01X140040Y111970D02*
G01X141389Y111970D01*
G54D30*
G01X58130Y114919D02*
G01X58130Y102770D01*
G01X78280Y102770D01*
G01X78280Y115669D02*
G01X58879Y115669D01*
G01X79029Y103520D02*
G01X79029Y114919D01*
G01X32730Y114919D02*
G01X32730Y102770D01*
G01X52880Y102770D01*
G01X52880Y115669D02*
G01X33479Y115669D01*
G01X53629Y103520D02*
G01X53629Y114919D01*
G54D10*
G01X148642Y103099D02*
G01X148370Y103099D01*
G01X146269Y103099D02*
G01X145997Y103099D01*
G01X143562Y103099D02*
G01X143290Y103099D01*
G01X141189Y103099D02*
G01X140917Y103099D01*
G54D33*
G01X143256Y116840D02*
G01X143256Y119380D01*
G01X151384Y119380D01*
G01X151384Y114300D01*
G01X143256Y114300D01*
G01X143256Y116840D01*
G01X63500Y24384D02*
G01X66040Y24384D01*
G01X66040Y16256D01*
G01X60960Y16256D01*
G01X60960Y24384D01*
G01X63500Y24384D01*
G01X124460Y105664D02*
G01X127000Y105664D01*
G01X127000Y97536D01*
G01X121920Y97536D01*
G01X121920Y105664D01*
G01X124460Y105664D01*
G01X160020Y94996D02*
G01X157480Y94996D01*
G01X157480Y103124D01*
G01X162560Y103124D01*
G01X162560Y94996D01*
G01X160020Y94996D01*
G01X154940Y94996D02*
G01X152400Y94996D01*
G01X152400Y103124D01*
G01X157480Y103124D01*
G01X157480Y94996D01*
G01X154940Y94996D01*
G01X18796Y104140D02*
G01X18796Y106680D01*
G01X26924Y106680D01*
G01X26924Y101600D01*
G01X18796Y101600D01*
G01X18796Y104140D01*
G01X13716Y78740D02*
G01X13716Y81280D01*
G01X21844Y81280D01*
G01X21844Y76200D01*
G01X13716Y76200D01*
G01X13716Y78740D01*
G01X34036Y83820D02*
G01X34036Y86360D01*
G01X42164Y86360D01*
G01X42164Y81280D01*
G01X34036Y81280D01*
G01X34036Y83820D01*
G01X133096Y83820D02*
G01X133096Y86360D01*
G01X141224Y86360D01*
G01X141224Y81280D01*
G01X133096Y81280D01*
G01X133096Y83820D01*
G01X163576Y83820D02*
G01X163576Y86360D01*
G01X171704Y86360D01*
G01X171704Y81280D01*
G01X163576Y81280D01*
G01X163576Y83820D01*
G01X59436Y93980D02*
G01X59436Y96520D01*
G01X67564Y96520D01*
G01X67564Y91440D01*
G01X59436Y91440D01*
G01X59436Y93980D01*
G01X119380Y24384D02*
G01X121920Y24384D01*
G01X121920Y16256D01*
G01X116840Y16256D01*
G01X116840Y24384D01*
G01X119380Y24384D01*
G54D31*
G01X111760Y5080D02*
G01X111760Y10160D01*
G01X71120Y10160D01*
G01X71120Y5080D01*
G01X111760Y5080D01*
G54D30*
G01X136159Y78859D02*
G01X130980Y78859D01*
G01X130980Y43060D01*
G01X143339Y43060D01*
G01X143339Y78859D01*
G01X138160Y78859D01*
G01X128150Y78859D02*
G01X128150Y43060D01*
G01X146169Y43060D01*
G01X146169Y78859D01*
G01X128150Y78859D01*
G54D10*
G01X181483Y101854D02*
G01X181483Y113792D01*
G01X171179Y101780D02*
G01X166280Y101780D01*
G01X166280Y113879D01*
G01X171280Y113879D01*
G01X173680Y101780D02*
G01X182880Y101780D01*
G01X182880Y113879D01*
G01X173680Y113879D01*
G54D30*
G01X16779Y72509D02*
G01X15410Y72509D01*
G01X15410Y54490D01*
G01X20149Y54490D01*
G01X20149Y72509D01*
G01X18780Y72509D01*
G01X12580Y72509D02*
G01X12580Y54490D01*
G01X22979Y54490D01*
G01X22979Y72509D01*
G01X12580Y72509D01*
G54D31*
G01X43180Y97790D02*
G01X43180Y100330D01*
G01X48260Y100330D01*
G01X48260Y97790D01*
G01X46355Y97790D01*
G54D32*
G01X43180Y97790D02*
G01X46355Y97790D01*
G54D30*
G01X124340Y19319D02*
G01X124340Y14140D01*
G01X175379Y14140D01*
G01X175379Y26499D01*
G01X124340Y26499D01*
G01X124340Y21320D01*
G01X124340Y11310D02*
G01X175379Y11310D01*
G01X175379Y29329D01*
G01X124340Y29329D01*
G01X124340Y11310D01*
G01X7500Y19319D02*
G01X7500Y14140D01*
G01X58539Y14140D01*
G01X58539Y26499D01*
G01X7500Y26499D01*
G01X7500Y21320D01*
G01X7500Y11310D02*
G01X58539Y11310D01*
G01X58539Y29329D01*
G01X7500Y29329D01*
G01X7500Y11310D01*
G54D10*
G01X7258Y114761D02*
G01X7258Y108862D01*
G01X13056Y108862D01*
G01X13056Y114761D01*
G01X7258Y114761D01*
G54D30*
G01X62499Y89019D02*
G01X57320Y89019D01*
G01X57320Y37980D01*
G01X69679Y37980D01*
G01X69679Y89019D01*
G01X64500Y89019D01*
G01X54490Y89019D02*
G01X54490Y37980D01*
G01X72509Y37980D01*
G01X72509Y89019D01*
G01X54490Y89019D01*
G01X166639Y78859D02*
G01X161460Y78859D01*
G01X161460Y43060D01*
G01X173819Y43060D01*
G01X173819Y78859D01*
G01X168640Y78859D01*
G01X158630Y78859D02*
G01X158630Y43060D01*
G01X176649Y43060D01*
G01X176649Y78859D01*
G01X158630Y78859D01*
G54D34*
G01X99822Y4579D02*
G01X99822Y3731D01*
G01X99822Y4579D02*
G01X100103Y4579D01*
G01X100225Y4538D01*
G01X100307Y4457D01*
G01X100347Y4378D01*
G01X100388Y4257D01*
G01X100388Y4053D01*
G01X100347Y3934D01*
G01X100307Y3853D01*
G01X100225Y3771D01*
G01X100103Y3731D01*
G01X99822Y3731D01*
G01X100977Y4579D02*
G01X100655Y3731D01*
G01X100977Y4579D02*
G01X101300Y3731D01*
G01X100774Y4013D02*
G01X101180Y4013D01*
G01X101851Y4579D02*
G01X101851Y3731D01*
G01X101566Y4579D02*
G01X102133Y4579D01*
G01X102722Y4579D02*
G01X102400Y3731D01*
G01X102722Y4579D02*
G01X103047Y3731D01*
G01X102522Y4013D02*
G01X102925Y4013D01*
G01X110350Y4579D02*
G01X110230Y4538D01*
G01X110149Y4419D01*
G01X110109Y4216D01*
G01X110109Y4094D01*
G01X110149Y3893D01*
G01X110230Y3771D01*
G01X110350Y3731D01*
G01X110431Y3731D01*
G01X110553Y3771D01*
G01X110634Y3893D01*
G01X110675Y4094D01*
G01X110675Y4216D01*
G01X110634Y4419D01*
G01X110553Y4538D01*
G01X110431Y4579D01*
G01X110350Y4579D01*
G01X92895Y4579D02*
G01X92491Y3731D01*
G01X92329Y4579D02*
G01X92895Y4579D01*
G01X110350Y11437D02*
G01X110230Y11396D01*
G01X110149Y11277D01*
G01X110109Y11074D01*
G01X110109Y10952D01*
G01X110149Y10751D01*
G01X110230Y10629D01*
G01X110350Y10589D01*
G01X110431Y10589D01*
G01X110553Y10629D01*
G01X110634Y10751D01*
G01X110675Y10952D01*
G01X110675Y11074D01*
G01X110634Y11277D01*
G01X110553Y11396D01*
G01X110431Y11437D01*
G01X110350Y11437D01*
G01X71755Y11277D02*
G01X71836Y11315D01*
G01X71958Y11437D01*
G01X71958Y10589D01*
G01X72707Y11437D02*
G01X72303Y11437D01*
G01X72263Y11074D01*
G01X72303Y11115D01*
G01X72425Y11155D01*
G01X72547Y11155D01*
G01X72669Y11115D01*
G01X72748Y11033D01*
G01X72788Y10911D01*
G01X72788Y10833D01*
G01X72748Y10711D01*
G01X72669Y10629D01*
G01X72547Y10589D01*
G01X72425Y10589D01*
G01X72303Y10629D01*
G01X72263Y10670D01*
G01X72224Y10751D01*
G01X88587Y11564D02*
G01X88265Y10716D01*
G01X88587Y11564D02*
G01X88912Y10716D01*
G01X88386Y10998D02*
G01X88790Y10998D01*
G01X89179Y11564D02*
G01X89179Y10716D01*
G01X89179Y11564D02*
G01X89461Y11564D01*
G01X89583Y11523D01*
G01X89662Y11442D01*
G01X89702Y11363D01*
G01X89743Y11242D01*
G01X89743Y11038D01*
G01X89702Y10919D01*
G01X89662Y10838D01*
G01X89583Y10756D01*
G01X89461Y10716D01*
G01X89179Y10716D01*
G01X90009Y11564D02*
G01X90009Y10716D01*
G01X90009Y11564D02*
G01X90294Y11564D01*
G01X90413Y11523D01*
G01X90495Y11442D01*
G01X90535Y11363D01*
G01X90576Y11242D01*
G01X90576Y11038D01*
G01X90535Y10919D01*
G01X90495Y10838D01*
G01X90413Y10756D01*
G01X90294Y10716D01*
G01X90009Y10716D01*
G01X90843Y11564D02*
G01X90843Y10716D01*
G01X90843Y11564D02*
G01X91206Y11564D01*
G01X91328Y11523D01*
G01X91368Y11483D01*
G01X91409Y11404D01*
G01X91409Y11323D01*
G01X91368Y11242D01*
G01X91328Y11201D01*
G01X91206Y11160D01*
G01X90843Y11160D01*
G01X91125Y11160D02*
G01X91409Y10716D01*
G01X91676Y11564D02*
G01X91676Y10716D01*
G01X91676Y11564D02*
G01X92202Y11564D01*
G01X91676Y11160D02*
G01X91998Y11160D01*
G01X91676Y10716D02*
G01X92202Y10716D01*
G01X93032Y11442D02*
G01X92951Y11523D01*
G01X92831Y11564D01*
G01X92669Y11564D01*
G01X92547Y11523D01*
G01X92468Y11442D01*
G01X92468Y11363D01*
G01X92506Y11282D01*
G01X92547Y11242D01*
G01X92628Y11201D01*
G01X92872Y11120D01*
G01X92951Y11079D01*
G01X92991Y11038D01*
G01X93032Y10960D01*
G01X93032Y10838D01*
G01X92951Y10756D01*
G01X92831Y10716D01*
G01X92669Y10716D01*
G01X92547Y10756D01*
G01X92468Y10838D01*
G01X93865Y11442D02*
G01X93784Y11523D01*
G01X93662Y11564D01*
G01X93502Y11564D01*
G01X93380Y11523D01*
G01X93299Y11442D01*
G01X93299Y11363D01*
G01X93339Y11282D01*
G01X93380Y11242D01*
G01X93461Y11201D01*
G01X93703Y11120D01*
G01X93784Y11079D01*
G01X93825Y11038D01*
G01X93865Y10960D01*
G01X93865Y10838D01*
G01X93784Y10756D01*
G01X93662Y10716D01*
G01X93502Y10716D01*
G01X93380Y10756D01*
G01X93299Y10838D01*
G01X89761Y4378D02*
G01X89720Y4457D01*
G01X89639Y4538D01*
G01X89557Y4579D01*
G01X89395Y4579D01*
G01X89316Y4538D01*
G01X89235Y4457D01*
G01X89194Y4378D01*
G01X89154Y4257D01*
G01X89154Y4053D01*
G01X89194Y3934D01*
G01X89235Y3853D01*
G01X89316Y3771D01*
G01X89395Y3731D01*
G01X89557Y3731D01*
G01X89639Y3771D01*
G01X89720Y3853D01*
G01X89761Y3934D01*
G01X90027Y4579D02*
G01X90027Y3731D01*
G01X90027Y3731D02*
G01X90512Y3731D01*
G01X90779Y4579D02*
G01X90779Y3731D01*
G01X91343Y4579D02*
G01X90779Y4013D01*
G01X90980Y4216D02*
G01X91343Y3731D01*
G01X86868Y4579D02*
G01X86868Y3731D01*
G01X86868Y4579D02*
G01X87231Y4579D01*
G01X87353Y4538D01*
G01X87393Y4498D01*
G01X87434Y4419D01*
G01X87434Y4338D01*
G01X87393Y4257D01*
G01X87353Y4216D01*
G01X87231Y4175D01*
G01X86868Y4175D01*
G01X87149Y4175D02*
G01X87434Y3731D01*
G01X87701Y4579D02*
G01X87901Y3731D01*
G01X88104Y4579D02*
G01X87901Y3731D01*
G01X88104Y4579D02*
G01X88305Y3731D01*
G01X88508Y4579D02*
G01X88305Y3731D01*
G01X84074Y4579D02*
G01X84074Y3731D01*
G01X84074Y4579D02*
G01X84437Y4579D01*
G01X84559Y4538D01*
G01X84599Y4498D01*
G01X84640Y4419D01*
G01X84640Y4338D01*
G01X84599Y4257D01*
G01X84559Y4216D01*
G01X84437Y4175D01*
G01X84074Y4175D01*
G01X84355Y4175D02*
G01X84640Y3731D01*
G01X85471Y4457D02*
G01X85392Y4538D01*
G01X85270Y4579D01*
G01X85107Y4579D01*
G01X84988Y4538D01*
G01X84907Y4457D01*
G01X84907Y4378D01*
G01X84947Y4297D01*
G01X84988Y4257D01*
G01X85067Y4216D01*
G01X85310Y4135D01*
G01X85392Y4094D01*
G01X85432Y4053D01*
G01X85471Y3975D01*
G01X85471Y3853D01*
G01X85392Y3771D01*
G01X85270Y3731D01*
G01X85107Y3731D01*
G01X84988Y3771D01*
G01X84907Y3853D01*
G01X86022Y4579D02*
G01X86022Y3731D01*
G01X85737Y4579D02*
G01X86304Y4579D01*
G01X82395Y4378D02*
G01X82354Y4457D01*
G01X82273Y4538D01*
G01X82191Y4579D01*
G01X82029Y4579D01*
G01X81950Y4538D01*
G01X81869Y4457D01*
G01X81828Y4378D01*
G01X81788Y4257D01*
G01X81788Y4053D01*
G01X81828Y3934D01*
G01X81869Y3853D01*
G01X81950Y3771D01*
G01X82029Y3731D01*
G01X82191Y3731D01*
G01X82273Y3771D01*
G01X82354Y3853D01*
G01X82395Y3934D01*
G01X83225Y4457D02*
G01X83146Y4538D01*
G01X83024Y4579D01*
G01X82862Y4579D01*
G01X82740Y4538D01*
G01X82661Y4457D01*
G01X82661Y4378D01*
G01X82702Y4297D01*
G01X82740Y4257D01*
G01X82821Y4216D01*
G01X83065Y4135D01*
G01X83146Y4094D01*
G01X83185Y4053D01*
G01X83225Y3975D01*
G01X83225Y3853D01*
G01X83146Y3771D01*
G01X83024Y3731D01*
G01X82862Y3731D01*
G01X82740Y3771D01*
G01X82661Y3853D01*
G01X79121Y4579D02*
G01X79121Y3731D01*
G01X79387Y4579D02*
G01X79387Y3731D01*
G01X79387Y4579D02*
G01X79750Y4579D01*
G01X79872Y4538D01*
G01X79913Y4498D01*
G01X79954Y4419D01*
G01X79954Y4338D01*
G01X79913Y4257D01*
G01X79872Y4216D01*
G01X79750Y4175D01*
G01X79387Y4175D01*
G01X79669Y4175D02*
G01X79954Y3731D01*
G01X80462Y4579D02*
G01X80380Y4538D01*
G01X80302Y4457D01*
G01X80261Y4378D01*
G01X80220Y4257D01*
G01X80220Y4053D01*
G01X80261Y3934D01*
G01X80302Y3853D01*
G01X80380Y3771D01*
G01X80462Y3731D01*
G01X80624Y3731D01*
G01X80705Y3771D01*
G01X80784Y3853D01*
G01X80825Y3934D01*
G01X80865Y4053D01*
G01X80865Y4257D01*
G01X80825Y4378D01*
G01X80784Y4457D01*
G01X80705Y4538D01*
G01X80624Y4579D01*
G01X80462Y4579D01*
G01X80584Y3893D02*
G01X80825Y3649D01*
G01X71854Y4378D02*
G01X71813Y4457D01*
G01X71732Y4538D01*
G01X71650Y4579D01*
G01X71488Y4579D01*
G01X71409Y4538D01*
G01X71328Y4457D01*
G01X71287Y4378D01*
G01X71247Y4257D01*
G01X71247Y4053D01*
G01X71287Y3934D01*
G01X71328Y3853D01*
G01X71409Y3771D01*
G01X71488Y3731D01*
G01X71650Y3731D01*
G01X71732Y3771D01*
G01X71813Y3853D01*
G01X71854Y3934D01*
G01X71854Y4053D01*
G01X71650Y4053D02*
G01X71854Y4053D01*
G01X72120Y4579D02*
G01X72120Y3731D01*
G01X72120Y4579D02*
G01X72684Y3731D01*
G01X72684Y4579D02*
G01X72684Y3731D01*
G01X72951Y4579D02*
G01X72951Y3731D01*
G01X72951Y4579D02*
G01X73235Y4579D01*
G01X73355Y4538D01*
G01X73436Y4457D01*
G01X73477Y4378D01*
G01X73517Y4257D01*
G01X73517Y4053D01*
G01X73477Y3934D01*
G01X73436Y3853D01*
G01X73355Y3771D01*
G01X73235Y3731D01*
G01X72951Y3731D01*
G01X73914Y4579D02*
G01X74236Y3731D01*
G01X74561Y4579D02*
G01X74236Y3731D01*
G01X75311Y4175D02*
G01X75232Y4257D01*
G01X75150Y4297D01*
G01X75029Y4297D01*
G01X74947Y4257D01*
G01X74866Y4175D01*
G01X74828Y4053D01*
G01X74828Y3975D01*
G01X74866Y3853D01*
G01X74947Y3771D01*
G01X75029Y3731D01*
G01X75150Y3731D01*
G01X75232Y3771D01*
G01X75311Y3853D01*
G01X76062Y4175D02*
G01X75984Y4257D01*
G01X75902Y4297D01*
G01X75780Y4297D01*
G01X75699Y4257D01*
G01X75618Y4175D01*
G01X75577Y4053D01*
G01X75577Y3975D01*
G01X75618Y3853D01*
G01X75699Y3771D01*
G01X75780Y3731D01*
G01X75902Y3731D01*
G01X75984Y3771D01*
G01X76062Y3853D01*
G01X122781Y5775D02*
G01X122740Y5854D01*
G01X122659Y5935D01*
G01X122577Y5976D01*
G01X122415Y5976D01*
G01X122336Y5935D01*
G01X122255Y5854D01*
G01X122214Y5775D01*
G01X122174Y5654D01*
G01X122174Y5450D01*
G01X122214Y5331D01*
G01X122255Y5250D01*
G01X122336Y5168D01*
G01X122415Y5128D01*
G01X122577Y5128D01*
G01X122659Y5168D01*
G01X122740Y5250D01*
G01X122781Y5331D01*
G01X123370Y5976D02*
G01X123047Y5128D01*
G01X123370Y5976D02*
G01X123692Y5128D01*
G01X123167Y5410D02*
G01X123571Y5410D01*
G01X123959Y5816D02*
G01X124040Y5854D01*
G01X124162Y5976D01*
G01X124162Y5128D01*
G01X125194Y5775D02*
G01X125153Y5854D01*
G01X125072Y5935D01*
G01X124990Y5976D01*
G01X124828Y5976D01*
G01X124749Y5935D01*
G01X124668Y5854D01*
G01X124627Y5775D01*
G01X124587Y5654D01*
G01X124587Y5450D01*
G01X124627Y5331D01*
G01X124668Y5250D01*
G01X124749Y5168D01*
G01X124828Y5128D01*
G01X124990Y5128D01*
G01X125072Y5168D01*
G01X125153Y5250D01*
G01X125194Y5331D01*
G01X125783Y5976D02*
G01X125460Y5128D01*
G01X125783Y5976D02*
G01X126105Y5128D01*
G01X125580Y5410D02*
G01X125984Y5410D01*
G01X126413Y5775D02*
G01X126413Y5816D01*
G01X126453Y5895D01*
G01X126494Y5935D01*
G01X126575Y5976D01*
G01X126735Y5976D01*
G01X126817Y5935D01*
G01X126857Y5895D01*
G01X126898Y5816D01*
G01X126898Y5735D01*
G01X126857Y5654D01*
G01X126776Y5532D01*
G01X126372Y5128D01*
G01X126939Y5128D01*
G01X128130Y5976D02*
G01X128010Y5935D01*
G01X127929Y5816D01*
G01X127889Y5613D01*
G01X127889Y5491D01*
G01X127929Y5290D01*
G01X128010Y5168D01*
G01X128130Y5128D01*
G01X128211Y5128D01*
G01X128333Y5168D01*
G01X128414Y5290D01*
G01X128455Y5491D01*
G01X128455Y5613D01*
G01X128414Y5816D01*
G01X128333Y5935D01*
G01X128211Y5976D01*
G01X128130Y5976D01*
G01X146362Y5976D02*
G01X145958Y5128D01*
G01X145796Y5976D02*
G01X146362Y5976D01*
G01X148577Y5976D02*
G01X148457Y5935D01*
G01X148376Y5816D01*
G01X148336Y5613D01*
G01X148336Y5491D01*
G01X148376Y5290D01*
G01X148457Y5168D01*
G01X148577Y5128D01*
G01X148658Y5128D01*
G01X148780Y5168D01*
G01X148861Y5290D01*
G01X148902Y5491D01*
G01X148902Y5613D01*
G01X148861Y5816D01*
G01X148780Y5935D01*
G01X148658Y5976D01*
G01X148577Y5976D01*
G01X166809Y5976D02*
G01X166405Y5128D01*
G01X166243Y5976D02*
G01X166809Y5976D01*
G01X168501Y5775D02*
G01X168460Y5854D01*
G01X168379Y5935D01*
G01X168297Y5976D01*
G01X168135Y5976D01*
G01X168056Y5935D01*
G01X167975Y5854D01*
G01X167934Y5775D01*
G01X167894Y5654D01*
G01X167894Y5450D01*
G01X167934Y5331D01*
G01X167975Y5250D01*
G01X168056Y5168D01*
G01X168135Y5128D01*
G01X168297Y5128D01*
G01X168379Y5168D01*
G01X168460Y5250D01*
G01X168501Y5331D01*
G01X168767Y5976D02*
G01X168767Y5128D01*
G01X168767Y5976D02*
G01X169130Y5976D01*
G01X169252Y5935D01*
G01X169291Y5895D01*
G01X169331Y5816D01*
G01X169331Y5735D01*
G01X169291Y5654D01*
G01X169252Y5613D01*
G01X169130Y5572D01*
G01X168767Y5572D02*
G01X169130Y5572D01*
G01X169252Y5532D01*
G01X169291Y5491D01*
G01X169331Y5410D01*
G01X169331Y5290D01*
G01X169291Y5209D01*
G01X169252Y5168D01*
G01X169130Y5128D01*
G01X168767Y5128D01*
G01X169598Y5816D02*
G01X169679Y5854D01*
G01X169801Y5976D01*
G01X169801Y5128D01*
G01X170914Y5775D02*
G01X170873Y5854D01*
G01X170792Y5935D01*
G01X170710Y5976D01*
G01X170548Y5976D01*
G01X170469Y5935D01*
G01X170388Y5854D01*
G01X170347Y5775D01*
G01X170307Y5654D01*
G01X170307Y5450D01*
G01X170347Y5331D01*
G01X170388Y5250D01*
G01X170469Y5168D01*
G01X170548Y5128D01*
G01X170710Y5128D01*
G01X170792Y5168D01*
G01X170873Y5250D01*
G01X170914Y5331D01*
G01X171180Y5976D02*
G01X171180Y5128D01*
G01X171180Y5976D02*
G01X171543Y5976D01*
G01X171665Y5935D01*
G01X171704Y5895D01*
G01X171744Y5816D01*
G01X171744Y5735D01*
G01X171704Y5654D01*
G01X171665Y5613D01*
G01X171543Y5572D01*
G01X171180Y5572D02*
G01X171543Y5572D01*
G01X171665Y5532D01*
G01X171704Y5491D01*
G01X171744Y5410D01*
G01X171744Y5290D01*
G01X171704Y5209D01*
G01X171665Y5168D01*
G01X171543Y5128D01*
G01X171180Y5128D01*
G01X172051Y5775D02*
G01X172051Y5816D01*
G01X172092Y5895D01*
G01X172133Y5935D01*
G01X172214Y5976D01*
G01X172377Y5976D01*
G01X172455Y5935D01*
G01X172496Y5895D01*
G01X172537Y5816D01*
G01X172537Y5735D01*
G01X172496Y5654D01*
G01X172415Y5532D01*
G01X172011Y5128D01*
G01X172577Y5128D01*
G01X5941Y5775D02*
G01X5900Y5854D01*
G01X5819Y5935D01*
G01X5737Y5976D01*
G01X5575Y5976D01*
G01X5496Y5935D01*
G01X5415Y5854D01*
G01X5374Y5775D01*
G01X5334Y5654D01*
G01X5334Y5450D01*
G01X5374Y5331D01*
G01X5415Y5250D01*
G01X5496Y5168D01*
G01X5575Y5128D01*
G01X5737Y5128D01*
G01X5819Y5168D01*
G01X5900Y5250D01*
G01X5941Y5331D01*
G01X6530Y5976D02*
G01X6207Y5128D01*
G01X6530Y5976D02*
G01X6852Y5128D01*
G01X6327Y5410D02*
G01X6731Y5410D01*
G01X7119Y5816D02*
G01X7200Y5854D01*
G01X7322Y5976D01*
G01X7322Y5128D01*
G01X8354Y5775D02*
G01X8313Y5854D01*
G01X8232Y5935D01*
G01X8150Y5976D01*
G01X7988Y5976D01*
G01X7909Y5935D01*
G01X7828Y5854D01*
G01X7787Y5775D01*
G01X7747Y5654D01*
G01X7747Y5450D01*
G01X7787Y5331D01*
G01X7828Y5250D01*
G01X7909Y5168D01*
G01X7988Y5128D01*
G01X8150Y5128D01*
G01X8232Y5168D01*
G01X8313Y5250D01*
G01X8354Y5331D01*
G01X8943Y5976D02*
G01X8620Y5128D01*
G01X8943Y5976D02*
G01X9265Y5128D01*
G01X8740Y5410D02*
G01X9144Y5410D01*
G01X9573Y5775D02*
G01X9573Y5816D01*
G01X9613Y5895D01*
G01X9654Y5935D01*
G01X9735Y5976D01*
G01X9895Y5976D01*
G01X9977Y5935D01*
G01X10017Y5895D01*
G01X10058Y5816D01*
G01X10058Y5735D01*
G01X10017Y5654D01*
G01X9936Y5532D01*
G01X9532Y5128D01*
G01X10099Y5128D01*
G01X11290Y5976D02*
G01X11170Y5935D01*
G01X11089Y5816D01*
G01X11049Y5613D01*
G01X11049Y5491D01*
G01X11089Y5290D01*
G01X11170Y5168D01*
G01X11290Y5128D01*
G01X11371Y5128D01*
G01X11493Y5168D01*
G01X11574Y5290D01*
G01X11615Y5491D01*
G01X11615Y5613D01*
G01X11574Y5816D01*
G01X11493Y5935D01*
G01X11371Y5976D01*
G01X11290Y5976D01*
G01X29522Y5976D02*
G01X29118Y5128D01*
G01X28956Y5976D02*
G01X29522Y5976D01*
G01X31737Y5976D02*
G01X31617Y5935D01*
G01X31536Y5816D01*
G01X31496Y5613D01*
G01X31496Y5491D01*
G01X31536Y5290D01*
G01X31617Y5168D01*
G01X31737Y5128D01*
G01X31818Y5128D01*
G01X31940Y5168D01*
G01X32021Y5290D01*
G01X32062Y5491D01*
G01X32062Y5613D01*
G01X32021Y5816D01*
G01X31940Y5935D01*
G01X31818Y5976D01*
G01X31737Y5976D01*
G01X49969Y5976D02*
G01X49565Y5128D01*
G01X49403Y5976D02*
G01X49969Y5976D01*
G01X51661Y5775D02*
G01X51620Y5854D01*
G01X51539Y5935D01*
G01X51457Y5976D01*
G01X51295Y5976D01*
G01X51216Y5935D01*
G01X51135Y5854D01*
G01X51094Y5775D01*
G01X51054Y5654D01*
G01X51054Y5450D01*
G01X51094Y5331D01*
G01X51135Y5250D01*
G01X51216Y5168D01*
G01X51295Y5128D01*
G01X51457Y5128D01*
G01X51539Y5168D01*
G01X51620Y5250D01*
G01X51661Y5331D01*
G01X51927Y5976D02*
G01X51927Y5128D01*
G01X51927Y5976D02*
G01X52290Y5976D01*
G01X52412Y5935D01*
G01X52451Y5895D01*
G01X52491Y5816D01*
G01X52491Y5735D01*
G01X52451Y5654D01*
G01X52412Y5613D01*
G01X52290Y5572D01*
G01X51927Y5572D02*
G01X52290Y5572D01*
G01X52412Y5532D01*
G01X52451Y5491D01*
G01X52491Y5410D01*
G01X52491Y5290D01*
G01X52451Y5209D01*
G01X52412Y5168D01*
G01X52290Y5128D01*
G01X51927Y5128D01*
G01X52758Y5816D02*
G01X52839Y5854D01*
G01X52961Y5976D01*
G01X52961Y5128D01*
G01X54074Y5775D02*
G01X54033Y5854D01*
G01X53952Y5935D01*
G01X53870Y5976D01*
G01X53708Y5976D01*
G01X53629Y5935D01*
G01X53548Y5854D01*
G01X53507Y5775D01*
G01X53467Y5654D01*
G01X53467Y5450D01*
G01X53507Y5331D01*
G01X53548Y5250D01*
G01X53629Y5168D01*
G01X53708Y5128D01*
G01X53870Y5128D01*
G01X53952Y5168D01*
G01X54033Y5250D01*
G01X54074Y5331D01*
G01X54340Y5976D02*
G01X54340Y5128D01*
G01X54340Y5976D02*
G01X54703Y5976D01*
G01X54825Y5935D01*
G01X54864Y5895D01*
G01X54904Y5816D01*
G01X54904Y5735D01*
G01X54864Y5654D01*
G01X54825Y5613D01*
G01X54703Y5572D01*
G01X54340Y5572D02*
G01X54703Y5572D01*
G01X54825Y5532D01*
G01X54864Y5491D01*
G01X54904Y5410D01*
G01X54904Y5290D01*
G01X54864Y5209D01*
G01X54825Y5168D01*
G01X54703Y5128D01*
G01X54340Y5128D01*
G01X55211Y5775D02*
G01X55211Y5816D01*
G01X55252Y5895D01*
G01X55293Y5935D01*
G01X55374Y5976D01*
G01X55537Y5976D01*
G01X55615Y5935D01*
G01X55656Y5895D01*
G01X55697Y5816D01*
G01X55697Y5735D01*
G01X55656Y5654D01*
G01X55575Y5532D01*
G01X55171Y5128D01*
G01X55737Y5128D01*
G01X125341Y115951D02*
G01X126189Y115951D01*
G01X125341Y115951D02*
G01X125341Y116314D01*
G01X125382Y116436D01*
G01X125422Y116476D01*
G01X125501Y116517D01*
G01X125582Y116517D01*
G01X125663Y116476D01*
G01X125704Y116436D01*
G01X125745Y116314D01*
G01X125745Y115951D01*
G01X125745Y116232D02*
G01X126189Y116517D01*
G01X125341Y117066D02*
G01X126189Y117066D01*
G01X125341Y116784D02*
G01X125341Y117348D01*
G01X125463Y118181D02*
G01X125382Y118099D01*
G01X125341Y117980D01*
G01X125341Y117817D01*
G01X125382Y117695D01*
G01X125463Y117614D01*
G01X125542Y117614D01*
G01X125623Y117655D01*
G01X125663Y117695D01*
G01X125704Y117777D01*
G01X125785Y118021D01*
G01X125826Y118099D01*
G01X125867Y118140D01*
G01X125945Y118181D01*
G01X126067Y118181D01*
G01X126149Y118099D01*
G01X126189Y117980D01*
G01X126189Y117817D01*
G01X126149Y117695D01*
G01X126067Y117614D01*
G01X128082Y116558D02*
G01X128003Y116517D01*
G01X127922Y116436D01*
G01X127881Y116354D01*
G01X127881Y116192D01*
G01X127922Y116113D01*
G01X128003Y116032D01*
G01X128082Y115991D01*
G01X128203Y115951D01*
G01X128407Y115951D01*
G01X128526Y115991D01*
G01X128607Y116032D01*
G01X128689Y116113D01*
G01X128729Y116192D01*
G01X128729Y116354D01*
G01X128689Y116436D01*
G01X128607Y116517D01*
G01X128526Y116558D01*
G01X127881Y117106D02*
G01X128729Y117106D01*
G01X127881Y116824D02*
G01X127881Y117388D01*
G01X128003Y118221D02*
G01X127922Y118140D01*
G01X127881Y118021D01*
G01X127881Y117858D01*
G01X127922Y117736D01*
G01X128003Y117655D01*
G01X128082Y117655D01*
G01X128163Y117695D01*
G01X128203Y117736D01*
G01X128244Y117817D01*
G01X128325Y118059D01*
G01X128366Y118140D01*
G01X128407Y118181D01*
G01X128485Y118221D01*
G01X128607Y118221D01*
G01X128689Y118140D01*
G01X128729Y118021D01*
G01X128729Y117858D01*
G01X128689Y117736D01*
G01X128607Y117655D01*
G01X130421Y116232D02*
G01X131269Y116232D01*
G01X130421Y115951D02*
G01X130421Y116517D01*
G01X130421Y116784D02*
G01X131269Y117348D01*
G01X130421Y117348D02*
G01X131269Y116784D01*
G01X132834Y115951D02*
G01X133682Y115951D01*
G01X132834Y115951D02*
G01X132834Y116314D01*
G01X132875Y116436D01*
G01X132915Y116476D01*
G01X132994Y116517D01*
G01X133075Y116517D01*
G01X133156Y116476D01*
G01X133197Y116436D01*
G01X133238Y116314D01*
G01X133238Y115951D01*
G01X133238Y116232D02*
G01X133682Y116517D01*
G01X132834Y116784D02*
G01X133682Y117348D01*
G01X132834Y117348D02*
G01X133682Y116784D01*
G01X135702Y116558D02*
G01X135623Y116517D01*
G01X135542Y116436D01*
G01X135501Y116354D01*
G01X135501Y116192D01*
G01X135542Y116113D01*
G01X135623Y116032D01*
G01X135702Y115991D01*
G01X135823Y115951D01*
G01X136027Y115951D01*
G01X136146Y115991D01*
G01X136227Y116032D01*
G01X136309Y116113D01*
G01X136349Y116192D01*
G01X136349Y116354D01*
G01X136309Y116436D01*
G01X136227Y116517D01*
G01X136146Y116558D01*
G01X136027Y116558D01*
G01X136027Y116354D02*
G01X136027Y116558D01*
G01X135501Y116824D02*
G01X136349Y116824D01*
G01X135501Y116824D02*
G01X136349Y117388D01*
G01X135501Y117388D02*
G01X136349Y117388D01*
G01X135501Y117655D02*
G01X136349Y117655D01*
G01X135501Y117655D02*
G01X135501Y117939D01*
G01X135542Y118059D01*
G01X135623Y118140D01*
G01X135702Y118181D01*
G01X135823Y118221D01*
G01X136027Y118221D01*
G01X136146Y118181D01*
G01X136227Y118140D01*
G01X136309Y118059D01*
G01X136349Y117939D01*
G01X136349Y117655D01*
G01X122801Y115951D02*
G01X123649Y116273D01*
G01X122801Y116598D02*
G01X123649Y116273D01*
G01X123205Y117348D02*
G01X123123Y117269D01*
G01X123083Y117187D01*
G01X123083Y117066D01*
G01X123123Y116984D01*
G01X123205Y116903D01*
G01X123327Y116865D01*
G01X123405Y116865D01*
G01X123527Y116903D01*
G01X123609Y116984D01*
G01X123649Y117066D01*
G01X123649Y117187D01*
G01X123609Y117269D01*
G01X123527Y117348D01*
G01X123205Y118099D02*
G01X123123Y118021D01*
G01X123083Y117939D01*
G01X123083Y117817D01*
G01X123123Y117736D01*
G01X123205Y117655D01*
G01X123327Y117614D01*
G01X123405Y117614D01*
G01X123527Y117655D01*
G01X123609Y117736D01*
G01X123649Y117817D01*
G01X123649Y117939D01*
G01X123609Y118021D01*
G01X123527Y118099D01*
G01X2540Y89796D02*
G01X2540Y88948D01*
G01X2540Y89352D02*
G01X2661Y89474D01*
G01X2743Y89514D01*
G01X2862Y89514D01*
G01X2943Y89474D01*
G01X2984Y89352D01*
G01X2984Y88948D01*
G01X3373Y89796D02*
G01X3373Y89110D01*
G01X3413Y88988D01*
G01X3492Y88948D01*
G01X3573Y88948D01*
G01X3251Y89514D02*
G01X3533Y89514D01*
G01X3962Y89796D02*
G01X3962Y89110D01*
G01X4003Y88988D01*
G01X4084Y88948D01*
G01X4165Y88948D01*
G01X3840Y89514D02*
G01X4124Y89514D01*
G01X4432Y89514D02*
G01X4432Y88666D01*
G01X4432Y89392D02*
G01X4511Y89474D01*
G01X4592Y89514D01*
G01X4714Y89514D01*
G01X4795Y89474D01*
G01X4876Y89392D01*
G01X4914Y89270D01*
G01X4914Y89192D01*
G01X4876Y89070D01*
G01X4795Y88988D01*
G01X4714Y88948D01*
G01X4592Y88948D01*
G01X4511Y88988D01*
G01X4432Y89070D01*
G01X5626Y89392D02*
G01X5588Y89474D01*
G01X5466Y89514D01*
G01X5344Y89514D01*
G01X5222Y89474D01*
G01X5181Y89392D01*
G01X5222Y89311D01*
G01X5303Y89270D01*
G01X5506Y89230D01*
G01X5588Y89192D01*
G01X5626Y89110D01*
G01X5626Y89070D01*
G01X5588Y88988D01*
G01X5466Y88948D01*
G01X5344Y88948D01*
G01X5222Y88988D01*
G01X5181Y89070D01*
G01X5933Y89433D02*
G01X5892Y89392D01*
G01X5933Y89352D01*
G01X5974Y89392D01*
G01X5933Y89433D01*
G01X5933Y89151D02*
G01X5892Y89110D01*
G01X5933Y89070D01*
G01X5974Y89110D01*
G01X5933Y89151D01*
G01X6969Y89959D02*
G01X6240Y88666D01*
G01X7962Y89959D02*
G01X7236Y88666D01*
G01X8714Y89514D02*
G01X8714Y88866D01*
G01X8674Y88747D01*
G01X8633Y88706D01*
G01X8552Y88666D01*
G01X8432Y88666D01*
G01X8351Y88706D01*
G01X8714Y89392D02*
G01X8633Y89474D01*
G01X8552Y89514D01*
G01X8432Y89514D01*
G01X8351Y89474D01*
G01X8270Y89392D01*
G01X8229Y89270D01*
G01X8229Y89192D01*
G01X8270Y89070D01*
G01X8351Y88988D01*
G01X8432Y88948D01*
G01X8552Y88948D01*
G01X8633Y88988D01*
G01X8714Y89070D01*
G01X8981Y89796D02*
G01X9022Y89755D01*
G01X9062Y89796D01*
G01X9022Y89837D01*
G01X8981Y89796D01*
G01X9022Y89514D02*
G01X9022Y88948D01*
G01X9448Y89796D02*
G01X9448Y89110D01*
G01X9489Y88988D01*
G01X9570Y88948D01*
G01X9652Y88948D01*
G01X9329Y89514D02*
G01X9611Y89514D01*
G01X9918Y89796D02*
G01X9918Y88948D01*
G01X9918Y89352D02*
G01X10040Y89474D01*
G01X10121Y89514D01*
G01X10241Y89514D01*
G01X10322Y89474D01*
G01X10363Y89352D01*
G01X10363Y88948D01*
G01X10629Y89514D02*
G01X10629Y89110D01*
G01X10670Y88988D01*
G01X10751Y88948D01*
G01X10871Y88948D01*
G01X10952Y88988D01*
G01X11074Y89110D01*
G01X11074Y89514D02*
G01X11074Y88948D01*
G01X11341Y89796D02*
G01X11341Y88948D01*
G01X11341Y89392D02*
G01X11422Y89474D01*
G01X11503Y89514D01*
G01X11623Y89514D01*
G01X11704Y89474D01*
G01X11785Y89392D01*
G01X11826Y89270D01*
G01X11826Y89192D01*
G01X11785Y89070D01*
G01X11704Y88988D01*
G01X11623Y88948D01*
G01X11503Y88948D01*
G01X11422Y88988D01*
G01X11341Y89070D01*
G01X12133Y89151D02*
G01X12092Y89110D01*
G01X12133Y89070D01*
G01X12174Y89110D01*
G01X12133Y89151D01*
G01X12926Y89392D02*
G01X12844Y89474D01*
G01X12763Y89514D01*
G01X12641Y89514D01*
G01X12560Y89474D01*
G01X12481Y89392D01*
G01X12440Y89270D01*
G01X12440Y89192D01*
G01X12481Y89070D01*
G01X12560Y88988D01*
G01X12641Y88948D01*
G01X12763Y88948D01*
G01X12844Y88988D01*
G01X12926Y89070D01*
G01X13393Y89514D02*
G01X13312Y89474D01*
G01X13233Y89392D01*
G01X13192Y89270D01*
G01X13192Y89192D01*
G01X13233Y89070D01*
G01X13312Y88988D01*
G01X13393Y88948D01*
G01X13515Y88948D01*
G01X13596Y88988D01*
G01X13677Y89070D01*
G01X13716Y89192D01*
G01X13716Y89270D01*
G01X13677Y89392D01*
G01X13596Y89474D01*
G01X13515Y89514D01*
G01X13393Y89514D01*
G01X13982Y89514D02*
G01X13982Y88948D01*
G01X13982Y89352D02*
G01X14104Y89474D01*
G01X14185Y89514D01*
G01X14307Y89514D01*
G01X14389Y89474D01*
G01X14427Y89352D01*
G01X14427Y88948D01*
G01X14427Y89352D02*
G01X14549Y89474D01*
G01X14630Y89514D01*
G01X14752Y89514D01*
G01X14833Y89474D01*
G01X14871Y89352D01*
G01X14871Y88948D01*
G01X15867Y89959D02*
G01X15138Y88666D01*
G01X16294Y89796D02*
G01X16334Y89755D01*
G01X16375Y89796D01*
G01X16334Y89837D01*
G01X16294Y89796D01*
G01X16334Y89514D02*
G01X16334Y88826D01*
G01X16294Y88706D01*
G01X16215Y88666D01*
G01X16134Y88666D01*
G01X17127Y89392D02*
G01X17045Y89474D01*
G01X16967Y89514D01*
G01X16845Y89514D01*
G01X16764Y89474D01*
G01X16682Y89392D01*
G01X16642Y89270D01*
G01X16642Y89192D01*
G01X16682Y89070D01*
G01X16764Y88988D01*
G01X16845Y88948D01*
G01X16967Y88948D01*
G01X17045Y88988D01*
G01X17127Y89070D01*
G01X17597Y89514D02*
G01X17515Y89474D01*
G01X17434Y89392D01*
G01X17393Y89270D01*
G01X17393Y89192D01*
G01X17434Y89070D01*
G01X17515Y88988D01*
G01X17597Y88948D01*
G01X17716Y88948D01*
G01X17797Y88988D01*
G01X17879Y89070D01*
G01X17919Y89192D01*
G01X17919Y89270D01*
G01X17879Y89392D01*
G01X17797Y89474D01*
G01X17716Y89514D01*
G01X17597Y89514D01*
G01X18227Y89595D02*
G01X18227Y89636D01*
G01X18267Y89715D01*
G01X18308Y89755D01*
G01X18389Y89796D01*
G01X18549Y89796D01*
G01X18630Y89755D01*
G01X18671Y89715D01*
G01X18712Y89636D01*
G01X18712Y89555D01*
G01X18671Y89474D01*
G01X18590Y89352D01*
G01X18186Y88948D01*
G01X18752Y88948D01*
G01X19504Y89674D02*
G01X19464Y89755D01*
G01X19342Y89796D01*
G01X19260Y89796D01*
G01X19138Y89755D01*
G01X19060Y89636D01*
G01X19019Y89433D01*
G01X19019Y89230D01*
G01X19060Y89070D01*
G01X19138Y88988D01*
G01X19260Y88948D01*
G01X19301Y88948D01*
G01X19423Y88988D01*
G01X19504Y89070D01*
G01X19545Y89192D01*
G01X19545Y89230D01*
G01X19504Y89352D01*
G01X19423Y89433D01*
G01X19301Y89474D01*
G01X19260Y89474D01*
G01X19138Y89433D01*
G01X19060Y89352D01*
G01X19019Y89230D01*
G01X20215Y89796D02*
G01X19812Y89230D01*
G01X20416Y89230D01*
G01X20215Y89796D02*
G01X20215Y88948D01*
G01X20683Y89636D02*
G01X20764Y89674D01*
G01X20886Y89796D01*
G01X20886Y88948D01*
G01X21879Y89959D02*
G01X21153Y88666D01*
G01X22590Y89392D02*
G01X22550Y89474D01*
G01X22428Y89514D01*
G01X22308Y89514D01*
G01X22186Y89474D01*
G01X22146Y89392D01*
G01X22186Y89311D01*
G01X22268Y89270D01*
G01X22468Y89230D01*
G01X22550Y89192D01*
G01X22590Y89110D01*
G01X22590Y89070D01*
G01X22550Y88988D01*
G01X22428Y88948D01*
G01X22308Y88948D01*
G01X22186Y88988D01*
G01X22146Y89070D01*
G01X22857Y89796D02*
G01X22857Y88948D01*
G01X22857Y89392D02*
G01X22938Y89474D01*
G01X23020Y89514D01*
G01X23139Y89514D01*
G01X23220Y89474D01*
G01X23301Y89392D01*
G01X23342Y89270D01*
G01X23342Y89192D01*
G01X23301Y89070D01*
G01X23220Y88988D01*
G01X23139Y88948D01*
G01X23020Y88948D01*
G01X22938Y88988D01*
G01X22857Y89070D01*
G01X24094Y89392D02*
G01X24013Y89474D01*
G01X23931Y89514D01*
G01X23812Y89514D01*
G01X23731Y89474D01*
G01X23649Y89392D01*
G01X23609Y89270D01*
G01X23609Y89192D01*
G01X23649Y89070D01*
G01X23731Y88988D01*
G01X23812Y88948D01*
G01X23931Y88948D01*
G01X24013Y88988D01*
G01X24094Y89070D01*
G01X24846Y89674D02*
G01X24805Y89755D01*
G01X24683Y89796D01*
G01X24602Y89796D01*
G01X24483Y89755D01*
G01X24401Y89636D01*
G01X24361Y89433D01*
G01X24361Y89230D01*
G01X24401Y89070D01*
G01X24483Y88988D01*
G01X24602Y88948D01*
G01X24643Y88948D01*
G01X24765Y88988D01*
G01X24846Y89070D01*
G01X24886Y89192D01*
G01X24886Y89230D01*
G01X24846Y89352D01*
G01X24765Y89433D01*
G01X24643Y89474D01*
G01X24602Y89474D01*
G01X24483Y89433D01*
G01X24401Y89352D01*
G01X24361Y89230D01*
G01X25638Y89796D02*
G01X25234Y89796D01*
G01X25194Y89433D01*
G01X25234Y89474D01*
G01X25354Y89514D01*
G01X25476Y89514D01*
G01X25598Y89474D01*
G01X25679Y89392D01*
G01X25717Y89270D01*
G01X25717Y89192D01*
G01X25679Y89070D01*
G01X25598Y88988D01*
G01X25476Y88948D01*
G01X25354Y88948D01*
G01X25234Y88988D01*
G01X25194Y89029D01*
G01X25153Y89110D01*
G01X26228Y89796D02*
G01X26106Y89755D01*
G01X26024Y89636D01*
G01X25984Y89433D01*
G01X25984Y89311D01*
G01X26024Y89110D01*
G01X26106Y88988D01*
G01X26228Y88948D01*
G01X26309Y88948D01*
G01X26428Y88988D01*
G01X26509Y89110D01*
G01X26550Y89311D01*
G01X26550Y89433D01*
G01X26509Y89636D01*
G01X26428Y89755D01*
G01X26309Y89796D01*
G01X26228Y89796D01*
G01X26857Y89595D02*
G01X26857Y89636D01*
G01X26898Y89715D01*
G01X26939Y89755D01*
G01X27020Y89796D01*
G01X27180Y89796D01*
G01X27261Y89755D01*
G01X27302Y89715D01*
G01X27343Y89636D01*
G01X27343Y89555D01*
G01X27302Y89474D01*
G01X27221Y89352D01*
G01X26817Y88948D01*
G01X27383Y88948D01*
G01X2540Y91193D02*
G01X2540Y90345D01*
G01X2540Y91193D02*
G01X2903Y91193D01*
G01X3025Y91152D01*
G01X3065Y91112D01*
G01X3106Y91033D01*
G01X3106Y90952D01*
G01X3065Y90871D01*
G01X3025Y90830D01*
G01X2903Y90789D01*
G01X2540Y90789D01*
G01X2821Y90789D02*
G01X3106Y90345D01*
G01X3373Y90667D02*
G01X3858Y90667D01*
G01X3858Y90749D01*
G01X3817Y90830D01*
G01X3776Y90871D01*
G01X3695Y90911D01*
G01X3573Y90911D01*
G01X3492Y90871D01*
G01X3413Y90789D01*
G01X3373Y90667D01*
G01X3373Y90589D01*
G01X3413Y90467D01*
G01X3492Y90385D01*
G01X3573Y90345D01*
G01X3695Y90345D01*
G01X3776Y90385D01*
G01X3858Y90467D01*
G01X4124Y90911D02*
G01X4366Y90345D01*
G01X4610Y90911D02*
G01X4366Y90345D01*
G01X5499Y91033D02*
G01X5577Y91071D01*
G01X5699Y91193D01*
G01X5699Y90345D01*
G01X6007Y90548D02*
G01X5966Y90507D01*
G01X6007Y90467D01*
G01X6047Y90507D01*
G01X6007Y90548D01*
G01X6555Y91193D02*
G01X6436Y91152D01*
G01X6355Y91033D01*
G01X6314Y90830D01*
G01X6314Y90708D01*
G01X6355Y90507D01*
G01X6436Y90385D01*
G01X6555Y90345D01*
G01X6637Y90345D01*
G01X6758Y90385D01*
G01X6840Y90507D01*
G01X6880Y90708D01*
G01X6880Y90830D01*
G01X6840Y91033D01*
G01X6758Y91152D01*
G01X6637Y91193D01*
G01X6555Y91193D01*
G01X41910Y99448D02*
G01X41910Y98600D01*
G01X42176Y99448D02*
G01X42176Y98600D01*
G01X42176Y99448D02*
G01X42743Y98600D01*
G01X42743Y99448D02*
G01X42743Y98600D01*
G01X21971Y116215D02*
G01X21971Y115435D01*
G01X22021Y115280D01*
G01X22125Y115176D01*
G01X22283Y115125D01*
G01X22387Y115125D01*
G01X22542Y115176D01*
G01X22646Y115280D01*
G01X22697Y115435D01*
G01X22697Y116215D01*
G01X23665Y116060D02*
G01X23611Y116164D01*
G01X23456Y116215D01*
G01X23352Y116215D01*
G01X23197Y116164D01*
G01X23093Y116006D01*
G01X23040Y115747D01*
G01X23040Y115488D01*
G01X23093Y115280D01*
G01X23197Y115176D01*
G01X23352Y115125D01*
G01X23406Y115125D01*
G01X23561Y115176D01*
G01X23665Y115280D01*
G01X23715Y115435D01*
G01X23715Y115488D01*
G01X23665Y115643D01*
G01X23561Y115747D01*
G01X23406Y115798D01*
G01X23352Y115798D01*
G01X23197Y115747D01*
G01X23093Y115643D01*
G01X23040Y115488D01*
G01X154559Y109357D02*
G01X154559Y108267D01*
G01X154559Y109357D02*
G01X155026Y109357D01*
G01X155181Y109306D01*
G01X155234Y109253D01*
G01X155285Y109148D01*
G01X155285Y109044D01*
G01X155234Y108940D01*
G01X155181Y108889D01*
G01X155026Y108839D01*
G01X154559Y108839D01*
G01X154922Y108839D02*
G01X155285Y108267D01*
G01X156253Y109202D02*
G01X156199Y109306D01*
G01X156044Y109357D01*
G01X155940Y109357D01*
G01X155785Y109306D01*
G01X155681Y109148D01*
G01X155628Y108889D01*
G01X155628Y108630D01*
G01X155681Y108422D01*
G01X155785Y108318D01*
G01X155940Y108267D01*
G01X155994Y108267D01*
G01X156149Y108318D01*
G01X156253Y108422D01*
G01X156303Y108577D01*
G01X156303Y108630D01*
G01X156253Y108785D01*
G01X156149Y108889D01*
G01X155994Y108940D01*
G01X155940Y108940D01*
G01X155785Y108889D01*
G01X155681Y108785D01*
G01X155628Y108630D01*
G01X137297Y104521D02*
G01X136207Y104521D01*
G01X137297Y104521D02*
G01X137297Y104053D01*
G01X137246Y103898D01*
G01X137193Y103845D01*
G01X137088Y103794D01*
G01X136984Y103794D01*
G01X136880Y103845D01*
G01X136829Y103898D01*
G01X136779Y104053D01*
G01X136779Y104521D01*
G01X136779Y104157D02*
G01X136207Y103794D01*
G01X137297Y102930D02*
G01X136570Y103451D01*
G01X136570Y102671D01*
G01X137297Y102930D02*
G01X136207Y102930D01*
G01X25135Y70612D02*
G01X26225Y70612D01*
G01X25135Y70612D02*
G01X25135Y71079D01*
G01X25186Y71234D01*
G01X25239Y71287D01*
G01X25344Y71338D01*
G01X25448Y71338D01*
G01X25552Y71287D01*
G01X25603Y71234D01*
G01X25654Y71079D01*
G01X25654Y70612D01*
G01X25654Y70975D02*
G01X26225Y71338D01*
G01X25394Y71734D02*
G01X25344Y71734D01*
G01X25239Y71785D01*
G01X25186Y71838D01*
G01X25135Y71942D01*
G01X25135Y72148D01*
G01X25186Y72252D01*
G01X25239Y72306D01*
G01X25344Y72356D01*
G01X25448Y72356D01*
G01X25552Y72306D01*
G01X25707Y72202D01*
G01X26225Y71681D01*
G01X26225Y72410D01*
G01X154432Y114437D02*
G01X154432Y113347D01*
G01X154432Y114437D02*
G01X154899Y114437D01*
G01X155054Y114386D01*
G01X155107Y114333D01*
G01X155158Y114228D01*
G01X155158Y114124D01*
G01X155107Y114020D01*
G01X155054Y113969D01*
G01X154899Y113919D01*
G01X154432Y113919D01*
G01X154795Y113919D02*
G01X155158Y113347D01*
G01X156126Y114437D02*
G01X155605Y114437D01*
G01X155554Y113969D01*
G01X155605Y114020D01*
G01X155762Y114073D01*
G01X155917Y114073D01*
G01X156072Y114020D01*
G01X156176Y113919D01*
G01X156230Y113761D01*
G01X156230Y113657D01*
G01X156176Y113502D01*
G01X156072Y113398D01*
G01X155917Y113347D01*
G01X155762Y113347D01*
G01X155605Y113398D01*
G01X155554Y113449D01*
G01X155501Y113553D01*
G01X45582Y80899D02*
G01X46672Y80899D01*
G01X45582Y80899D02*
G01X45582Y81366D01*
G01X45633Y81521D01*
G01X45686Y81574D01*
G01X45791Y81625D01*
G01X45895Y81625D01*
G01X45999Y81574D01*
G01X46050Y81521D01*
G01X46101Y81366D01*
G01X46101Y80899D01*
G01X46101Y81262D02*
G01X46672Y81625D01*
G01X45791Y81968D02*
G01X45737Y82072D01*
G01X45582Y82229D01*
G01X46672Y82229D01*
G01X132344Y104648D02*
G01X131254Y104648D01*
G01X132344Y104648D02*
G01X132344Y104180D01*
G01X132293Y104025D01*
G01X132240Y103972D01*
G01X132135Y103921D01*
G01X132031Y103921D01*
G01X131927Y103972D01*
G01X131876Y104025D01*
G01X131826Y104180D01*
G01X131826Y104648D01*
G01X131826Y104284D02*
G01X131254Y103921D01*
G01X132344Y103474D02*
G01X132344Y102903D01*
G01X131927Y103212D01*
G01X131927Y103057D01*
G01X131876Y102953D01*
G01X131826Y102903D01*
G01X131668Y102849D01*
G01X131564Y102849D01*
G01X131409Y102903D01*
G01X131305Y103007D01*
G01X131254Y103162D01*
G01X131254Y103317D01*
G01X131305Y103474D01*
G01X131356Y103525D01*
G01X131460Y103578D01*
G01X116113Y117485D02*
G01X115697Y116395D01*
G01X116113Y117485D02*
G01X116527Y116395D01*
G01X115851Y116758D02*
G01X116372Y116758D01*
G01X117650Y117226D02*
G01X117599Y117330D01*
G01X117495Y117434D01*
G01X117391Y117485D01*
G01X117182Y117485D01*
G01X117078Y117434D01*
G01X116974Y117330D01*
G01X116923Y117226D01*
G01X116870Y117068D01*
G01X116870Y116809D01*
G01X116923Y116654D01*
G01X116974Y116550D01*
G01X117078Y116446D01*
G01X117182Y116395D01*
G01X117391Y116395D01*
G01X117495Y116446D01*
G01X117599Y116550D01*
G01X117650Y116654D01*
G01X117993Y117485D02*
G01X117993Y116395D01*
G01X118752Y117485D02*
G01X118336Y116395D01*
G01X118752Y117485D02*
G01X119166Y116395D01*
G01X118491Y116758D02*
G01X119011Y116758D01*
G01X83947Y117485D02*
G01X83947Y116705D01*
G01X83997Y116550D01*
G01X84101Y116446D01*
G01X84259Y116395D01*
G01X84363Y116395D01*
G01X84518Y116446D01*
G01X84622Y116550D01*
G01X84673Y116705D01*
G01X84673Y117485D01*
G01X85745Y117485D02*
G01X85224Y116395D01*
G01X85016Y117485D02*
G01X85745Y117485D01*
G01X12446Y10424D02*
G01X12862Y9334D01*
G01X13276Y10424D02*
G01X12862Y9334D01*
G01X13619Y10424D02*
G01X13619Y9334D01*
G01X14378Y10424D02*
G01X13962Y9334D01*
G01X14378Y10424D02*
G01X14795Y9334D01*
G01X14119Y9697D02*
G01X14638Y9697D01*
G01X15938Y10215D02*
G01X16040Y10269D01*
G01X16197Y10424D01*
G01X16197Y9334D01*
G01X17340Y10424D02*
G01X17340Y9334D01*
G01X17340Y10424D02*
G01X17807Y10424D01*
G01X17962Y10373D01*
G01X18016Y10320D01*
G01X18067Y10215D01*
G01X18067Y10060D01*
G01X18016Y9956D01*
G01X17962Y9906D01*
G01X17807Y9852D01*
G01X17340Y9852D01*
G01X18722Y10424D02*
G01X18618Y10373D01*
G01X18514Y10269D01*
G01X18463Y10165D01*
G01X18409Y10007D01*
G01X18409Y9748D01*
G01X18463Y9593D01*
G01X18514Y9489D01*
G01X18618Y9385D01*
G01X18722Y9334D01*
G01X18930Y9334D01*
G01X19034Y9385D01*
G01X19138Y9489D01*
G01X19189Y9593D01*
G01X19240Y9748D01*
G01X19240Y10007D01*
G01X19189Y10165D01*
G01X19138Y10269D01*
G01X19034Y10373D01*
G01X18930Y10424D01*
G01X18722Y10424D01*
G01X19583Y10424D02*
G01X19583Y9334D01*
G01X19583Y10424D02*
G01X20053Y10424D01*
G01X20208Y10373D01*
G01X20259Y10320D01*
G01X20312Y10215D01*
G01X20312Y10111D01*
G01X20259Y10007D01*
G01X20208Y9956D01*
G01X20053Y9906D01*
G01X19583Y9906D01*
G01X19949Y9906D02*
G01X20312Y9334D01*
G01X21018Y10424D02*
G01X21018Y9334D01*
G01X20655Y10424D02*
G01X21381Y10424D01*
G01X22941Y10424D02*
G01X22524Y9334D01*
G01X22941Y10424D02*
G01X23355Y9334D01*
G01X22682Y9697D02*
G01X23200Y9697D01*
G01X37973Y10297D02*
G01X38389Y9207D01*
G01X38803Y10297D02*
G01X38389Y9207D01*
G01X39146Y10297D02*
G01X39146Y9207D01*
G01X39905Y10297D02*
G01X39489Y9207D01*
G01X39905Y10297D02*
G01X40322Y9207D01*
G01X39646Y9570D02*
G01X40165Y9570D01*
G01X41465Y10088D02*
G01X41567Y10142D01*
G01X41724Y10297D01*
G01X41724Y9207D01*
G01X42867Y10297D02*
G01X42867Y9207D01*
G01X42867Y10297D02*
G01X43334Y10297D01*
G01X43489Y10246D01*
G01X43543Y10193D01*
G01X43594Y10088D01*
G01X43594Y9933D01*
G01X43543Y9829D01*
G01X43489Y9779D01*
G01X43334Y9725D01*
G01X42867Y9725D01*
G01X44249Y10297D02*
G01X44145Y10246D01*
G01X44041Y10142D01*
G01X43990Y10038D01*
G01X43936Y9880D01*
G01X43936Y9621D01*
G01X43990Y9466D01*
G01X44041Y9362D01*
G01X44145Y9258D01*
G01X44249Y9207D01*
G01X44457Y9207D01*
G01X44561Y9258D01*
G01X44665Y9362D01*
G01X44716Y9466D01*
G01X44767Y9621D01*
G01X44767Y9880D01*
G01X44716Y10038D01*
G01X44665Y10142D01*
G01X44561Y10246D01*
G01X44457Y10297D01*
G01X44249Y10297D01*
G01X45110Y10297D02*
G01X45110Y9207D01*
G01X45110Y10297D02*
G01X45580Y10297D01*
G01X45735Y10246D01*
G01X45786Y10193D01*
G01X45839Y10088D01*
G01X45839Y9984D01*
G01X45786Y9880D01*
G01X45735Y9829D01*
G01X45580Y9779D01*
G01X45110Y9779D01*
G01X45476Y9779D02*
G01X45839Y9207D01*
G01X46545Y10297D02*
G01X46545Y9207D01*
G01X46182Y10297D02*
G01X46908Y10297D01*
G01X48051Y10297D02*
G01X48051Y9207D01*
G01X48051Y10297D02*
G01X48519Y10297D01*
G01X48676Y10246D01*
G01X48727Y10193D01*
G01X48780Y10088D01*
G01X48780Y9984D01*
G01X48727Y9880D01*
G01X48676Y9829D01*
G01X48519Y9779D01*
G01X48051Y9779D02*
G01X48519Y9779D01*
G01X48676Y9725D01*
G01X48727Y9674D01*
G01X48780Y9570D01*
G01X48780Y9413D01*
G01X48727Y9309D01*
G01X48676Y9258D01*
G01X48519Y9207D01*
G01X48051Y9207D01*
G01X129032Y10424D02*
G01X129448Y9334D01*
G01X129862Y10424D02*
G01X129448Y9334D01*
G01X130205Y10424D02*
G01X130205Y9334D01*
G01X130964Y10424D02*
G01X130548Y9334D01*
G01X130964Y10424D02*
G01X131381Y9334D01*
G01X130705Y9697D02*
G01X131224Y9697D01*
G01X132575Y10165D02*
G01X132575Y10215D01*
G01X132626Y10320D01*
G01X132679Y10373D01*
G01X132783Y10424D01*
G01X132991Y10424D01*
G01X133096Y10373D01*
G01X133146Y10320D01*
G01X133197Y10215D01*
G01X133197Y10111D01*
G01X133146Y10007D01*
G01X133042Y9852D01*
G01X132524Y9334D01*
G01X133250Y9334D01*
G01X134393Y10424D02*
G01X134393Y9334D01*
G01X134393Y10424D02*
G01X134861Y10424D01*
G01X135016Y10373D01*
G01X135069Y10320D01*
G01X135120Y10215D01*
G01X135120Y10060D01*
G01X135069Y9956D01*
G01X135016Y9906D01*
G01X134861Y9852D01*
G01X134393Y9852D01*
G01X135775Y10424D02*
G01X135671Y10373D01*
G01X135567Y10269D01*
G01X135516Y10165D01*
G01X135463Y10007D01*
G01X135463Y9748D01*
G01X135516Y9593D01*
G01X135567Y9489D01*
G01X135671Y9385D01*
G01X135775Y9334D01*
G01X135983Y9334D01*
G01X136088Y9385D01*
G01X136192Y9489D01*
G01X136243Y9593D01*
G01X136296Y9748D01*
G01X136296Y10007D01*
G01X136243Y10165D01*
G01X136192Y10269D01*
G01X136088Y10373D01*
G01X135983Y10424D01*
G01X135775Y10424D01*
G01X136639Y10424D02*
G01X136639Y9334D01*
G01X136639Y10424D02*
G01X137106Y10424D01*
G01X137261Y10373D01*
G01X137312Y10320D01*
G01X137365Y10215D01*
G01X137365Y10111D01*
G01X137312Y10007D01*
G01X137261Y9956D01*
G01X137106Y9906D01*
G01X136639Y9906D01*
G01X137002Y9906D02*
G01X137365Y9334D01*
G01X138071Y10424D02*
G01X138071Y9334D01*
G01X137708Y10424D02*
G01X138435Y10424D01*
G01X139994Y10424D02*
G01X139578Y9334D01*
G01X139994Y10424D02*
G01X140411Y9334D01*
G01X139735Y9697D02*
G01X140253Y9697D01*
G01X154305Y10424D02*
G01X154721Y9334D01*
G01X155135Y10424D02*
G01X154721Y9334D01*
G01X155478Y10424D02*
G01X155478Y9334D01*
G01X156237Y10424D02*
G01X155821Y9334D01*
G01X156237Y10424D02*
G01X156654Y9334D01*
G01X155978Y9697D02*
G01X156497Y9697D01*
G01X157848Y10165D02*
G01X157848Y10215D01*
G01X157899Y10320D01*
G01X157952Y10373D01*
G01X158056Y10424D01*
G01X158264Y10424D01*
G01X158369Y10373D01*
G01X158419Y10320D01*
G01X158470Y10215D01*
G01X158470Y10111D01*
G01X158419Y10007D01*
G01X158315Y9852D01*
G01X157797Y9334D01*
G01X158523Y9334D01*
G01X159666Y10424D02*
G01X159666Y9334D01*
G01X159666Y10424D02*
G01X160134Y10424D01*
G01X160289Y10373D01*
G01X160342Y10320D01*
G01X160393Y10215D01*
G01X160393Y10060D01*
G01X160342Y9956D01*
G01X160289Y9906D01*
G01X160134Y9852D01*
G01X159666Y9852D01*
G01X161048Y10424D02*
G01X160944Y10373D01*
G01X160840Y10269D01*
G01X160789Y10165D01*
G01X160736Y10007D01*
G01X160736Y9748D01*
G01X160789Y9593D01*
G01X160840Y9489D01*
G01X160944Y9385D01*
G01X161048Y9334D01*
G01X161256Y9334D01*
G01X161361Y9385D01*
G01X161465Y9489D01*
G01X161516Y9593D01*
G01X161569Y9748D01*
G01X161569Y10007D01*
G01X161516Y10165D01*
G01X161465Y10269D01*
G01X161361Y10373D01*
G01X161256Y10424D01*
G01X161048Y10424D01*
G01X161912Y10424D02*
G01X161912Y9334D01*
G01X161912Y10424D02*
G01X162379Y10424D01*
G01X162534Y10373D01*
G01X162585Y10320D01*
G01X162638Y10215D01*
G01X162638Y10111D01*
G01X162585Y10007D01*
G01X162534Y9956D01*
G01X162379Y9906D01*
G01X161912Y9906D01*
G01X162275Y9906D02*
G01X162638Y9334D01*
G01X163344Y10424D02*
G01X163344Y9334D01*
G01X162981Y10424D02*
G01X163708Y10424D01*
G01X164851Y10424D02*
G01X164851Y9334D01*
G01X164851Y10424D02*
G01X165318Y10424D01*
G01X165475Y10373D01*
G01X165526Y10320D01*
G01X165580Y10215D01*
G01X165580Y10111D01*
G01X165526Y10007D01*
G01X165475Y9956D01*
G01X165318Y9906D01*
G01X164851Y9906D02*
G01X165318Y9906D01*
G01X165475Y9852D01*
G01X165526Y9801D01*
G01X165580Y9697D01*
G01X165580Y9540D01*
G01X165526Y9436D01*
G01X165475Y9385D01*
G01X165318Y9334D01*
G01X164851Y9334D01*
G01X38658Y80142D02*
G01X38658Y80192D01*
G01X38712Y80297D01*
G01X38762Y80350D01*
G01X38867Y80401D01*
G01X39075Y80401D01*
G01X39179Y80350D01*
G01X39230Y80297D01*
G01X39283Y80192D01*
G01X39283Y80088D01*
G01X39230Y79984D01*
G01X39128Y79829D01*
G01X38608Y79311D01*
G01X39334Y79311D01*
G01X39730Y80142D02*
G01X39730Y80192D01*
G01X39781Y80297D01*
G01X39834Y80350D01*
G01X39938Y80401D01*
G01X40144Y80401D01*
G01X40248Y80350D01*
G01X40302Y80297D01*
G01X40352Y80192D01*
G01X40352Y80088D01*
G01X40302Y79984D01*
G01X40198Y79829D01*
G01X39677Y79311D01*
G01X40406Y79311D01*
G01X40749Y80401D02*
G01X41163Y79311D01*
G01X41579Y80401D02*
G01X41163Y79311D01*
G01X41922Y80192D02*
G01X42026Y80246D01*
G01X42181Y80401D01*
G01X42181Y79311D01*
G01X42837Y80401D02*
G01X42682Y80350D01*
G01X42578Y80192D01*
G01X42524Y79933D01*
G01X42524Y79778D01*
G01X42578Y79517D01*
G01X42682Y79362D01*
G01X42837Y79311D01*
G01X42941Y79311D01*
G01X43096Y79362D01*
G01X43200Y79517D01*
G01X43253Y79778D01*
G01X43253Y79933D01*
G01X43200Y80192D01*
G01X43096Y80350D01*
G01X42941Y80401D01*
G01X42837Y80401D01*
G01X33147Y80274D02*
G01X33147Y79494D01*
G01X33197Y79339D01*
G01X33301Y79235D01*
G01X33459Y79184D01*
G01X33563Y79184D01*
G01X33718Y79235D01*
G01X33822Y79339D01*
G01X33873Y79494D01*
G01X33873Y80274D01*
G01X34737Y80274D02*
G01X34216Y79547D01*
G01X34996Y79547D01*
G01X34737Y80274D02*
G01X34737Y79184D01*
G01X176928Y94366D02*
G01X176875Y94470D01*
G01X176771Y94574D01*
G01X176669Y94625D01*
G01X176461Y94625D01*
G01X176357Y94574D01*
G01X176253Y94470D01*
G01X176199Y94366D01*
G01X176149Y94208D01*
G01X176149Y93949D01*
G01X176199Y93794D01*
G01X176253Y93690D01*
G01X176357Y93586D01*
G01X176461Y93535D01*
G01X176669Y93535D01*
G01X176771Y93586D01*
G01X176875Y93690D01*
G01X176928Y93794D01*
G01X177271Y94416D02*
G01X177375Y94470D01*
G01X177530Y94625D01*
G01X177530Y93535D01*
G01X140335Y113802D02*
G01X140335Y113022D01*
G01X140385Y112867D01*
G01X140489Y112763D01*
G01X140647Y112712D01*
G01X140751Y112712D01*
G01X140906Y112763D01*
G01X141010Y112867D01*
G01X141061Y113022D01*
G01X141061Y113802D01*
G01X141665Y113802D02*
G01X141508Y113751D01*
G01X141457Y113647D01*
G01X141457Y113543D01*
G01X141508Y113438D01*
G01X141612Y113385D01*
G01X141820Y113334D01*
G01X141975Y113284D01*
G01X142079Y113179D01*
G01X142133Y113075D01*
G01X142133Y112918D01*
G01X142079Y112814D01*
G01X142029Y112763D01*
G01X141871Y112712D01*
G01X141665Y112712D01*
G01X141508Y112763D01*
G01X141457Y112814D01*
G01X141404Y112918D01*
G01X141404Y113075D01*
G01X141457Y113179D01*
G01X141561Y113284D01*
G01X141716Y113334D01*
G01X141925Y113385D01*
G01X142029Y113438D01*
G01X142079Y113543D01*
G01X142079Y113647D01*
G01X142029Y113751D01*
G01X141871Y113802D01*
G01X141665Y113802D01*
G01X69723Y116895D02*
G01X69827Y116949D01*
G01X69982Y117104D01*
G01X69982Y116014D01*
G01X70378Y116273D02*
G01X70324Y116220D01*
G01X70378Y116169D01*
G01X70429Y116220D01*
G01X70378Y116273D01*
G01X71031Y117104D02*
G01X70876Y117053D01*
G01X70825Y116949D01*
G01X70825Y116845D01*
G01X70876Y116740D01*
G01X70980Y116687D01*
G01X71188Y116636D01*
G01X71343Y116586D01*
G01X71447Y116481D01*
G01X71501Y116377D01*
G01X71501Y116220D01*
G01X71447Y116116D01*
G01X71396Y116065D01*
G01X71239Y116014D01*
G01X71031Y116014D01*
G01X70876Y116065D01*
G01X70825Y116116D01*
G01X70772Y116220D01*
G01X70772Y116377D01*
G01X70825Y116481D01*
G01X70929Y116586D01*
G01X71084Y116636D01*
G01X71292Y116687D01*
G01X71396Y116740D01*
G01X71447Y116845D01*
G01X71447Y116949D01*
G01X71396Y117053D01*
G01X71239Y117104D01*
G01X71031Y117104D01*
G01X72362Y117104D02*
G01X71843Y116377D01*
G01X72621Y116377D01*
G01X72362Y117104D02*
G01X72362Y116014D01*
G01X73068Y117104D02*
G01X73639Y117104D01*
G01X73329Y116687D01*
G01X73484Y116687D01*
G01X73588Y116636D01*
G01X73639Y116586D01*
G01X73693Y116428D01*
G01X73693Y116324D01*
G01X73639Y116169D01*
G01X73535Y116065D01*
G01X73380Y116014D01*
G01X73225Y116014D01*
G01X73068Y116065D01*
G01X73017Y116116D01*
G01X72964Y116220D01*
G01X74086Y116845D02*
G01X74086Y116895D01*
G01X74140Y117000D01*
G01X74190Y117053D01*
G01X74295Y117104D01*
G01X74503Y117104D01*
G01X74607Y117053D01*
G01X74658Y117000D01*
G01X74711Y116895D01*
G01X74711Y116791D01*
G01X74658Y116687D01*
G01X74554Y116532D01*
G01X74035Y116014D01*
G01X74762Y116014D01*
G01X75905Y117104D02*
G01X75905Y116014D01*
G01X75905Y117104D02*
G01X76321Y116014D01*
G01X76735Y117104D02*
G01X76321Y116014D01*
G01X76735Y117104D02*
G01X76735Y116014D01*
G01X77078Y117104D02*
G01X77078Y116014D01*
G01X77807Y117104D02*
G01X77807Y116014D01*
G01X77078Y116586D02*
G01X77807Y116586D01*
G01X78877Y117104D02*
G01X78150Y116014D01*
G01X78150Y117104D02*
G01X78877Y117104D01*
G01X78150Y116014D02*
G01X78877Y116014D01*
G01X58674Y117104D02*
G01X59400Y116014D01*
G01X59400Y117104D02*
G01X58674Y116014D01*
G01X59796Y116845D02*
G01X59796Y116895D01*
G01X59847Y117000D01*
G01X59900Y117053D01*
G01X60004Y117104D01*
G01X60210Y117104D01*
G01X60314Y117053D01*
G01X60368Y117000D01*
G01X60418Y116895D01*
G01X60418Y116791D01*
G01X60368Y116687D01*
G01X60264Y116532D01*
G01X59743Y116014D01*
G01X60472Y116014D01*
G01X48895Y116895D02*
G01X48999Y116949D01*
G01X49154Y117104D01*
G01X49154Y116014D01*
G01X50297Y117104D02*
G01X50297Y116014D01*
G01X50297Y117104D02*
G01X50713Y116014D01*
G01X51130Y117104D02*
G01X50713Y116014D01*
G01X51130Y117104D02*
G01X51130Y116014D01*
G01X51473Y117104D02*
G01X51473Y116014D01*
G01X52199Y117104D02*
G01X52199Y116014D01*
G01X51473Y116586D02*
G01X52199Y116586D01*
G01X53268Y117104D02*
G01X52542Y116014D01*
G01X52542Y117104D02*
G01X53268Y117104D01*
G01X52542Y116014D02*
G01X53268Y116014D01*
G01X33147Y117231D02*
G01X33873Y116141D01*
G01X33873Y117231D02*
G01X33147Y116141D01*
G01X34216Y117022D02*
G01X34320Y117076D01*
G01X34477Y117231D01*
G01X34477Y116141D01*
G01X146431Y98943D02*
G01X146431Y97853D01*
G01X146431Y98943D02*
G01X146898Y98943D01*
G01X147053Y98892D01*
G01X147106Y98839D01*
G01X147157Y98734D01*
G01X147157Y98630D01*
G01X147106Y98526D01*
G01X147053Y98475D01*
G01X146898Y98425D01*
G01X146431Y98425D01*
G01X146794Y98425D02*
G01X147157Y97853D01*
G01X147500Y98943D02*
G01X148229Y97853D01*
G01X148229Y98943D02*
G01X147500Y97853D01*
G01X141714Y98943D02*
G01X141714Y97853D01*
G01X141351Y98943D02*
G01X142077Y98943D01*
G01X142420Y98943D02*
G01X143149Y97853D01*
G01X143149Y98943D02*
G01X142420Y97853D01*
G01X144162Y120528D02*
G01X144109Y120632D01*
G01X144005Y120736D01*
G01X143903Y120787D01*
G01X143695Y120787D01*
G01X143591Y120736D01*
G01X143487Y120632D01*
G01X143433Y120528D01*
G01X143383Y120370D01*
G01X143383Y120111D01*
G01X143433Y119956D01*
G01X143487Y119852D01*
G01X143591Y119748D01*
G01X143695Y119697D01*
G01X143903Y119697D01*
G01X144005Y119748D01*
G01X144109Y119852D01*
G01X144162Y119956D01*
G01X145181Y120423D02*
G01X145127Y120269D01*
G01X145023Y120164D01*
G01X144868Y120111D01*
G01X144818Y120111D01*
G01X144660Y120164D01*
G01X144556Y120269D01*
G01X144505Y120423D01*
G01X144505Y120474D01*
G01X144556Y120632D01*
G01X144660Y120736D01*
G01X144818Y120787D01*
G01X144868Y120787D01*
G01X145023Y120736D01*
G01X145127Y120632D01*
G01X145181Y120423D01*
G01X145181Y120164D01*
G01X145127Y119903D01*
G01X145023Y119748D01*
G01X144868Y119697D01*
G01X144764Y119697D01*
G01X144609Y119748D01*
G01X144556Y119852D01*
G01X61866Y25659D02*
G01X61813Y25763D01*
G01X61709Y25867D01*
G01X61607Y25918D01*
G01X61399Y25918D01*
G01X61295Y25867D01*
G01X61191Y25763D01*
G01X61137Y25659D01*
G01X61087Y25501D01*
G01X61087Y25242D01*
G01X61137Y25087D01*
G01X61191Y24983D01*
G01X61295Y24879D01*
G01X61399Y24828D01*
G01X61607Y24828D01*
G01X61709Y24879D01*
G01X61813Y24983D01*
G01X61866Y25087D01*
G01X62209Y25709D02*
G01X62313Y25763D01*
G01X62468Y25918D01*
G01X62468Y24828D01*
G01X63124Y25918D02*
G01X62966Y25867D01*
G01X62865Y25709D01*
G01X62811Y25450D01*
G01X62811Y25295D01*
G01X62865Y25034D01*
G01X62966Y24879D01*
G01X63124Y24828D01*
G01X63228Y24828D01*
G01X63383Y24879D01*
G01X63487Y25034D01*
G01X63538Y25295D01*
G01X63538Y25450D01*
G01X63487Y25709D01*
G01X63383Y25867D01*
G01X63228Y25918D01*
G01X63124Y25918D01*
G01X122953Y107066D02*
G01X122900Y107170D01*
G01X122796Y107274D01*
G01X122694Y107325D01*
G01X122486Y107325D01*
G01X122382Y107274D01*
G01X122278Y107170D01*
G01X122224Y107066D01*
G01X122174Y106908D01*
G01X122174Y106649D01*
G01X122224Y106494D01*
G01X122278Y106390D01*
G01X122382Y106286D01*
G01X122486Y106235D01*
G01X122694Y106235D01*
G01X122796Y106286D01*
G01X122900Y106390D01*
G01X122953Y106494D01*
G01X123555Y107325D02*
G01X123400Y107274D01*
G01X123347Y107170D01*
G01X123347Y107066D01*
G01X123400Y106961D01*
G01X123504Y106908D01*
G01X123710Y106857D01*
G01X123868Y106807D01*
G01X123972Y106702D01*
G01X124023Y106598D01*
G01X124023Y106441D01*
G01X123972Y106337D01*
G01X123918Y106286D01*
G01X123764Y106235D01*
G01X123555Y106235D01*
G01X123400Y106286D01*
G01X123347Y106337D01*
G01X123296Y106441D01*
G01X123296Y106598D01*
G01X123347Y106702D01*
G01X123451Y106807D01*
G01X123609Y106857D01*
G01X123814Y106908D01*
G01X123918Y106961D01*
G01X123972Y107066D01*
G01X123972Y107170D01*
G01X123918Y107274D01*
G01X123764Y107325D01*
G01X123555Y107325D01*
G01X158386Y94493D02*
G01X158333Y94597D01*
G01X158229Y94701D01*
G01X158127Y94752D01*
G01X157919Y94752D01*
G01X157815Y94701D01*
G01X157711Y94597D01*
G01X157657Y94493D01*
G01X157607Y94335D01*
G01X157607Y94076D01*
G01X157657Y93921D01*
G01X157711Y93817D01*
G01X157815Y93713D01*
G01X157919Y93662D01*
G01X158127Y93662D01*
G01X158229Y93713D01*
G01X158333Y93817D01*
G01X158386Y93921D01*
G01X158729Y94543D02*
G01X158833Y94597D01*
G01X158988Y94752D01*
G01X158988Y93662D01*
G01X159435Y94752D02*
G01X160007Y94752D01*
G01X159694Y94335D01*
G01X159852Y94335D01*
G01X159956Y94284D01*
G01X160007Y94234D01*
G01X160058Y94076D01*
G01X160058Y93972D01*
G01X160007Y93817D01*
G01X159903Y93713D01*
G01X159748Y93662D01*
G01X159590Y93662D01*
G01X159435Y93713D01*
G01X159385Y93764D01*
G01X159331Y93868D01*
G01X153179Y94493D02*
G01X153126Y94597D01*
G01X153022Y94701D01*
G01X152920Y94752D01*
G01X152712Y94752D01*
G01X152608Y94701D01*
G01X152504Y94597D01*
G01X152450Y94493D01*
G01X152400Y94335D01*
G01X152400Y94076D01*
G01X152450Y93921D01*
G01X152504Y93817D01*
G01X152608Y93713D01*
G01X152712Y93662D01*
G01X152920Y93662D01*
G01X153022Y93713D01*
G01X153126Y93817D01*
G01X153179Y93921D01*
G01X153522Y94543D02*
G01X153626Y94597D01*
G01X153781Y94752D01*
G01X153781Y93662D01*
G01X154178Y94493D02*
G01X154178Y94543D01*
G01X154228Y94648D01*
G01X154279Y94701D01*
G01X154383Y94752D01*
G01X154592Y94752D01*
G01X154696Y94701D01*
G01X154749Y94648D01*
G01X154800Y94543D01*
G01X154800Y94439D01*
G01X154749Y94335D01*
G01X154645Y94180D01*
G01X154124Y93662D01*
G01X154851Y93662D01*
G01X19702Y107828D02*
G01X19649Y107932D01*
G01X19545Y108036D01*
G01X19443Y108087D01*
G01X19235Y108087D01*
G01X19131Y108036D01*
G01X19027Y107932D01*
G01X18973Y107828D01*
G01X18923Y107670D01*
G01X18923Y107411D01*
G01X18973Y107256D01*
G01X19027Y107152D01*
G01X19131Y107048D01*
G01X19235Y106997D01*
G01X19443Y106997D01*
G01X19545Y107048D01*
G01X19649Y107152D01*
G01X19702Y107256D01*
G01X20772Y108087D02*
G01X20253Y106997D01*
G01X20045Y108087D02*
G01X20772Y108087D01*
G01X14622Y82555D02*
G01X14569Y82659D01*
G01X14465Y82763D01*
G01X14363Y82814D01*
G01X14155Y82814D01*
G01X14051Y82763D01*
G01X13947Y82659D01*
G01X13893Y82555D01*
G01X13843Y82397D01*
G01X13843Y82138D01*
G01X13893Y81983D01*
G01X13947Y81879D01*
G01X14051Y81775D01*
G01X14155Y81724D01*
G01X14363Y81724D01*
G01X14465Y81775D01*
G01X14569Y81879D01*
G01X14622Y81983D01*
G01X15587Y82659D02*
G01X15537Y82763D01*
G01X15379Y82814D01*
G01X15278Y82814D01*
G01X15120Y82763D01*
G01X15016Y82605D01*
G01X14965Y82346D01*
G01X14965Y82087D01*
G01X15016Y81879D01*
G01X15120Y81775D01*
G01X15278Y81724D01*
G01X15328Y81724D01*
G01X15483Y81775D01*
G01X15587Y81879D01*
G01X15641Y82034D01*
G01X15641Y82087D01*
G01X15587Y82242D01*
G01X15483Y82346D01*
G01X15328Y82397D01*
G01X15278Y82397D01*
G01X15120Y82346D01*
G01X15016Y82242D01*
G01X14965Y82087D01*
G01X34815Y87508D02*
G01X34762Y87612D01*
G01X34658Y87716D01*
G01X34556Y87767D01*
G01X34348Y87767D01*
G01X34244Y87716D01*
G01X34140Y87612D01*
G01X34086Y87508D01*
G01X34036Y87350D01*
G01X34036Y87091D01*
G01X34086Y86936D01*
G01X34140Y86832D01*
G01X34244Y86728D01*
G01X34348Y86677D01*
G01X34556Y86677D01*
G01X34658Y86728D01*
G01X34762Y86832D01*
G01X34815Y86936D01*
G01X35780Y87767D02*
G01X35262Y87767D01*
G01X35209Y87299D01*
G01X35262Y87350D01*
G01X35417Y87403D01*
G01X35572Y87403D01*
G01X35730Y87350D01*
G01X35834Y87249D01*
G01X35885Y87091D01*
G01X35885Y86987D01*
G01X35834Y86832D01*
G01X35730Y86728D01*
G01X35572Y86677D01*
G01X35417Y86677D01*
G01X35262Y86728D01*
G01X35209Y86779D01*
G01X35158Y86883D01*
G01X133875Y87508D02*
G01X133822Y87612D01*
G01X133718Y87716D01*
G01X133616Y87767D01*
G01X133408Y87767D01*
G01X133304Y87716D01*
G01X133200Y87612D01*
G01X133146Y87508D01*
G01X133096Y87350D01*
G01X133096Y87091D01*
G01X133146Y86936D01*
G01X133200Y86832D01*
G01X133304Y86728D01*
G01X133408Y86677D01*
G01X133616Y86677D01*
G01X133718Y86728D01*
G01X133822Y86832D01*
G01X133875Y86936D01*
G01X134736Y87767D02*
G01X134218Y87040D01*
G01X134998Y87040D01*
G01X134736Y87767D02*
G01X134736Y86677D01*
G01X164482Y87762D02*
G01X164429Y87866D01*
G01X164325Y87970D01*
G01X164223Y88021D01*
G01X164015Y88021D01*
G01X163911Y87970D01*
G01X163807Y87866D01*
G01X163753Y87762D01*
G01X163703Y87604D01*
G01X163703Y87345D01*
G01X163753Y87190D01*
G01X163807Y87086D01*
G01X163911Y86982D01*
G01X164015Y86931D01*
G01X164223Y86931D01*
G01X164325Y86982D01*
G01X164429Y87086D01*
G01X164482Y87190D01*
G01X164929Y88021D02*
G01X165501Y88021D01*
G01X165188Y87604D01*
G01X165343Y87604D01*
G01X165447Y87553D01*
G01X165501Y87503D01*
G01X165552Y87345D01*
G01X165552Y87241D01*
G01X165501Y87086D01*
G01X165397Y86982D01*
G01X165239Y86931D01*
G01X165084Y86931D01*
G01X164929Y86982D01*
G01X164876Y87033D01*
G01X164825Y87137D01*
G01X60215Y97795D02*
G01X60162Y97899D01*
G01X60058Y98003D01*
G01X59956Y98054D01*
G01X59748Y98054D01*
G01X59644Y98003D01*
G01X59540Y97899D01*
G01X59486Y97795D01*
G01X59436Y97637D01*
G01X59436Y97378D01*
G01X59486Y97223D01*
G01X59540Y97119D01*
G01X59644Y97015D01*
G01X59748Y96964D01*
G01X59956Y96964D01*
G01X60058Y97015D01*
G01X60162Y97119D01*
G01X60215Y97223D01*
G01X60609Y97795D02*
G01X60609Y97845D01*
G01X60662Y97950D01*
G01X60713Y98003D01*
G01X60817Y98054D01*
G01X61026Y98054D01*
G01X61130Y98003D01*
G01X61180Y97950D01*
G01X61234Y97845D01*
G01X61234Y97741D01*
G01X61180Y97637D01*
G01X61076Y97482D01*
G01X60558Y96964D01*
G01X61285Y96964D01*
G01X117619Y25786D02*
G01X117566Y25890D01*
G01X117462Y25994D01*
G01X117360Y26045D01*
G01X117152Y26045D01*
G01X117048Y25994D01*
G01X116944Y25890D01*
G01X116890Y25786D01*
G01X116840Y25628D01*
G01X116840Y25369D01*
G01X116890Y25214D01*
G01X116944Y25110D01*
G01X117048Y25006D01*
G01X117152Y24955D01*
G01X117360Y24955D01*
G01X117462Y25006D01*
G01X117566Y25110D01*
G01X117619Y25214D01*
G01X117962Y25836D02*
G01X118066Y25890D01*
G01X118221Y26045D01*
G01X118221Y24955D01*
G01X118564Y25836D02*
G01X118668Y25890D01*
G01X118823Y26045D01*
G01X118823Y24955D01*
G01X84455Y1661D02*
G01X84455Y571D01*
G01X84455Y1661D02*
G01X85130Y1661D01*
G01X84455Y1143D02*
G01X84871Y1143D01*
G01X84455Y571D02*
G01X85130Y571D01*
G01X85473Y1297D02*
G01X86045Y571D01*
G01X86045Y1297D02*
G01X85473Y571D01*
G01X86387Y1297D02*
G01X86387Y205D01*
G01X86387Y1143D02*
G01X86492Y1244D01*
G01X86596Y1297D01*
G01X86751Y1297D01*
G01X86855Y1244D01*
G01X86959Y1143D01*
G01X87010Y985D01*
G01X87010Y881D01*
G01X86959Y726D01*
G01X86855Y622D01*
G01X86751Y571D01*
G01X86596Y571D01*
G01X86492Y622D01*
G01X86387Y726D01*
G01X87978Y1297D02*
G01X87978Y571D01*
G01X87978Y1143D02*
G01X87873Y1244D01*
G01X87769Y1297D01*
G01X87614Y1297D01*
G01X87510Y1244D01*
G01X87406Y1143D01*
G01X87353Y985D01*
G01X87353Y881D01*
G01X87406Y726D01*
G01X87510Y622D01*
G01X87614Y571D01*
G01X87769Y571D01*
G01X87873Y622D01*
G01X87978Y726D01*
G01X88320Y1297D02*
G01X88320Y571D01*
G01X88320Y1089D02*
G01X88475Y1244D01*
G01X88579Y1297D01*
G01X88734Y1297D01*
G01X88839Y1244D01*
G01X88892Y1089D01*
G01X88892Y571D01*
G01X89806Y1143D02*
G01X89753Y1244D01*
G01X89598Y1297D01*
G01X89443Y1297D01*
G01X89286Y1244D01*
G01X89235Y1143D01*
G01X89286Y1038D01*
G01X89390Y985D01*
G01X89649Y934D01*
G01X89753Y881D01*
G01X89806Y777D01*
G01X89806Y726D01*
G01X89753Y622D01*
G01X89598Y571D01*
G01X89443Y571D01*
G01X89286Y622D01*
G01X89235Y726D01*
G01X90149Y1661D02*
G01X90200Y1610D01*
G01X90253Y1661D01*
G01X90200Y1714D01*
G01X90149Y1661D01*
G01X90200Y1297D02*
G01X90200Y571D01*
G01X90855Y1297D02*
G01X90751Y1244D01*
G01X90647Y1143D01*
G01X90596Y985D01*
G01X90596Y881D01*
G01X90647Y726D01*
G01X90751Y622D01*
G01X90855Y571D01*
G01X91010Y571D01*
G01X91114Y622D01*
G01X91219Y726D01*
G01X91272Y881D01*
G01X91272Y985D01*
G01X91219Y1143D01*
G01X91114Y1244D01*
G01X91010Y1297D01*
G01X90855Y1297D01*
G01X91615Y1297D02*
G01X91615Y571D01*
G01X91615Y1089D02*
G01X91770Y1244D01*
G01X91874Y1297D01*
G01X92029Y1297D01*
G01X92133Y1244D01*
G01X92186Y1089D01*
G01X92186Y571D01*
G01X93329Y1661D02*
G01X93329Y571D01*
G01X94056Y1661D02*
G01X94056Y571D01*
G01X93329Y1143D02*
G01X94056Y1143D01*
G01X94399Y985D02*
G01X95021Y985D01*
G01X95021Y1089D01*
G01X94970Y1193D01*
G01X94919Y1244D01*
G01X94815Y1297D01*
G01X94658Y1297D01*
G01X94554Y1244D01*
G01X94449Y1143D01*
G01X94399Y985D01*
G01X94399Y881D01*
G01X94449Y726D01*
G01X94554Y622D01*
G01X94658Y571D01*
G01X94815Y571D01*
G01X94919Y622D01*
G01X95021Y726D01*
G01X95989Y1297D02*
G01X95989Y571D01*
G01X95989Y1143D02*
G01X95885Y1244D01*
G01X95780Y1297D01*
G01X95625Y1297D01*
G01X95521Y1244D01*
G01X95417Y1143D01*
G01X95364Y985D01*
G01X95364Y881D01*
G01X95417Y726D01*
G01X95521Y622D01*
G01X95625Y571D01*
G01X95780Y571D01*
G01X95885Y622D01*
G01X95989Y726D01*
G01X96954Y1661D02*
G01X96954Y571D01*
G01X96954Y1143D02*
G01X96850Y1244D01*
G01X96748Y1297D01*
G01X96591Y1297D01*
G01X96487Y1244D01*
G01X96382Y1143D01*
G01X96332Y985D01*
G01X96332Y881D01*
G01X96382Y726D01*
G01X96487Y622D01*
G01X96591Y571D01*
G01X96748Y571D01*
G01X96850Y622D01*
G01X96954Y726D01*
G01X97297Y985D02*
G01X97922Y985D01*
G01X97922Y1089D01*
G01X97868Y1193D01*
G01X97817Y1244D01*
G01X97713Y1297D01*
G01X97558Y1297D01*
G01X97454Y1244D01*
G01X97350Y1143D01*
G01X97297Y985D01*
G01X97297Y881D01*
G01X97350Y726D01*
G01X97454Y622D01*
G01X97558Y571D01*
G01X97713Y571D01*
G01X97817Y622D01*
G01X97922Y726D01*
G01X98265Y1297D02*
G01X98265Y571D01*
G01X98265Y985D02*
G01X98315Y1143D01*
G01X98419Y1244D01*
G01X98524Y1297D01*
G01X98679Y1297D01*
G01X141719Y80246D02*
G01X141668Y80350D01*
G01X141513Y80401D01*
G01X141409Y80401D01*
G01X141251Y80350D01*
G01X141147Y80192D01*
G01X141097Y79933D01*
G01X141097Y79674D01*
G01X141147Y79466D01*
G01X141251Y79362D01*
G01X141409Y79311D01*
G01X141460Y79311D01*
G01X141617Y79362D01*
G01X141719Y79466D01*
G01X141772Y79621D01*
G01X141772Y79674D01*
G01X141719Y79829D01*
G01X141617Y79933D01*
G01X141460Y79984D01*
G01X141409Y79984D01*
G01X141251Y79933D01*
G01X141147Y79829D01*
G01X141097Y79674D01*
G01X142166Y80142D02*
G01X142166Y80192D01*
G01X142219Y80297D01*
G01X142270Y80350D01*
G01X142374Y80401D01*
G01X142582Y80401D01*
G01X142687Y80350D01*
G01X142737Y80297D01*
G01X142791Y80192D01*
G01X142791Y80088D01*
G01X142737Y79984D01*
G01X142633Y79829D01*
G01X142115Y79311D01*
G01X142841Y79311D01*
G01X143238Y80142D02*
G01X143238Y80192D01*
G01X143289Y80297D01*
G01X143342Y80350D01*
G01X143446Y80401D01*
G01X143652Y80401D01*
G01X143756Y80350D01*
G01X143809Y80297D01*
G01X143860Y80192D01*
G01X143860Y80088D01*
G01X143809Y79984D01*
G01X143705Y79829D01*
G01X143184Y79311D01*
G01X143913Y79311D01*
G01X144879Y80401D02*
G01X144360Y80401D01*
G01X144307Y79933D01*
G01X144360Y79984D01*
G01X144515Y80037D01*
G01X144670Y80037D01*
G01X144828Y79984D01*
G01X144932Y79883D01*
G01X144983Y79725D01*
G01X144983Y79621D01*
G01X144932Y79466D01*
G01X144828Y79362D01*
G01X144670Y79311D01*
G01X144515Y79311D01*
G01X144360Y79362D01*
G01X144307Y79413D01*
G01X144256Y79517D01*
G01X145948Y80246D02*
G01X145897Y80350D01*
G01X145742Y80401D01*
G01X145638Y80401D01*
G01X145481Y80350D01*
G01X145376Y80192D01*
G01X145326Y79933D01*
G01X145326Y79674D01*
G01X145376Y79466D01*
G01X145481Y79362D01*
G01X145638Y79311D01*
G01X145689Y79311D01*
G01X145846Y79362D01*
G01X145948Y79466D01*
G01X146001Y79621D01*
G01X146001Y79674D01*
G01X145948Y79829D01*
G01X145846Y79933D01*
G01X145689Y79984D01*
G01X145638Y79984D01*
G01X145481Y79933D01*
G01X145376Y79829D01*
G01X145326Y79674D01*
G01X128143Y80274D02*
G01X128143Y79494D01*
G01X128193Y79339D01*
G01X128297Y79235D01*
G01X128455Y79184D01*
G01X128559Y79184D01*
G01X128714Y79235D01*
G01X128818Y79339D01*
G01X128869Y79494D01*
G01X128869Y80274D01*
G01X129316Y80274D02*
G01X129887Y80274D01*
G01X129578Y79857D01*
G01X129733Y79857D01*
G01X129837Y79806D01*
G01X129887Y79756D01*
G01X129941Y79598D01*
G01X129941Y79494D01*
G01X129887Y79339D01*
G01X129783Y79235D01*
G01X129628Y79184D01*
G01X129473Y79184D01*
G01X129316Y79235D01*
G01X129265Y79286D01*
G01X129212Y79390D01*
G01X17871Y74178D02*
G01X17353Y73088D01*
G01X17145Y74178D02*
G01X17871Y74178D01*
G01X18735Y74178D02*
G01X18214Y73451D01*
G01X18994Y73451D01*
G01X18735Y74178D02*
G01X18735Y73088D01*
G01X19337Y74178D02*
G01X19337Y73088D01*
G01X20066Y74178D02*
G01X20066Y73088D01*
G01X19337Y73660D02*
G01X20066Y73660D01*
G01X21186Y73919D02*
G01X21135Y74023D01*
G01X21031Y74127D01*
G01X20927Y74178D01*
G01X20718Y74178D01*
G01X20614Y74127D01*
G01X20510Y74023D01*
G01X20459Y73919D01*
G01X20408Y73761D01*
G01X20408Y73502D01*
G01X20459Y73347D01*
G01X20510Y73243D01*
G01X20614Y73139D01*
G01X20718Y73088D01*
G01X20927Y73088D01*
G01X21031Y73139D01*
G01X21135Y73243D01*
G01X21186Y73347D01*
G01X21582Y73919D02*
G01X21582Y73969D01*
G01X21633Y74074D01*
G01X21686Y74127D01*
G01X21790Y74178D01*
G01X21996Y74178D01*
G01X22100Y74127D01*
G01X22153Y74074D01*
G01X22204Y73969D01*
G01X22204Y73865D01*
G01X22153Y73761D01*
G01X22049Y73606D01*
G01X21529Y73088D01*
G01X22258Y73088D01*
G01X22600Y73969D02*
G01X22705Y74023D01*
G01X22860Y74178D01*
G01X22860Y73088D01*
G01X12573Y74051D02*
G01X12573Y73271D01*
G01X12623Y73116D01*
G01X12727Y73012D01*
G01X12885Y72961D01*
G01X12989Y72961D01*
G01X13144Y73012D01*
G01X13248Y73116D01*
G01X13299Y73271D01*
G01X13299Y74051D01*
G01X14267Y74051D02*
G01X13746Y74051D01*
G01X13695Y73583D01*
G01X13746Y73634D01*
G01X13903Y73687D01*
G01X14058Y73687D01*
G01X14213Y73634D01*
G01X14317Y73533D01*
G01X14371Y73375D01*
G01X14371Y73271D01*
G01X14317Y73116D01*
G01X14213Y73012D01*
G01X14058Y72961D01*
G01X13903Y72961D01*
G01X13746Y73012D01*
G01X13695Y73063D01*
G01X13642Y73167D01*
G01X44594Y97160D02*
G01X44541Y97264D01*
G01X44437Y97368D01*
G01X44335Y97419D01*
G01X44127Y97419D01*
G01X44023Y97368D01*
G01X43919Y97264D01*
G01X43865Y97160D01*
G01X43814Y97002D01*
G01X43814Y96743D01*
G01X43865Y96588D01*
G01X43919Y96484D01*
G01X44023Y96380D01*
G01X44127Y96329D01*
G01X44335Y96329D01*
G01X44437Y96380D01*
G01X44541Y96484D01*
G01X44594Y96588D01*
G01X44937Y97419D02*
G01X44937Y96329D01*
G01X45539Y97055D02*
G01X45435Y97002D01*
G01X45331Y96901D01*
G01X45280Y96743D01*
G01X45280Y96639D01*
G01X45331Y96484D01*
G01X45435Y96380D01*
G01X45539Y96329D01*
G01X45694Y96329D01*
G01X45798Y96380D01*
G01X45902Y96484D01*
G01X45956Y96639D01*
G01X45956Y96743D01*
G01X45902Y96901D01*
G01X45798Y97002D01*
G01X45694Y97055D01*
G01X45539Y97055D01*
G01X46921Y96901D02*
G01X46817Y97002D01*
G01X46713Y97055D01*
G01X46558Y97055D01*
G01X46454Y97002D01*
G01X46349Y96901D01*
G01X46299Y96743D01*
G01X46299Y96639D01*
G01X46349Y96484D01*
G01X46454Y96380D01*
G01X46558Y96329D01*
G01X46713Y96329D01*
G01X46817Y96380D01*
G01X46921Y96484D01*
G01X47264Y97419D02*
G01X47264Y96329D01*
G01X47784Y97055D02*
G01X47264Y96535D01*
G01X47472Y96743D02*
G01X47835Y96329D01*
G01X170802Y30843D02*
G01X170751Y30947D01*
G01X170596Y30998D01*
G01X170492Y30998D01*
G01X170334Y30947D01*
G01X170230Y30789D01*
G01X170180Y30530D01*
G01X170180Y30271D01*
G01X170230Y30063D01*
G01X170334Y29959D01*
G01X170492Y29908D01*
G01X170543Y29908D01*
G01X170700Y29959D01*
G01X170802Y30063D01*
G01X170855Y30218D01*
G01X170855Y30271D01*
G01X170802Y30426D01*
G01X170700Y30530D01*
G01X170543Y30581D01*
G01X170492Y30581D01*
G01X170334Y30530D01*
G01X170230Y30426D01*
G01X170180Y30271D01*
G01X171820Y30998D02*
G01X171302Y30998D01*
G01X171249Y30530D01*
G01X171302Y30581D01*
G01X171457Y30634D01*
G01X171615Y30634D01*
G01X171770Y30581D01*
G01X171874Y30480D01*
G01X171924Y30322D01*
G01X171924Y30218D01*
G01X171874Y30063D01*
G01X171770Y29959D01*
G01X171615Y29908D01*
G01X171457Y29908D01*
G01X171302Y29959D01*
G01X171249Y30010D01*
G01X171198Y30114D01*
G01X173047Y30739D02*
G01X172996Y30843D01*
G01X172892Y30947D01*
G01X172788Y30998D01*
G01X172580Y30998D01*
G01X172476Y30947D01*
G01X172372Y30843D01*
G01X172321Y30739D01*
G01X172267Y30581D01*
G01X172267Y30322D01*
G01X172321Y30167D01*
G01X172372Y30063D01*
G01X172476Y29959D01*
G01X172580Y29908D01*
G01X172788Y29908D01*
G01X172892Y29959D01*
G01X172996Y30063D01*
G01X173047Y30167D01*
G01X173443Y30739D02*
G01X173443Y30789D01*
G01X173494Y30894D01*
G01X173545Y30947D01*
G01X173649Y30998D01*
G01X173857Y30998D01*
G01X173962Y30947D01*
G01X174015Y30894D01*
G01X174066Y30789D01*
G01X174066Y30685D01*
G01X174015Y30581D01*
G01X173911Y30426D01*
G01X173390Y29908D01*
G01X174117Y29908D01*
G01X174513Y30739D02*
G01X174513Y30789D01*
G01X174564Y30894D01*
G01X174617Y30947D01*
G01X174721Y30998D01*
G01X174929Y30998D01*
G01X175031Y30947D01*
G01X175084Y30894D01*
G01X175135Y30789D01*
G01X175135Y30685D01*
G01X175084Y30581D01*
G01X174980Y30426D01*
G01X174459Y29908D01*
G01X175188Y29908D01*
G01X124714Y31125D02*
G01X124714Y30345D01*
G01X124764Y30190D01*
G01X124868Y30086D01*
G01X125026Y30035D01*
G01X125130Y30035D01*
G01X125285Y30086D01*
G01X125389Y30190D01*
G01X125440Y30345D01*
G01X125440Y31125D01*
G01X125783Y30916D02*
G01X125887Y30970D01*
G01X126044Y31125D01*
G01X126044Y30035D01*
G01X126697Y31125D02*
G01X126542Y31074D01*
G01X126438Y30916D01*
G01X126387Y30657D01*
G01X126387Y30502D01*
G01X126438Y30241D01*
G01X126542Y30086D01*
G01X126697Y30035D01*
G01X126801Y30035D01*
G01X126959Y30086D01*
G01X127063Y30241D01*
G01X127114Y30502D01*
G01X127114Y30657D01*
G01X127063Y30916D01*
G01X126959Y31074D01*
G01X126801Y31125D01*
G01X126697Y31125D01*
G01X54089Y30843D02*
G01X54038Y30947D01*
G01X53883Y30998D01*
G01X53779Y30998D01*
G01X53621Y30947D01*
G01X53517Y30789D01*
G01X53467Y30530D01*
G01X53467Y30271D01*
G01X53517Y30063D01*
G01X53621Y29959D01*
G01X53779Y29908D01*
G01X53830Y29908D01*
G01X53987Y29959D01*
G01X54089Y30063D01*
G01X54142Y30218D01*
G01X54142Y30271D01*
G01X54089Y30426D01*
G01X53987Y30530D01*
G01X53830Y30581D01*
G01X53779Y30581D01*
G01X53621Y30530D01*
G01X53517Y30426D01*
G01X53467Y30271D01*
G01X55107Y30998D02*
G01X54589Y30998D01*
G01X54536Y30530D01*
G01X54589Y30581D01*
G01X54744Y30634D01*
G01X54902Y30634D01*
G01X55057Y30581D01*
G01X55161Y30480D01*
G01X55211Y30322D01*
G01X55211Y30218D01*
G01X55161Y30063D01*
G01X55057Y29959D01*
G01X54902Y29908D01*
G01X54744Y29908D01*
G01X54589Y29959D01*
G01X54536Y30010D01*
G01X54485Y30114D01*
G01X56334Y30739D02*
G01X56283Y30843D01*
G01X56179Y30947D01*
G01X56075Y30998D01*
G01X55867Y30998D01*
G01X55763Y30947D01*
G01X55659Y30843D01*
G01X55608Y30739D01*
G01X55554Y30581D01*
G01X55554Y30322D01*
G01X55608Y30167D01*
G01X55659Y30063D01*
G01X55763Y29959D01*
G01X55867Y29908D01*
G01X56075Y29908D01*
G01X56179Y29959D01*
G01X56283Y30063D01*
G01X56334Y30167D01*
G01X56730Y30739D02*
G01X56730Y30789D01*
G01X56781Y30894D01*
G01X56832Y30947D01*
G01X56936Y30998D01*
G01X57144Y30998D01*
G01X57249Y30947D01*
G01X57302Y30894D01*
G01X57353Y30789D01*
G01X57353Y30685D01*
G01X57302Y30581D01*
G01X57198Y30426D01*
G01X56677Y29908D01*
G01X57404Y29908D01*
G01X57800Y30739D02*
G01X57800Y30789D01*
G01X57851Y30894D01*
G01X57904Y30947D01*
G01X58008Y30998D01*
G01X58216Y30998D01*
G01X58318Y30947D01*
G01X58371Y30894D01*
G01X58422Y30789D01*
G01X58422Y30685D01*
G01X58371Y30581D01*
G01X58267Y30426D01*
G01X57746Y29908D01*
G01X58475Y29908D01*
G01X7874Y31125D02*
G01X7874Y30345D01*
G01X7924Y30190D01*
G01X8028Y30086D01*
G01X8186Y30035D01*
G01X8290Y30035D01*
G01X8445Y30086D01*
G01X8549Y30190D01*
G01X8600Y30345D01*
G01X8600Y31125D01*
G01X9618Y30761D02*
G01X9568Y30607D01*
G01X9464Y30502D01*
G01X9309Y30449D01*
G01X9255Y30449D01*
G01X9100Y30502D01*
G01X8996Y30607D01*
G01X8943Y30761D01*
G01X8943Y30812D01*
G01X8996Y30970D01*
G01X9100Y31074D01*
G01X9255Y31125D01*
G01X9309Y31125D01*
G01X9464Y31074D01*
G01X9568Y30970D01*
G01X9618Y30761D01*
G01X9618Y30502D01*
G01X9568Y30241D01*
G01X9464Y30086D01*
G01X9309Y30035D01*
G01X9204Y30035D01*
G01X9047Y30086D01*
G01X8996Y30190D01*
G01X7874Y108087D02*
G01X7874Y106997D01*
G01X7874Y108087D02*
G01X8341Y108087D01*
G01X8496Y108036D01*
G01X8549Y107983D01*
G01X8600Y107878D01*
G01X8600Y107774D01*
G01X8549Y107670D01*
G01X8496Y107619D01*
G01X8341Y107569D01*
G01X7874Y107569D01*
G01X8237Y107569D02*
G01X8600Y106997D01*
G01X8943Y107411D02*
G01X9568Y107411D01*
G01X9568Y107515D01*
G01X9514Y107619D01*
G01X9464Y107670D01*
G01X9359Y107723D01*
G01X9204Y107723D01*
G01X9100Y107670D01*
G01X8996Y107569D01*
G01X8943Y107411D01*
G01X8943Y107307D01*
G01X8996Y107152D01*
G01X9100Y107048D01*
G01X9204Y106997D01*
G01X9359Y106997D01*
G01X9464Y107048D01*
G01X9568Y107152D01*
G01X10482Y107569D02*
G01X10429Y107670D01*
G01X10274Y107723D01*
G01X10119Y107723D01*
G01X9961Y107670D01*
G01X9911Y107569D01*
G01X9961Y107464D01*
G01X10066Y107411D01*
G01X10325Y107360D01*
G01X10429Y107307D01*
G01X10482Y107203D01*
G01X10482Y107152D01*
G01X10429Y107048D01*
G01X10274Y106997D01*
G01X10119Y106997D01*
G01X9961Y107048D01*
G01X9911Y107152D01*
G01X10825Y107411D02*
G01X11447Y107411D01*
G01X11447Y107515D01*
G01X11396Y107619D01*
G01X11343Y107670D01*
G01X11239Y107723D01*
G01X11084Y107723D01*
G01X10980Y107670D01*
G01X10876Y107569D01*
G01X10825Y107411D01*
G01X10825Y107307D01*
G01X10876Y107152D01*
G01X10980Y107048D01*
G01X11084Y106997D01*
G01X11239Y106997D01*
G01X11343Y107048D01*
G01X11447Y107152D01*
G01X11948Y108087D02*
G01X11948Y107203D01*
G01X11998Y107048D01*
G01X12103Y106997D01*
G01X12207Y106997D01*
G01X11790Y107723D02*
G01X12153Y107723D01*
G01X68059Y90279D02*
G01X68008Y90383D01*
G01X67853Y90434D01*
G01X67749Y90434D01*
G01X67591Y90383D01*
G01X67487Y90225D01*
G01X67437Y89966D01*
G01X67437Y89707D01*
G01X67487Y89499D01*
G01X67591Y89395D01*
G01X67749Y89344D01*
G01X67800Y89344D01*
G01X67957Y89395D01*
G01X68059Y89499D01*
G01X68112Y89654D01*
G01X68112Y89707D01*
G01X68059Y89862D01*
G01X67957Y89966D01*
G01X67800Y90017D01*
G01X67749Y90017D01*
G01X67591Y89966D01*
G01X67487Y89862D01*
G01X67437Y89707D01*
G01X69077Y90434D02*
G01X68559Y90434D01*
G01X68506Y89966D01*
G01X68559Y90017D01*
G01X68714Y90070D01*
G01X68872Y90070D01*
G01X69027Y90017D01*
G01X69131Y89916D01*
G01X69181Y89758D01*
G01X69181Y89654D01*
G01X69131Y89499D01*
G01X69027Y89395D01*
G01X68872Y89344D01*
G01X68714Y89344D01*
G01X68559Y89395D01*
G01X68506Y89446D01*
G01X68455Y89550D01*
G01X70304Y90175D02*
G01X70253Y90279D01*
G01X70149Y90383D01*
G01X70045Y90434D01*
G01X69837Y90434D01*
G01X69733Y90383D01*
G01X69629Y90279D01*
G01X69578Y90175D01*
G01X69524Y90017D01*
G01X69524Y89758D01*
G01X69578Y89603D01*
G01X69629Y89499D01*
G01X69733Y89395D01*
G01X69837Y89344D01*
G01X70045Y89344D01*
G01X70149Y89395D01*
G01X70253Y89499D01*
G01X70304Y89603D01*
G01X70959Y90434D02*
G01X70802Y90383D01*
G01X70700Y90225D01*
G01X70647Y89966D01*
G01X70647Y89811D01*
G01X70700Y89550D01*
G01X70802Y89395D01*
G01X70959Y89344D01*
G01X71064Y89344D01*
G01X71219Y89395D01*
G01X71323Y89550D01*
G01X71374Y89811D01*
G01X71374Y89966D01*
G01X71323Y90225D01*
G01X71219Y90383D01*
G01X71064Y90434D01*
G01X70959Y90434D01*
G01X71770Y90175D02*
G01X71770Y90225D01*
G01X71821Y90330D01*
G01X71874Y90383D01*
G01X71978Y90434D01*
G01X72186Y90434D01*
G01X72288Y90383D01*
G01X72341Y90330D01*
G01X72392Y90225D01*
G01X72392Y90121D01*
G01X72341Y90017D01*
G01X72237Y89862D01*
G01X71716Y89344D01*
G01X72445Y89344D01*
G01X54737Y90434D02*
G01X54737Y89654D01*
G01X54787Y89499D01*
G01X54891Y89395D01*
G01X55049Y89344D01*
G01X55153Y89344D01*
G01X55308Y89395D01*
G01X55412Y89499D01*
G01X55463Y89654D01*
G01X55463Y90434D01*
G01X55806Y90225D02*
G01X55910Y90279D01*
G01X56067Y90434D01*
G01X56067Y89344D01*
G01X170611Y80269D02*
G01X170611Y80319D01*
G01X170665Y80424D01*
G01X170715Y80477D01*
G01X170820Y80528D01*
G01X171028Y80528D01*
G01X171132Y80477D01*
G01X171183Y80424D01*
G01X171236Y80319D01*
G01X171236Y80215D01*
G01X171183Y80111D01*
G01X171081Y79956D01*
G01X170561Y79438D01*
G01X171287Y79438D01*
G01X171891Y80528D02*
G01X171734Y80477D01*
G01X171683Y80373D01*
G01X171683Y80269D01*
G01X171734Y80164D01*
G01X171838Y80111D01*
G01X172046Y80060D01*
G01X172201Y80010D01*
G01X172305Y79905D01*
G01X172359Y79801D01*
G01X172359Y79644D01*
G01X172305Y79540D01*
G01X172255Y79489D01*
G01X172097Y79438D01*
G01X171891Y79438D01*
G01X171734Y79489D01*
G01X171683Y79540D01*
G01X171630Y79644D01*
G01X171630Y79801D01*
G01X171683Y79905D01*
G01X171787Y80010D01*
G01X171942Y80060D01*
G01X172151Y80111D01*
G01X172255Y80164D01*
G01X172305Y80269D01*
G01X172305Y80373D01*
G01X172255Y80477D01*
G01X172097Y80528D01*
G01X171891Y80528D01*
G01X173482Y80269D02*
G01X173428Y80373D01*
G01X173324Y80477D01*
G01X173220Y80528D01*
G01X173012Y80528D01*
G01X172910Y80477D01*
G01X172806Y80373D01*
G01X172753Y80269D01*
G01X172702Y80111D01*
G01X172702Y79852D01*
G01X172753Y79697D01*
G01X172806Y79593D01*
G01X172910Y79489D01*
G01X173012Y79438D01*
G01X173220Y79438D01*
G01X173324Y79489D01*
G01X173428Y79593D01*
G01X173482Y79697D01*
G01X173875Y80269D02*
G01X173875Y80319D01*
G01X173926Y80424D01*
G01X173979Y80477D01*
G01X174083Y80528D01*
G01X174292Y80528D01*
G01X174396Y80477D01*
G01X174447Y80424D01*
G01X174498Y80319D01*
G01X174498Y80215D01*
G01X174447Y80111D01*
G01X174343Y79956D01*
G01X173824Y79438D01*
G01X174551Y79438D01*
G01X175516Y80528D02*
G01X174998Y80528D01*
G01X174945Y80060D01*
G01X174998Y80111D01*
G01X175153Y80164D01*
G01X175310Y80164D01*
G01X175465Y80111D01*
G01X175569Y80010D01*
G01X175620Y79852D01*
G01X175620Y79748D01*
G01X175569Y79593D01*
G01X175465Y79489D01*
G01X175310Y79438D01*
G01X175153Y79438D01*
G01X174998Y79489D01*
G01X174945Y79540D01*
G01X174894Y79644D01*
G01X176588Y80373D02*
G01X176535Y80477D01*
G01X176380Y80528D01*
G01X176276Y80528D01*
G01X176121Y80477D01*
G01X176016Y80319D01*
G01X175963Y80060D01*
G01X175963Y79801D01*
G01X176016Y79593D01*
G01X176121Y79489D01*
G01X176276Y79438D01*
G01X176326Y79438D01*
G01X176484Y79489D01*
G01X176588Y79593D01*
G01X176639Y79748D01*
G01X176639Y79801D01*
G01X176588Y79956D01*
G01X176484Y80060D01*
G01X176326Y80111D01*
G01X176276Y80111D01*
G01X176121Y80060D01*
G01X176016Y79956D01*
G01X175963Y79801D01*
G01X158750Y80401D02*
G01X158750Y79621D01*
G01X158800Y79466D01*
G01X158904Y79362D01*
G01X159062Y79311D01*
G01X159166Y79311D01*
G01X159321Y79362D01*
G01X159425Y79466D01*
G01X159476Y79621D01*
G01X159476Y80401D01*
G01X159872Y80142D02*
G01X159872Y80192D01*
G01X159923Y80297D01*
G01X159976Y80350D01*
G01X160080Y80401D01*
G01X160286Y80401D01*
G01X160390Y80350D01*
G01X160444Y80297D01*
G01X160494Y80192D01*
G01X160494Y80088D01*
G01X160444Y79984D01*
G01X160340Y79829D01*
G01X159819Y79311D01*
G01X160548Y79311D01*
G54D10*
G75*
G01X20765Y110109D02*
G02X22074Y114308I2095J1651D01*
G01*
G75*
G01X23647Y114308D02*
G02X24955Y110109I-786J-2548D01*
G01*
G54D30*
G75*
G01X119500Y107680D02*
G03X119500Y105680I0J-1000D01*
G01*
G75*
G01X37100Y78860D02*
G03X39100Y78860I1000J0D01*
G01*
G54D10*
G75*
G01X143090Y111970D02*
G02X141389Y111970I-850J5D01*
G01*
G54D30*
G75*
G01X79030Y103520D02*
G02X78280Y102770I-750J0D01*
G01*
G75*
G01X78280Y115670D02*
G02X79030Y114920I0J-750D01*
G01*
G75*
G01X58130Y114920D02*
G02X58880Y115670I750J0D01*
G01*
G75*
G01X53630Y103520D02*
G02X52880Y102770I-750J0D01*
G01*
G75*
G01X52880Y115670D02*
G02X53630Y114920I0J-750D01*
G01*
G75*
G01X32730Y114920D02*
G02X33480Y115670I750J0D01*
G01*
G54D10*
G75*
G01X148280Y99846D02*
G03X148643Y103100I-960J1754D01*
G01*
G75*
G01X145997Y103100D02*
G03X146360Y99846I1323J-1500D01*
G01*
G75*
G01X143200Y99846D02*
G03X143563Y103100I-960J1754D01*
G01*
G75*
G01X140917Y103100D02*
G03X141280Y99846I1323J-1500D01*
G01*
G54D30*
G75*
G01X136160Y78860D02*
G03X138160Y78860I1000J0D01*
G01*
G75*
G01X16780Y72510D02*
G03X18780Y72510I1000J0D01*
G01*
G75*
G01X124340Y19320D02*
G03X124340Y21320I0J1000D01*
G01*
G75*
G01X7500Y19320D02*
G03X7500Y21320I0J1000D01*
G01*
G75*
G01X62500Y89020D02*
G03X64500Y89020I1000J0D01*
G01*
G75*
G01X166640Y78860D02*
G03X168640Y78860I1000J0D01*
G01*
G54D10*
G75*
G01X175179Y93980D02*
G03X175179Y93980I-4999J0D01*
G01*
G75*
G01X139700Y112270D02*
G03X139700Y112270I-254J0D01*
G01*
G75*
G01X10864Y111808D02*
G03X10864Y111808I-749J0D01*
G01*
G75*
G01X11864Y111808D02*
G03X11864Y111808I-1750J0D01*
G01*

%LPD*%
G36*
G01X166624Y90424D02*
G01X166624Y97536D01*
G01X165862Y96520D01*
G01X165354Y94996D01*
G01X165100Y93472D01*
G01X165354Y92456D01*
G01X166624Y90424D01*
G37*
M00*
M02*
