G04 Layer: TopSilkLayer*
G04 EasyEDA v6.3.22, 2020-04-29T08:02:14--7:00*
G04 df07cc009cc040c9afc33ab3c66112f2,1d979999f33e43778db822881d36423c,10*
G04 Gerber Generator version 0.2*
G04 Scale: 100 percent, Rotated: No, Reflected: No *
G04 Dimensions in millimeters *
G04 leading zeros omitted , absolute positions ,3 integer and 3 decimal *
%FSLAX33Y33*%
%MOMM*%
G90*
G71D02*

%ADD10C,0.254000*%
%ADD30C,0.119990*%
%ADD31C,0.203200*%
%ADD32C,0.202999*%
%ADD33C,0.177800*%
%ADD34C,0.152400*%
%ADD35C,0.200000*%

%LPD*%
G54D10*
G01X30530Y70383D02*
G01X28143Y70383D01*
G01X28143Y70383D02*
G01X28143Y76682D01*
G01X28143Y76682D02*
G01X30530Y76682D01*
G01X30530Y76682D02*
G01X30530Y70383D01*
G01X27482Y70383D02*
G01X25095Y70383D01*
G01X25095Y70383D02*
G01X25095Y76682D01*
G01X25095Y76682D02*
G01X27482Y76682D01*
G01X27482Y76682D02*
G01X27482Y70383D01*
G54D30*
G01X119499Y107680D02*
G01X119499Y112859D01*
G01X83700Y112859D01*
G01X83700Y100500D01*
G01X119499Y100500D01*
G01X119499Y105679D01*
G01X119499Y115689D02*
G01X83700Y115689D01*
G01X83700Y97670D01*
G01X119499Y97670D01*
G01X119499Y115689D01*
G54D10*
G01X55880Y8255D02*
G01X55880Y6985D01*
G01X33020Y8255D02*
G01X32385Y8890D01*
G01X31115Y8890D01*
G01X30480Y8255D01*
G01X33020Y6985D02*
G01X32385Y6350D01*
G01X31115Y6350D01*
G01X30480Y6985D01*
G01X30480Y8255D02*
G01X30480Y6985D01*
G01X55880Y8255D02*
G01X55245Y8890D01*
G01X53975Y8890D01*
G01X53340Y8255D01*
G01X55880Y6985D02*
G01X55245Y6350D01*
G01X53975Y6350D01*
G01X53340Y6985D01*
G01X53340Y8255D02*
G01X52705Y8890D01*
G01X51435Y8890D01*
G01X50800Y8255D01*
G01X53340Y6985D02*
G01X52705Y6350D01*
G01X51435Y6350D01*
G01X50800Y6985D01*
G01X50800Y8255D02*
G01X50165Y8890D01*
G01X48895Y8890D01*
G01X48260Y8255D01*
G01X50800Y6985D02*
G01X50165Y6350D01*
G01X48895Y6350D01*
G01X48260Y6985D01*
G01X48260Y8255D02*
G01X47625Y8890D01*
G01X46355Y8890D01*
G01X45720Y8255D01*
G01X48260Y6985D02*
G01X47625Y6350D01*
G01X46355Y6350D01*
G01X45720Y6985D01*
G01X45720Y8255D02*
G01X45085Y8890D01*
G01X43815Y8890D01*
G01X43180Y8255D01*
G01X45720Y6985D02*
G01X45085Y6350D01*
G01X43815Y6350D01*
G01X43180Y6985D01*
G01X43180Y8255D02*
G01X42545Y8890D01*
G01X41275Y8890D01*
G01X40640Y8255D01*
G01X43180Y6985D02*
G01X42545Y6350D01*
G01X41275Y6350D01*
G01X40640Y6985D01*
G01X40640Y8255D02*
G01X40005Y8890D01*
G01X38735Y8890D01*
G01X38100Y8255D01*
G01X40640Y6985D02*
G01X40005Y6350D01*
G01X38735Y6350D01*
G01X38100Y6985D01*
G01X38100Y8255D02*
G01X37465Y8890D01*
G01X36195Y8890D01*
G01X35560Y8255D01*
G01X38100Y6985D02*
G01X37465Y6350D01*
G01X36195Y6350D01*
G01X35560Y6985D01*
G01X35560Y8255D02*
G01X34925Y8890D01*
G01X33655Y8890D01*
G01X33020Y8255D01*
G01X35560Y6985D02*
G01X34925Y6350D01*
G01X33655Y6350D01*
G01X33020Y6985D01*
G01X30480Y8255D02*
G01X30480Y6985D01*
G01X7620Y8255D02*
G01X6985Y8890D01*
G01X5715Y8890D01*
G01X5080Y8255D01*
G01X7620Y6985D02*
G01X6985Y6350D01*
G01X5715Y6350D01*
G01X5080Y6985D01*
G01X5080Y8255D02*
G01X5080Y6985D01*
G01X30480Y8255D02*
G01X29845Y8890D01*
G01X28575Y8890D01*
G01X27940Y8255D01*
G01X30480Y6985D02*
G01X29845Y6350D01*
G01X28575Y6350D01*
G01X27940Y6985D01*
G01X27940Y8255D02*
G01X27305Y8890D01*
G01X26035Y8890D01*
G01X25400Y8255D01*
G01X27940Y6985D02*
G01X27305Y6350D01*
G01X26035Y6350D01*
G01X25400Y6985D01*
G01X25400Y8255D02*
G01X24765Y8890D01*
G01X23495Y8890D01*
G01X22860Y8255D01*
G01X25400Y6985D02*
G01X24765Y6350D01*
G01X23495Y6350D01*
G01X22860Y6985D01*
G01X22860Y8255D02*
G01X22225Y8890D01*
G01X20955Y8890D01*
G01X20320Y8255D01*
G01X22860Y6985D02*
G01X22225Y6350D01*
G01X20955Y6350D01*
G01X20320Y6985D01*
G01X20320Y8255D02*
G01X19685Y8890D01*
G01X18415Y8890D01*
G01X17780Y8255D01*
G01X20320Y6985D02*
G01X19685Y6350D01*
G01X18415Y6350D01*
G01X17780Y6985D01*
G01X17780Y8255D02*
G01X17145Y8890D01*
G01X15875Y8890D01*
G01X15240Y8255D01*
G01X17780Y6985D02*
G01X17145Y6350D01*
G01X15875Y6350D01*
G01X15240Y6985D01*
G01X15240Y8255D02*
G01X14605Y8890D01*
G01X13335Y8890D01*
G01X12700Y8255D01*
G01X15240Y6985D02*
G01X14605Y6350D01*
G01X13335Y6350D01*
G01X12700Y6985D01*
G01X12700Y8255D02*
G01X12065Y8890D01*
G01X10795Y8890D01*
G01X10160Y8255D01*
G01X12700Y6985D02*
G01X12065Y6350D01*
G01X10795Y6350D01*
G01X10160Y6985D01*
G01X10160Y8255D02*
G01X9525Y8890D01*
G01X8255Y8890D01*
G01X7620Y8255D01*
G01X10160Y6985D02*
G01X9525Y6350D01*
G01X8255Y6350D01*
G01X7620Y6985D01*
G01X147320Y8255D02*
G01X147320Y6985D01*
G01X124460Y8255D02*
G01X123825Y8890D01*
G01X122555Y8890D01*
G01X121920Y8255D01*
G01X124460Y6985D02*
G01X123825Y6350D01*
G01X122555Y6350D01*
G01X121920Y6985D01*
G01X121920Y8255D02*
G01X121920Y6985D01*
G01X147320Y8255D02*
G01X146685Y8890D01*
G01X145415Y8890D01*
G01X144780Y8255D01*
G01X147320Y6985D02*
G01X146685Y6350D01*
G01X145415Y6350D01*
G01X144780Y6985D01*
G01X144780Y8255D02*
G01X144145Y8890D01*
G01X142875Y8890D01*
G01X142240Y8255D01*
G01X144780Y6985D02*
G01X144145Y6350D01*
G01X142875Y6350D01*
G01X142240Y6985D01*
G01X142240Y8255D02*
G01X141605Y8890D01*
G01X140335Y8890D01*
G01X139700Y8255D01*
G01X142240Y6985D02*
G01X141605Y6350D01*
G01X140335Y6350D01*
G01X139700Y6985D01*
G01X139700Y8255D02*
G01X139065Y8890D01*
G01X137795Y8890D01*
G01X137160Y8255D01*
G01X139700Y6985D02*
G01X139065Y6350D01*
G01X137795Y6350D01*
G01X137160Y6985D01*
G01X137160Y8255D02*
G01X136525Y8890D01*
G01X135255Y8890D01*
G01X134620Y8255D01*
G01X137160Y6985D02*
G01X136525Y6350D01*
G01X135255Y6350D01*
G01X134620Y6985D01*
G01X134620Y8255D02*
G01X133985Y8890D01*
G01X132715Y8890D01*
G01X132080Y8255D01*
G01X134620Y6985D02*
G01X133985Y6350D01*
G01X132715Y6350D01*
G01X132080Y6985D01*
G01X132080Y8255D02*
G01X131445Y8890D01*
G01X130175Y8890D01*
G01X129540Y8255D01*
G01X132080Y6985D02*
G01X131445Y6350D01*
G01X130175Y6350D01*
G01X129540Y6985D01*
G01X129540Y8255D02*
G01X128905Y8890D01*
G01X127635Y8890D01*
G01X127000Y8255D01*
G01X129540Y6985D02*
G01X128905Y6350D01*
G01X127635Y6350D01*
G01X127000Y6985D01*
G01X127000Y8255D02*
G01X126365Y8890D01*
G01X125095Y8890D01*
G01X124460Y8255D01*
G01X127000Y6985D02*
G01X126365Y6350D01*
G01X125095Y6350D01*
G01X124460Y6985D01*
G01X172720Y8255D02*
G01X172720Y6985D01*
G01X149860Y8255D02*
G01X149225Y8890D01*
G01X147955Y8890D01*
G01X147320Y8255D01*
G01X149860Y6985D02*
G01X149225Y6350D01*
G01X147955Y6350D01*
G01X147320Y6985D01*
G01X147320Y8255D02*
G01X147320Y6985D01*
G01X172720Y8255D02*
G01X172085Y8890D01*
G01X170815Y8890D01*
G01X170180Y8255D01*
G01X172720Y6985D02*
G01X172085Y6350D01*
G01X170815Y6350D01*
G01X170180Y6985D01*
G01X170180Y8255D02*
G01X169545Y8890D01*
G01X168275Y8890D01*
G01X167640Y8255D01*
G01X170180Y6985D02*
G01X169545Y6350D01*
G01X168275Y6350D01*
G01X167640Y6985D01*
G01X167640Y8255D02*
G01X167005Y8890D01*
G01X165735Y8890D01*
G01X165100Y8255D01*
G01X167640Y6985D02*
G01X167005Y6350D01*
G01X165735Y6350D01*
G01X165100Y6985D01*
G01X165100Y8255D02*
G01X164465Y8890D01*
G01X163195Y8890D01*
G01X162560Y8255D01*
G01X165100Y6985D02*
G01X164465Y6350D01*
G01X163195Y6350D01*
G01X162560Y6985D01*
G01X162560Y8255D02*
G01X161925Y8890D01*
G01X160655Y8890D01*
G01X160020Y8255D01*
G01X162560Y6985D02*
G01X161925Y6350D01*
G01X160655Y6350D01*
G01X160020Y6985D01*
G01X160020Y8255D02*
G01X159385Y8890D01*
G01X158115Y8890D01*
G01X157480Y8255D01*
G01X160020Y6985D02*
G01X159385Y6350D01*
G01X158115Y6350D01*
G01X157480Y6985D01*
G01X157480Y8255D02*
G01X156845Y8890D01*
G01X155575Y8890D01*
G01X154940Y8255D01*
G01X157480Y6985D02*
G01X156845Y6350D01*
G01X155575Y6350D01*
G01X154940Y6985D01*
G01X154940Y8255D02*
G01X154305Y8890D01*
G01X153035Y8890D01*
G01X152400Y8255D01*
G01X154940Y6985D02*
G01X154305Y6350D01*
G01X153035Y6350D01*
G01X152400Y6985D01*
G01X152400Y8255D02*
G01X151765Y8890D01*
G01X150495Y8890D01*
G01X149860Y8255D01*
G01X152400Y6985D02*
G01X151765Y6350D01*
G01X150495Y6350D01*
G01X149860Y6985D01*
G54D30*
G01X37099Y78859D02*
G01X35730Y78859D01*
G01X35730Y48140D01*
G01X40469Y48140D01*
G01X40469Y78859D01*
G01X39100Y78859D01*
G01X32900Y78859D02*
G01X32900Y48140D01*
G01X43299Y48140D01*
G01X43299Y78859D01*
G01X32900Y78859D01*
G54D31*
G01X111760Y5080D02*
G01X111760Y10160D01*
G01X71120Y10160D01*
G01X71120Y5080D01*
G01X111760Y5080D01*
G54D30*
G01X16779Y72509D02*
G01X15410Y72509D01*
G01X15410Y54490D01*
G01X20149Y54490D01*
G01X20149Y72509D01*
G01X18780Y72509D01*
G01X12580Y72509D02*
G01X12580Y54490D01*
G01X22979Y54490D01*
G01X22979Y72509D01*
G01X12580Y72509D01*
G54D31*
G01X43180Y97790D02*
G01X43180Y100330D01*
G01X48260Y100330D01*
G01X48260Y97790D01*
G01X46355Y97790D01*
G54D32*
G01X43180Y97790D02*
G01X46355Y97790D01*
G54D30*
G01X124340Y19319D02*
G01X124340Y14140D01*
G01X175379Y14140D01*
G01X175379Y26499D01*
G01X124340Y26499D01*
G01X124340Y21320D01*
G01X124340Y11310D02*
G01X175379Y11310D01*
G01X175379Y29329D01*
G01X124340Y29329D01*
G01X124340Y11310D01*
G01X7500Y19319D02*
G01X7500Y14140D01*
G01X58539Y14140D01*
G01X58539Y26499D01*
G01X7500Y26499D01*
G01X7500Y21320D01*
G01X7500Y11310D02*
G01X58539Y11310D01*
G01X58539Y29329D01*
G01X7500Y29329D01*
G01X7500Y11310D01*
G01X62499Y89019D02*
G01X57320Y89019D01*
G01X57320Y37980D01*
G01X69679Y37980D01*
G01X69679Y89019D01*
G01X64500Y89019D01*
G01X54490Y89019D02*
G01X54490Y37980D01*
G01X72509Y37980D01*
G01X72509Y89019D01*
G01X54490Y89019D01*
G54D10*
G01X20777Y110109D02*
G01X24942Y110109D01*
G01X20193Y111506D02*
G01X20599Y111506D01*
G01X25120Y111506D02*
G01X25527Y111506D01*
G01X154330Y105486D02*
G01X154330Y107873D01*
G01X154330Y107873D02*
G01X160629Y107873D01*
G01X160629Y107873D02*
G01X160629Y105486D01*
G01X160629Y105486D02*
G01X154330Y105486D01*
G01X133426Y104749D02*
G01X135813Y104749D01*
G01X135813Y104749D02*
G01X135813Y98450D01*
G01X135813Y98450D02*
G01X133426Y98450D01*
G01X133426Y98450D02*
G01X133426Y104749D01*
G01X154330Y110566D02*
G01X154330Y112953D01*
G01X154330Y112953D02*
G01X160629Y112953D01*
G01X160629Y112953D02*
G01X160629Y110566D01*
G01X160629Y110566D02*
G01X154330Y110566D01*
G01X49453Y80670D02*
G01X47066Y80670D01*
G01X47066Y80670D02*
G01X47066Y86969D01*
G01X47066Y86969D02*
G01X49453Y86969D01*
G01X49453Y86969D02*
G01X49453Y80670D01*
G01X128346Y104749D02*
G01X130733Y104749D01*
G01X130733Y104749D02*
G01X130733Y98450D01*
G01X130733Y98450D02*
G01X128346Y98450D01*
G01X128346Y98450D02*
G01X128346Y104749D01*
G54D31*
G01X123825Y115570D02*
G01X121920Y115570D01*
G01X121920Y113030D01*
G01X137160Y113030D01*
G01X137160Y115570D01*
G54D32*
G01X137160Y115570D02*
G01X123825Y115570D01*
G54D10*
G01X174752Y93980D02*
G01X173736Y93980D01*
G01X174244Y93218D02*
G01X174244Y94742D01*
G01X140040Y106469D02*
G01X144439Y106439D01*
G01X144439Y111970D02*
G01X144439Y111929D01*
G01X144439Y106510D02*
G01X144439Y106439D01*
G01X140040Y111970D02*
G01X140040Y111929D01*
G01X140040Y106510D02*
G01X140040Y106469D01*
G01X144439Y111970D02*
G01X143090Y111970D01*
G01X140040Y111970D02*
G01X141389Y111970D01*
G54D30*
G01X58130Y114919D02*
G01X58130Y102770D01*
G01X78280Y102770D01*
G01X78280Y115669D02*
G01X58879Y115669D01*
G01X79029Y103520D02*
G01X79029Y114919D01*
G01X32730Y114919D02*
G01X32730Y102770D01*
G01X52880Y102770D01*
G01X52880Y115669D02*
G01X33479Y115669D01*
G01X53629Y103520D02*
G01X53629Y114919D01*
G54D10*
G01X148642Y103099D02*
G01X148370Y103099D01*
G01X146269Y103099D02*
G01X145997Y103099D01*
G01X143562Y103099D02*
G01X143290Y103099D01*
G01X141189Y103099D02*
G01X140917Y103099D01*
G54D33*
G01X143256Y116840D02*
G01X143256Y119380D01*
G01X151384Y119380D01*
G01X151384Y114300D01*
G01X143256Y114300D01*
G01X143256Y116840D01*
G01X63500Y24384D02*
G01X66040Y24384D01*
G01X66040Y16256D01*
G01X60960Y16256D01*
G01X60960Y24384D01*
G01X63500Y24384D01*
G01X124460Y105664D02*
G01X127000Y105664D01*
G01X127000Y97536D01*
G01X121920Y97536D01*
G01X121920Y105664D01*
G01X124460Y105664D01*
G01X160020Y94996D02*
G01X157480Y94996D01*
G01X157480Y103124D01*
G01X162560Y103124D01*
G01X162560Y94996D01*
G01X160020Y94996D01*
G01X154940Y94996D02*
G01X152400Y94996D01*
G01X152400Y103124D01*
G01X157480Y103124D01*
G01X157480Y94996D01*
G01X154940Y94996D01*
G01X18796Y104140D02*
G01X18796Y106680D01*
G01X26924Y106680D01*
G01X26924Y101600D01*
G01X18796Y101600D01*
G01X18796Y104140D01*
G01X13716Y78740D02*
G01X13716Y81280D01*
G01X21844Y81280D01*
G01X21844Y76200D01*
G01X13716Y76200D01*
G01X13716Y78740D01*
G01X34036Y83820D02*
G01X34036Y86360D01*
G01X42164Y86360D01*
G01X42164Y81280D01*
G01X34036Y81280D01*
G01X34036Y83820D01*
G01X133096Y83820D02*
G01X133096Y86360D01*
G01X141224Y86360D01*
G01X141224Y81280D01*
G01X133096Y81280D01*
G01X133096Y83820D01*
G01X163576Y83820D02*
G01X163576Y86360D01*
G01X171704Y86360D01*
G01X171704Y81280D01*
G01X163576Y81280D01*
G01X163576Y83820D01*
G01X59436Y93980D02*
G01X59436Y96520D01*
G01X67564Y96520D01*
G01X67564Y91440D01*
G01X59436Y91440D01*
G01X59436Y93980D01*
G01X119380Y24384D02*
G01X121920Y24384D01*
G01X121920Y16256D01*
G01X116840Y16256D01*
G01X116840Y24384D01*
G01X119380Y24384D01*
G54D30*
G01X136159Y78859D02*
G01X130980Y78859D01*
G01X130980Y43060D01*
G01X143339Y43060D01*
G01X143339Y78859D01*
G01X138160Y78859D01*
G01X128150Y78859D02*
G01X128150Y43060D01*
G01X146169Y43060D01*
G01X146169Y78859D01*
G01X128150Y78859D01*
G54D10*
G01X181483Y101854D02*
G01X181483Y113792D01*
G01X171179Y101780D02*
G01X166280Y101780D01*
G01X166280Y113879D01*
G01X171280Y113879D01*
G01X173680Y101780D02*
G01X182880Y101780D01*
G01X182880Y113879D01*
G01X173680Y113879D01*
G01X7258Y114761D02*
G01X7258Y108862D01*
G01X13056Y108862D01*
G01X13056Y114761D01*
G01X7258Y114761D01*
G54D30*
G01X166639Y78859D02*
G01X161460Y78859D01*
G01X161460Y43060D01*
G01X173819Y43060D01*
G01X173819Y78859D01*
G01X168640Y78859D01*
G01X158630Y78859D02*
G01X158630Y43060D01*
G01X176649Y43060D01*
G01X176649Y78859D01*
G01X158630Y78859D01*
G54D34*
G01X99822Y4579D02*
G01X99822Y3731D01*
G01X99822Y4579D02*
G01X100103Y4579D01*
G01X100225Y4538D01*
G01X100307Y4457D01*
G01X100347Y4378D01*
G01X100388Y4257D01*
G01X100388Y4053D01*
G01X100347Y3934D01*
G01X100307Y3853D01*
G01X100225Y3771D01*
G01X100103Y3731D01*
G01X99822Y3731D01*
G01X100977Y4579D02*
G01X100655Y3731D01*
G01X100977Y4579D02*
G01X101300Y3731D01*
G01X100774Y4013D02*
G01X101180Y4013D01*
G01X101851Y4579D02*
G01X101851Y3731D01*
G01X101566Y4579D02*
G01X102133Y4579D01*
G01X102722Y4579D02*
G01X102400Y3731D01*
G01X102722Y4579D02*
G01X103047Y3731D01*
G01X102522Y4013D02*
G01X102925Y4013D01*
G01X110350Y4579D02*
G01X110230Y4538D01*
G01X110149Y4419D01*
G01X110109Y4216D01*
G01X110109Y4094D01*
G01X110149Y3893D01*
G01X110230Y3771D01*
G01X110350Y3731D01*
G01X110431Y3731D01*
G01X110553Y3771D01*
G01X110634Y3893D01*
G01X110675Y4094D01*
G01X110675Y4216D01*
G01X110634Y4419D01*
G01X110553Y4538D01*
G01X110431Y4579D01*
G01X110350Y4579D01*
G01X92895Y4579D02*
G01X92491Y3731D01*
G01X92329Y4579D02*
G01X92895Y4579D01*
G01X110350Y11437D02*
G01X110230Y11396D01*
G01X110149Y11277D01*
G01X110109Y11074D01*
G01X110109Y10952D01*
G01X110149Y10751D01*
G01X110230Y10629D01*
G01X110350Y10589D01*
G01X110431Y10589D01*
G01X110553Y10629D01*
G01X110634Y10751D01*
G01X110675Y10952D01*
G01X110675Y11074D01*
G01X110634Y11277D01*
G01X110553Y11396D01*
G01X110431Y11437D01*
G01X110350Y11437D01*
G01X71755Y11277D02*
G01X71836Y11315D01*
G01X71958Y11437D01*
G01X71958Y10589D01*
G01X72707Y11437D02*
G01X72303Y11437D01*
G01X72263Y11074D01*
G01X72303Y11115D01*
G01X72425Y11155D01*
G01X72547Y11155D01*
G01X72669Y11115D01*
G01X72748Y11033D01*
G01X72788Y10911D01*
G01X72788Y10833D01*
G01X72748Y10711D01*
G01X72669Y10629D01*
G01X72547Y10589D01*
G01X72425Y10589D01*
G01X72303Y10629D01*
G01X72263Y10670D01*
G01X72224Y10751D01*
G01X88587Y11564D02*
G01X88265Y10716D01*
G01X88587Y11564D02*
G01X88912Y10716D01*
G01X88386Y10998D02*
G01X88790Y10998D01*
G01X89179Y11564D02*
G01X89179Y10716D01*
G01X89179Y11564D02*
G01X89461Y11564D01*
G01X89583Y11523D01*
G01X89662Y11442D01*
G01X89702Y11363D01*
G01X89743Y11242D01*
G01X89743Y11038D01*
G01X89702Y10919D01*
G01X89662Y10838D01*
G01X89583Y10756D01*
G01X89461Y10716D01*
G01X89179Y10716D01*
G01X90009Y11564D02*
G01X90009Y10716D01*
G01X90009Y11564D02*
G01X90294Y11564D01*
G01X90413Y11523D01*
G01X90495Y11442D01*
G01X90535Y11363D01*
G01X90576Y11242D01*
G01X90576Y11038D01*
G01X90535Y10919D01*
G01X90495Y10838D01*
G01X90413Y10756D01*
G01X90294Y10716D01*
G01X90009Y10716D01*
G01X90843Y11564D02*
G01X90843Y10716D01*
G01X90843Y11564D02*
G01X91206Y11564D01*
G01X91328Y11523D01*
G01X91368Y11483D01*
G01X91409Y11404D01*
G01X91409Y11323D01*
G01X91368Y11242D01*
G01X91328Y11201D01*
G01X91206Y11160D01*
G01X90843Y11160D01*
G01X91125Y11160D02*
G01X91409Y10716D01*
G01X91676Y11564D02*
G01X91676Y10716D01*
G01X91676Y11564D02*
G01X92202Y11564D01*
G01X91676Y11160D02*
G01X91998Y11160D01*
G01X91676Y10716D02*
G01X92202Y10716D01*
G01X93032Y11442D02*
G01X92951Y11523D01*
G01X92831Y11564D01*
G01X92669Y11564D01*
G01X92547Y11523D01*
G01X92468Y11442D01*
G01X92468Y11363D01*
G01X92506Y11282D01*
G01X92547Y11242D01*
G01X92628Y11201D01*
G01X92872Y11120D01*
G01X92951Y11079D01*
G01X92991Y11038D01*
G01X93032Y10960D01*
G01X93032Y10838D01*
G01X92951Y10756D01*
G01X92831Y10716D01*
G01X92669Y10716D01*
G01X92547Y10756D01*
G01X92468Y10838D01*
G01X93865Y11442D02*
G01X93784Y11523D01*
G01X93662Y11564D01*
G01X93502Y11564D01*
G01X93380Y11523D01*
G01X93299Y11442D01*
G01X93299Y11363D01*
G01X93339Y11282D01*
G01X93380Y11242D01*
G01X93461Y11201D01*
G01X93703Y11120D01*
G01X93784Y11079D01*
G01X93825Y11038D01*
G01X93865Y10960D01*
G01X93865Y10838D01*
G01X93784Y10756D01*
G01X93662Y10716D01*
G01X93502Y10716D01*
G01X93380Y10756D01*
G01X93299Y10838D01*
G01X89761Y4378D02*
G01X89720Y4457D01*
G01X89639Y4538D01*
G01X89557Y4579D01*
G01X89395Y4579D01*
G01X89316Y4538D01*
G01X89235Y4457D01*
G01X89194Y4378D01*
G01X89154Y4257D01*
G01X89154Y4053D01*
G01X89194Y3934D01*
G01X89235Y3853D01*
G01X89316Y3771D01*
G01X89395Y3731D01*
G01X89557Y3731D01*
G01X89639Y3771D01*
G01X89720Y3853D01*
G01X89761Y3934D01*
G01X90027Y4579D02*
G01X90027Y3731D01*
G01X90027Y3731D02*
G01X90512Y3731D01*
G01X90779Y4579D02*
G01X90779Y3731D01*
G01X91343Y4579D02*
G01X90779Y4013D01*
G01X90980Y4216D02*
G01X91343Y3731D01*
G01X86868Y4579D02*
G01X86868Y3731D01*
G01X86868Y4579D02*
G01X87231Y4579D01*
G01X87353Y4538D01*
G01X87393Y4498D01*
G01X87434Y4419D01*
G01X87434Y4338D01*
G01X87393Y4257D01*
G01X87353Y4216D01*
G01X87231Y4175D01*
G01X86868Y4175D01*
G01X87149Y4175D02*
G01X87434Y3731D01*
G01X87701Y4579D02*
G01X87901Y3731D01*
G01X88104Y4579D02*
G01X87901Y3731D01*
G01X88104Y4579D02*
G01X88305Y3731D01*
G01X88508Y4579D02*
G01X88305Y3731D01*
G01X84074Y4579D02*
G01X84074Y3731D01*
G01X84074Y4579D02*
G01X84437Y4579D01*
G01X84559Y4538D01*
G01X84599Y4498D01*
G01X84640Y4419D01*
G01X84640Y4338D01*
G01X84599Y4257D01*
G01X84559Y4216D01*
G01X84437Y4175D01*
G01X84074Y4175D01*
G01X84355Y4175D02*
G01X84640Y3731D01*
G01X85471Y4457D02*
G01X85392Y4538D01*
G01X85270Y4579D01*
G01X85107Y4579D01*
G01X84988Y4538D01*
G01X84907Y4457D01*
G01X84907Y4378D01*
G01X84947Y4297D01*
G01X84988Y4257D01*
G01X85067Y4216D01*
G01X85310Y4135D01*
G01X85392Y4094D01*
G01X85432Y4053D01*
G01X85471Y3975D01*
G01X85471Y3853D01*
G01X85392Y3771D01*
G01X85270Y3731D01*
G01X85107Y3731D01*
G01X84988Y3771D01*
G01X84907Y3853D01*
G01X86022Y4579D02*
G01X86022Y3731D01*
G01X85737Y4579D02*
G01X86304Y4579D01*
G01X82395Y4378D02*
G01X82354Y4457D01*
G01X82273Y4538D01*
G01X82191Y4579D01*
G01X82029Y4579D01*
G01X81950Y4538D01*
G01X81869Y4457D01*
G01X81828Y4378D01*
G01X81788Y4257D01*
G01X81788Y4053D01*
G01X81828Y3934D01*
G01X81869Y3853D01*
G01X81950Y3771D01*
G01X82029Y3731D01*
G01X82191Y3731D01*
G01X82273Y3771D01*
G01X82354Y3853D01*
G01X82395Y3934D01*
G01X83225Y4457D02*
G01X83146Y4538D01*
G01X83024Y4579D01*
G01X82862Y4579D01*
G01X82740Y4538D01*
G01X82661Y4457D01*
G01X82661Y4378D01*
G01X82702Y4297D01*
G01X82740Y4257D01*
G01X82821Y4216D01*
G01X83065Y4135D01*
G01X83146Y4094D01*
G01X83185Y4053D01*
G01X83225Y3975D01*
G01X83225Y3853D01*
G01X83146Y3771D01*
G01X83024Y3731D01*
G01X82862Y3731D01*
G01X82740Y3771D01*
G01X82661Y3853D01*
G01X79121Y4579D02*
G01X79121Y3731D01*
G01X79387Y4579D02*
G01X79387Y3731D01*
G01X79387Y4579D02*
G01X79750Y4579D01*
G01X79872Y4538D01*
G01X79913Y4498D01*
G01X79954Y4419D01*
G01X79954Y4338D01*
G01X79913Y4257D01*
G01X79872Y4216D01*
G01X79750Y4175D01*
G01X79387Y4175D01*
G01X79669Y4175D02*
G01X79954Y3731D01*
G01X80462Y4579D02*
G01X80380Y4538D01*
G01X80302Y4457D01*
G01X80261Y4378D01*
G01X80220Y4257D01*
G01X80220Y4053D01*
G01X80261Y3934D01*
G01X80302Y3853D01*
G01X80380Y3771D01*
G01X80462Y3731D01*
G01X80624Y3731D01*
G01X80705Y3771D01*
G01X80784Y3853D01*
G01X80825Y3934D01*
G01X80865Y4053D01*
G01X80865Y4257D01*
G01X80825Y4378D01*
G01X80784Y4457D01*
G01X80705Y4538D01*
G01X80624Y4579D01*
G01X80462Y4579D01*
G01X80584Y3893D02*
G01X80825Y3649D01*
G01X71854Y4378D02*
G01X71813Y4457D01*
G01X71732Y4538D01*
G01X71650Y4579D01*
G01X71488Y4579D01*
G01X71409Y4538D01*
G01X71328Y4457D01*
G01X71287Y4378D01*
G01X71247Y4257D01*
G01X71247Y4053D01*
G01X71287Y3934D01*
G01X71328Y3853D01*
G01X71409Y3771D01*
G01X71488Y3731D01*
G01X71650Y3731D01*
G01X71732Y3771D01*
G01X71813Y3853D01*
G01X71854Y3934D01*
G01X71854Y4053D01*
G01X71650Y4053D02*
G01X71854Y4053D01*
G01X72120Y4579D02*
G01X72120Y3731D01*
G01X72120Y4579D02*
G01X72684Y3731D01*
G01X72684Y4579D02*
G01X72684Y3731D01*
G01X72951Y4579D02*
G01X72951Y3731D01*
G01X72951Y4579D02*
G01X73235Y4579D01*
G01X73355Y4538D01*
G01X73436Y4457D01*
G01X73477Y4378D01*
G01X73517Y4257D01*
G01X73517Y4053D01*
G01X73477Y3934D01*
G01X73436Y3853D01*
G01X73355Y3771D01*
G01X73235Y3731D01*
G01X72951Y3731D01*
G01X73914Y4579D02*
G01X74236Y3731D01*
G01X74561Y4579D02*
G01X74236Y3731D01*
G01X75311Y4175D02*
G01X75232Y4257D01*
G01X75150Y4297D01*
G01X75029Y4297D01*
G01X74947Y4257D01*
G01X74866Y4175D01*
G01X74828Y4053D01*
G01X74828Y3975D01*
G01X74866Y3853D01*
G01X74947Y3771D01*
G01X75029Y3731D01*
G01X75150Y3731D01*
G01X75232Y3771D01*
G01X75311Y3853D01*
G01X76062Y4175D02*
G01X75984Y4257D01*
G01X75902Y4297D01*
G01X75780Y4297D01*
G01X75699Y4257D01*
G01X75618Y4175D01*
G01X75577Y4053D01*
G01X75577Y3975D01*
G01X75618Y3853D01*
G01X75699Y3771D01*
G01X75780Y3731D01*
G01X75902Y3731D01*
G01X75984Y3771D01*
G01X76062Y3853D01*
G01X122781Y5775D02*
G01X122740Y5854D01*
G01X122659Y5935D01*
G01X122577Y5976D01*
G01X122415Y5976D01*
G01X122336Y5935D01*
G01X122255Y5854D01*
G01X122214Y5775D01*
G01X122174Y5654D01*
G01X122174Y5450D01*
G01X122214Y5331D01*
G01X122255Y5250D01*
G01X122336Y5168D01*
G01X122415Y5128D01*
G01X122577Y5128D01*
G01X122659Y5168D01*
G01X122740Y5250D01*
G01X122781Y5331D01*
G01X123370Y5976D02*
G01X123047Y5128D01*
G01X123370Y5976D02*
G01X123692Y5128D01*
G01X123167Y5410D02*
G01X123571Y5410D01*
G01X123959Y5816D02*
G01X124040Y5854D01*
G01X124162Y5976D01*
G01X124162Y5128D01*
G01X125194Y5775D02*
G01X125153Y5854D01*
G01X125072Y5935D01*
G01X124990Y5976D01*
G01X124828Y5976D01*
G01X124749Y5935D01*
G01X124668Y5854D01*
G01X124627Y5775D01*
G01X124587Y5654D01*
G01X124587Y5450D01*
G01X124627Y5331D01*
G01X124668Y5250D01*
G01X124749Y5168D01*
G01X124828Y5128D01*
G01X124990Y5128D01*
G01X125072Y5168D01*
G01X125153Y5250D01*
G01X125194Y5331D01*
G01X125783Y5976D02*
G01X125460Y5128D01*
G01X125783Y5976D02*
G01X126105Y5128D01*
G01X125580Y5410D02*
G01X125984Y5410D01*
G01X126413Y5775D02*
G01X126413Y5816D01*
G01X126453Y5895D01*
G01X126494Y5935D01*
G01X126575Y5976D01*
G01X126735Y5976D01*
G01X126817Y5935D01*
G01X126857Y5895D01*
G01X126898Y5816D01*
G01X126898Y5735D01*
G01X126857Y5654D01*
G01X126776Y5532D01*
G01X126372Y5128D01*
G01X126939Y5128D01*
G01X128130Y5976D02*
G01X128010Y5935D01*
G01X127929Y5816D01*
G01X127889Y5613D01*
G01X127889Y5491D01*
G01X127929Y5290D01*
G01X128010Y5168D01*
G01X128130Y5128D01*
G01X128211Y5128D01*
G01X128333Y5168D01*
G01X128414Y5290D01*
G01X128455Y5491D01*
G01X128455Y5613D01*
G01X128414Y5816D01*
G01X128333Y5935D01*
G01X128211Y5976D01*
G01X128130Y5976D01*
G01X146362Y5976D02*
G01X145958Y5128D01*
G01X145796Y5976D02*
G01X146362Y5976D01*
G01X148577Y5976D02*
G01X148457Y5935D01*
G01X148376Y5816D01*
G01X148336Y5613D01*
G01X148336Y5491D01*
G01X148376Y5290D01*
G01X148457Y5168D01*
G01X148577Y5128D01*
G01X148658Y5128D01*
G01X148780Y5168D01*
G01X148861Y5290D01*
G01X148902Y5491D01*
G01X148902Y5613D01*
G01X148861Y5816D01*
G01X148780Y5935D01*
G01X148658Y5976D01*
G01X148577Y5976D01*
G01X166809Y5976D02*
G01X166405Y5128D01*
G01X166243Y5976D02*
G01X166809Y5976D01*
G01X168501Y5775D02*
G01X168460Y5854D01*
G01X168379Y5935D01*
G01X168297Y5976D01*
G01X168135Y5976D01*
G01X168056Y5935D01*
G01X167975Y5854D01*
G01X167934Y5775D01*
G01X167894Y5654D01*
G01X167894Y5450D01*
G01X167934Y5331D01*
G01X167975Y5250D01*
G01X168056Y5168D01*
G01X168135Y5128D01*
G01X168297Y5128D01*
G01X168379Y5168D01*
G01X168460Y5250D01*
G01X168501Y5331D01*
G01X168767Y5976D02*
G01X168767Y5128D01*
G01X168767Y5976D02*
G01X169130Y5976D01*
G01X169252Y5935D01*
G01X169291Y5895D01*
G01X169331Y5816D01*
G01X169331Y5735D01*
G01X169291Y5654D01*
G01X169252Y5613D01*
G01X169130Y5572D01*
G01X168767Y5572D02*
G01X169130Y5572D01*
G01X169252Y5532D01*
G01X169291Y5491D01*
G01X169331Y5410D01*
G01X169331Y5290D01*
G01X169291Y5209D01*
G01X169252Y5168D01*
G01X169130Y5128D01*
G01X168767Y5128D01*
G01X169598Y5816D02*
G01X169679Y5854D01*
G01X169801Y5976D01*
G01X169801Y5128D01*
G01X170914Y5775D02*
G01X170873Y5854D01*
G01X170792Y5935D01*
G01X170710Y5976D01*
G01X170548Y5976D01*
G01X170469Y5935D01*
G01X170388Y5854D01*
G01X170347Y5775D01*
G01X170307Y5654D01*
G01X170307Y5450D01*
G01X170347Y5331D01*
G01X170388Y5250D01*
G01X170469Y5168D01*
G01X170548Y5128D01*
G01X170710Y5128D01*
G01X170792Y5168D01*
G01X170873Y5250D01*
G01X170914Y5331D01*
G01X171180Y5976D02*
G01X171180Y5128D01*
G01X171180Y5976D02*
G01X171543Y5976D01*
G01X171665Y5935D01*
G01X171704Y5895D01*
G01X171744Y5816D01*
G01X171744Y5735D01*
G01X171704Y5654D01*
G01X171665Y5613D01*
G01X171543Y5572D01*
G01X171180Y5572D02*
G01X171543Y5572D01*
G01X171665Y5532D01*
G01X171704Y5491D01*
G01X171744Y5410D01*
G01X171744Y5290D01*
G01X171704Y5209D01*
G01X171665Y5168D01*
G01X171543Y5128D01*
G01X171180Y5128D01*
G01X172051Y5775D02*
G01X172051Y5816D01*
G01X172092Y5895D01*
G01X172133Y5935D01*
G01X172214Y5976D01*
G01X172377Y5976D01*
G01X172455Y5935D01*
G01X172496Y5895D01*
G01X172537Y5816D01*
G01X172537Y5735D01*
G01X172496Y5654D01*
G01X172415Y5532D01*
G01X172011Y5128D01*
G01X172577Y5128D01*
G01X5941Y5775D02*
G01X5900Y5854D01*
G01X5819Y5935D01*
G01X5737Y5976D01*
G01X5575Y5976D01*
G01X5496Y5935D01*
G01X5415Y5854D01*
G01X5374Y5775D01*
G01X5334Y5654D01*
G01X5334Y5450D01*
G01X5374Y5331D01*
G01X5415Y5250D01*
G01X5496Y5168D01*
G01X5575Y5128D01*
G01X5737Y5128D01*
G01X5819Y5168D01*
G01X5900Y5250D01*
G01X5941Y5331D01*
G01X6530Y5976D02*
G01X6207Y5128D01*
G01X6530Y5976D02*
G01X6852Y5128D01*
G01X6327Y5410D02*
G01X6731Y5410D01*
G01X7119Y5816D02*
G01X7200Y5854D01*
G01X7322Y5976D01*
G01X7322Y5128D01*
G01X8354Y5775D02*
G01X8313Y5854D01*
G01X8232Y5935D01*
G01X8150Y5976D01*
G01X7988Y5976D01*
G01X7909Y5935D01*
G01X7828Y5854D01*
G01X7787Y5775D01*
G01X7747Y5654D01*
G01X7747Y5450D01*
G01X7787Y5331D01*
G01X7828Y5250D01*
G01X7909Y5168D01*
G01X7988Y5128D01*
G01X8150Y5128D01*
G01X8232Y5168D01*
G01X8313Y5250D01*
G01X8354Y5331D01*
G01X8943Y5976D02*
G01X8620Y5128D01*
G01X8943Y5976D02*
G01X9265Y5128D01*
G01X8740Y5410D02*
G01X9144Y5410D01*
G01X9573Y5775D02*
G01X9573Y5816D01*
G01X9613Y5895D01*
G01X9654Y5935D01*
G01X9735Y5976D01*
G01X9895Y5976D01*
G01X9977Y5935D01*
G01X10017Y5895D01*
G01X10058Y5816D01*
G01X10058Y5735D01*
G01X10017Y5654D01*
G01X9936Y5532D01*
G01X9532Y5128D01*
G01X10099Y5128D01*
G01X11290Y5976D02*
G01X11170Y5935D01*
G01X11089Y5816D01*
G01X11049Y5613D01*
G01X11049Y5491D01*
G01X11089Y5290D01*
G01X11170Y5168D01*
G01X11290Y5128D01*
G01X11371Y5128D01*
G01X11493Y5168D01*
G01X11574Y5290D01*
G01X11615Y5491D01*
G01X11615Y5613D01*
G01X11574Y5816D01*
G01X11493Y5935D01*
G01X11371Y5976D01*
G01X11290Y5976D01*
G01X29522Y5976D02*
G01X29118Y5128D01*
G01X28956Y5976D02*
G01X29522Y5976D01*
G01X31737Y5976D02*
G01X31617Y5935D01*
G01X31536Y5816D01*
G01X31496Y5613D01*
G01X31496Y5491D01*
G01X31536Y5290D01*
G01X31617Y5168D01*
G01X31737Y5128D01*
G01X31818Y5128D01*
G01X31940Y5168D01*
G01X32021Y5290D01*
G01X32062Y5491D01*
G01X32062Y5613D01*
G01X32021Y5816D01*
G01X31940Y5935D01*
G01X31818Y5976D01*
G01X31737Y5976D01*
G01X49969Y5976D02*
G01X49565Y5128D01*
G01X49403Y5976D02*
G01X49969Y5976D01*
G01X51661Y5775D02*
G01X51620Y5854D01*
G01X51539Y5935D01*
G01X51457Y5976D01*
G01X51295Y5976D01*
G01X51216Y5935D01*
G01X51135Y5854D01*
G01X51094Y5775D01*
G01X51054Y5654D01*
G01X51054Y5450D01*
G01X51094Y5331D01*
G01X51135Y5250D01*
G01X51216Y5168D01*
G01X51295Y5128D01*
G01X51457Y5128D01*
G01X51539Y5168D01*
G01X51620Y5250D01*
G01X51661Y5331D01*
G01X51927Y5976D02*
G01X51927Y5128D01*
G01X51927Y5976D02*
G01X52290Y5976D01*
G01X52412Y5935D01*
G01X52451Y5895D01*
G01X52491Y5816D01*
G01X52491Y5735D01*
G01X52451Y5654D01*
G01X52412Y5613D01*
G01X52290Y5572D01*
G01X51927Y5572D02*
G01X52290Y5572D01*
G01X52412Y5532D01*
G01X52451Y5491D01*
G01X52491Y5410D01*
G01X52491Y5290D01*
G01X52451Y5209D01*
G01X52412Y5168D01*
G01X52290Y5128D01*
G01X51927Y5128D01*
G01X52758Y5816D02*
G01X52839Y5854D01*
G01X52961Y5976D01*
G01X52961Y5128D01*
G01X54074Y5775D02*
G01X54033Y5854D01*
G01X53952Y5935D01*
G01X53870Y5976D01*
G01X53708Y5976D01*
G01X53629Y5935D01*
G01X53548Y5854D01*
G01X53507Y5775D01*
G01X53467Y5654D01*
G01X53467Y5450D01*
G01X53507Y5331D01*
G01X53548Y5250D01*
G01X53629Y5168D01*
G01X53708Y5128D01*
G01X53870Y5128D01*
G01X53952Y5168D01*
G01X54033Y5250D01*
G01X54074Y5331D01*
G01X54340Y5976D02*
G01X54340Y5128D01*
G01X54340Y5976D02*
G01X54703Y5976D01*
G01X54825Y5935D01*
G01X54864Y5895D01*
G01X54904Y5816D01*
G01X54904Y5735D01*
G01X54864Y5654D01*
G01X54825Y5613D01*
G01X54703Y5572D01*
G01X54340Y5572D02*
G01X54703Y5572D01*
G01X54825Y5532D01*
G01X54864Y5491D01*
G01X54904Y5410D01*
G01X54904Y5290D01*
G01X54864Y5209D01*
G01X54825Y5168D01*
G01X54703Y5128D01*
G01X54340Y5128D01*
G01X55211Y5775D02*
G01X55211Y5816D01*
G01X55252Y5895D01*
G01X55293Y5935D01*
G01X55374Y5976D01*
G01X55537Y5976D01*
G01X55615Y5935D01*
G01X55656Y5895D01*
G01X55697Y5816D01*
G01X55697Y5735D01*
G01X55656Y5654D01*
G01X55575Y5532D01*
G01X55171Y5128D01*
G01X55737Y5128D01*
G01X125341Y115951D02*
G01X126189Y115951D01*
G01X125341Y115951D02*
G01X125341Y116314D01*
G01X125382Y116436D01*
G01X125422Y116476D01*
G01X125501Y116517D01*
G01X125582Y116517D01*
G01X125663Y116476D01*
G01X125704Y116436D01*
G01X125745Y116314D01*
G01X125745Y115951D01*
G01X125745Y116232D02*
G01X126189Y116517D01*
G01X125341Y117066D02*
G01X126189Y117066D01*
G01X125341Y116784D02*
G01X125341Y117348D01*
G01X125463Y118181D02*
G01X125382Y118099D01*
G01X125341Y117980D01*
G01X125341Y117817D01*
G01X125382Y117695D01*
G01X125463Y117614D01*
G01X125542Y117614D01*
G01X125623Y117655D01*
G01X125663Y117695D01*
G01X125704Y117777D01*
G01X125785Y118021D01*
G01X125826Y118099D01*
G01X125867Y118140D01*
G01X125945Y118181D01*
G01X126067Y118181D01*
G01X126149Y118099D01*
G01X126189Y117980D01*
G01X126189Y117817D01*
G01X126149Y117695D01*
G01X126067Y117614D01*
G01X128082Y116558D02*
G01X128003Y116517D01*
G01X127922Y116436D01*
G01X127881Y116354D01*
G01X127881Y116192D01*
G01X127922Y116113D01*
G01X128003Y116032D01*
G01X128082Y115991D01*
G01X128203Y115951D01*
G01X128407Y115951D01*
G01X128526Y115991D01*
G01X128607Y116032D01*
G01X128689Y116113D01*
G01X128729Y116192D01*
G01X128729Y116354D01*
G01X128689Y116436D01*
G01X128607Y116517D01*
G01X128526Y116558D01*
G01X127881Y117106D02*
G01X128729Y117106D01*
G01X127881Y116824D02*
G01X127881Y117388D01*
G01X128003Y118221D02*
G01X127922Y118140D01*
G01X127881Y118021D01*
G01X127881Y117858D01*
G01X127922Y117736D01*
G01X128003Y117655D01*
G01X128082Y117655D01*
G01X128163Y117695D01*
G01X128203Y117736D01*
G01X128244Y117817D01*
G01X128325Y118059D01*
G01X128366Y118140D01*
G01X128407Y118181D01*
G01X128485Y118221D01*
G01X128607Y118221D01*
G01X128689Y118140D01*
G01X128729Y118021D01*
G01X128729Y117858D01*
G01X128689Y117736D01*
G01X128607Y117655D01*
G01X130421Y116232D02*
G01X131269Y116232D01*
G01X130421Y115951D02*
G01X130421Y116517D01*
G01X130421Y116784D02*
G01X131269Y117348D01*
G01X130421Y117348D02*
G01X131269Y116784D01*
G01X132834Y115951D02*
G01X133682Y115951D01*
G01X132834Y115951D02*
G01X132834Y116314D01*
G01X132875Y116436D01*
G01X132915Y116476D01*
G01X132994Y116517D01*
G01X133075Y116517D01*
G01X133156Y116476D01*
G01X133197Y116436D01*
G01X133238Y116314D01*
G01X133238Y115951D01*
G01X133238Y116232D02*
G01X133682Y116517D01*
G01X132834Y116784D02*
G01X133682Y117348D01*
G01X132834Y117348D02*
G01X133682Y116784D01*
G01X135702Y116558D02*
G01X135623Y116517D01*
G01X135542Y116436D01*
G01X135501Y116354D01*
G01X135501Y116192D01*
G01X135542Y116113D01*
G01X135623Y116032D01*
G01X135702Y115991D01*
G01X135823Y115951D01*
G01X136027Y115951D01*
G01X136146Y115991D01*
G01X136227Y116032D01*
G01X136309Y116113D01*
G01X136349Y116192D01*
G01X136349Y116354D01*
G01X136309Y116436D01*
G01X136227Y116517D01*
G01X136146Y116558D01*
G01X136027Y116558D01*
G01X136027Y116354D02*
G01X136027Y116558D01*
G01X135501Y116824D02*
G01X136349Y116824D01*
G01X135501Y116824D02*
G01X136349Y117388D01*
G01X135501Y117388D02*
G01X136349Y117388D01*
G01X135501Y117655D02*
G01X136349Y117655D01*
G01X135501Y117655D02*
G01X135501Y117939D01*
G01X135542Y118059D01*
G01X135623Y118140D01*
G01X135702Y118181D01*
G01X135823Y118221D01*
G01X136027Y118221D01*
G01X136146Y118181D01*
G01X136227Y118140D01*
G01X136309Y118059D01*
G01X136349Y117939D01*
G01X136349Y117655D01*
G01X122801Y115951D02*
G01X123649Y116273D01*
G01X122801Y116598D02*
G01X123649Y116273D01*
G01X123205Y117348D02*
G01X123123Y117269D01*
G01X123083Y117187D01*
G01X123083Y117066D01*
G01X123123Y116984D01*
G01X123205Y116903D01*
G01X123327Y116865D01*
G01X123405Y116865D01*
G01X123527Y116903D01*
G01X123609Y116984D01*
G01X123649Y117066D01*
G01X123649Y117187D01*
G01X123609Y117269D01*
G01X123527Y117348D01*
G01X123205Y118099D02*
G01X123123Y118021D01*
G01X123083Y117939D01*
G01X123083Y117817D01*
G01X123123Y117736D01*
G01X123205Y117655D01*
G01X123327Y117614D01*
G01X123405Y117614D01*
G01X123527Y117655D01*
G01X123609Y117736D01*
G01X123649Y117817D01*
G01X123649Y117939D01*
G01X123609Y118021D01*
G01X123527Y118099D01*
G54D35*
G01X2540Y90111D02*
G01X2540Y88966D01*
G01X2540Y89512D02*
G01X2702Y89674D01*
G01X2811Y89728D01*
G01X2976Y89728D01*
G01X3086Y89674D01*
G01X3139Y89512D01*
G01X3139Y88966D01*
G01X3662Y90111D02*
G01X3662Y89184D01*
G01X3718Y89019D01*
G01X3827Y88966D01*
G01X3937Y88966D01*
G01X3500Y89728D02*
G01X3881Y89728D01*
G01X4460Y90111D02*
G01X4460Y89184D01*
G01X4513Y89019D01*
G01X4622Y88966D01*
G01X4732Y88966D01*
G01X4295Y89728D02*
G01X4678Y89728D01*
G01X5092Y89728D02*
G01X5092Y88582D01*
G01X5092Y89565D02*
G01X5201Y89674D01*
G01X5311Y89728D01*
G01X5473Y89728D01*
G01X5582Y89674D01*
G01X5692Y89565D01*
G01X5748Y89402D01*
G01X5748Y89293D01*
G01X5692Y89128D01*
G01X5582Y89019D01*
G01X5473Y88966D01*
G01X5311Y88966D01*
G01X5201Y89019D01*
G01X5092Y89128D01*
G01X6708Y89565D02*
G01X6652Y89674D01*
G01X6489Y89728D01*
G01X6324Y89728D01*
G01X6162Y89674D01*
G01X6106Y89565D01*
G01X6162Y89456D01*
G01X6271Y89402D01*
G01X6543Y89347D01*
G01X6652Y89293D01*
G01X6708Y89184D01*
G01X6708Y89128D01*
G01X6652Y89019D01*
G01X6489Y88966D01*
G01X6324Y88966D01*
G01X6162Y89019D01*
G01X6106Y89128D01*
G01X7122Y89618D02*
G01X7066Y89565D01*
G01X7122Y89512D01*
G01X7175Y89565D01*
G01X7122Y89618D01*
G01X7122Y89237D02*
G01X7066Y89184D01*
G01X7122Y89128D01*
G01X7175Y89184D01*
G01X7122Y89237D01*
G01X8519Y90330D02*
G01X7536Y88582D01*
G01X9860Y90330D02*
G01X8877Y88582D01*
G01X10873Y89728D02*
G01X10873Y88856D01*
G01X10820Y88691D01*
G01X10764Y88638D01*
G01X10655Y88582D01*
G01X10492Y88582D01*
G01X10383Y88638D01*
G01X10873Y89565D02*
G01X10764Y89674D01*
G01X10655Y89728D01*
G01X10492Y89728D01*
G01X10383Y89674D01*
G01X10274Y89565D01*
G01X10220Y89402D01*
G01X10220Y89293D01*
G01X10274Y89128D01*
G01X10383Y89019D01*
G01X10492Y88966D01*
G01X10655Y88966D01*
G01X10764Y89019D01*
G01X10873Y89128D01*
G01X11234Y90111D02*
G01X11290Y90055D01*
G01X11343Y90111D01*
G01X11290Y90164D01*
G01X11234Y90111D01*
G01X11290Y89728D02*
G01X11290Y88966D01*
G01X11866Y90111D02*
G01X11866Y89184D01*
G01X11922Y89019D01*
G01X12031Y88966D01*
G01X12141Y88966D01*
G01X11704Y89728D02*
G01X12085Y89728D01*
G01X12499Y90111D02*
G01X12499Y88966D01*
G01X12499Y89512D02*
G01X12664Y89674D01*
G01X12773Y89728D01*
G01X12936Y89728D01*
G01X13045Y89674D01*
G01X13098Y89512D01*
G01X13098Y88966D01*
G01X13459Y89728D02*
G01X13459Y89184D01*
G01X13515Y89019D01*
G01X13624Y88966D01*
G01X13787Y88966D01*
G01X13896Y89019D01*
G01X14058Y89184D01*
G01X14058Y89728D02*
G01X14058Y88966D01*
G01X14419Y90111D02*
G01X14419Y88966D01*
G01X14419Y89565D02*
G01X14528Y89674D01*
G01X14638Y89728D01*
G01X14800Y89728D01*
G01X14909Y89674D01*
G01X15019Y89565D01*
G01X15074Y89402D01*
G01X15074Y89293D01*
G01X15019Y89128D01*
G01X14909Y89019D01*
G01X14800Y88966D01*
G01X14638Y88966D01*
G01X14528Y89019D01*
G01X14419Y89128D01*
G01X15488Y89237D02*
G01X15435Y89184D01*
G01X15488Y89128D01*
G01X15544Y89184D01*
G01X15488Y89237D01*
G01X16558Y89565D02*
G01X16449Y89674D01*
G01X16339Y89728D01*
G01X16177Y89728D01*
G01X16068Y89674D01*
G01X15958Y89565D01*
G01X15902Y89402D01*
G01X15902Y89293D01*
G01X15958Y89128D01*
G01X16068Y89019D01*
G01X16177Y88966D01*
G01X16339Y88966D01*
G01X16449Y89019D01*
G01X16558Y89128D01*
G01X17190Y89728D02*
G01X17081Y89674D01*
G01X16972Y89565D01*
G01X16918Y89402D01*
G01X16918Y89293D01*
G01X16972Y89128D01*
G01X17081Y89019D01*
G01X17190Y88966D01*
G01X17353Y88966D01*
G01X17462Y89019D01*
G01X17571Y89128D01*
G01X17627Y89293D01*
G01X17627Y89402D01*
G01X17571Y89565D01*
G01X17462Y89674D01*
G01X17353Y89728D01*
G01X17190Y89728D01*
G01X17988Y89728D02*
G01X17988Y88966D01*
G01X17988Y89512D02*
G01X18150Y89674D01*
G01X18260Y89728D01*
G01X18422Y89728D01*
G01X18531Y89674D01*
G01X18587Y89512D01*
G01X18587Y88966D01*
G01X18587Y89512D02*
G01X18750Y89674D01*
G01X18859Y89728D01*
G01X19024Y89728D01*
G01X19133Y89674D01*
G01X19187Y89512D01*
G01X19187Y88966D01*
G01X20528Y90330D02*
G01X19547Y88582D01*
G01X21107Y90111D02*
G01X21160Y90055D01*
G01X21216Y90111D01*
G01X21160Y90164D01*
G01X21107Y90111D01*
G01X21160Y89728D02*
G01X21160Y88800D01*
G01X21107Y88638D01*
G01X20998Y88582D01*
G01X20888Y88582D01*
G01X22230Y89565D02*
G01X22120Y89674D01*
G01X22011Y89728D01*
G01X21849Y89728D01*
G01X21739Y89674D01*
G01X21630Y89565D01*
G01X21577Y89402D01*
G01X21577Y89293D01*
G01X21630Y89128D01*
G01X21739Y89019D01*
G01X21849Y88966D01*
G01X22011Y88966D01*
G01X22120Y89019D01*
G01X22230Y89128D01*
G01X22862Y89728D02*
G01X22753Y89674D01*
G01X22646Y89565D01*
G01X22590Y89402D01*
G01X22590Y89293D01*
G01X22646Y89128D01*
G01X22753Y89019D01*
G01X22862Y88966D01*
G01X23027Y88966D01*
G01X23136Y89019D01*
G01X23246Y89128D01*
G01X23299Y89293D01*
G01X23299Y89402D01*
G01X23246Y89565D01*
G01X23136Y89674D01*
G01X23027Y89728D01*
G01X22862Y89728D01*
G01X23713Y89837D02*
G01X23713Y89893D01*
G01X23769Y90002D01*
G01X23822Y90055D01*
G01X23931Y90111D01*
G01X24150Y90111D01*
G01X24259Y90055D01*
G01X24315Y90002D01*
G01X24368Y89893D01*
G01X24368Y89783D01*
G01X24315Y89674D01*
G01X24206Y89512D01*
G01X23660Y88966D01*
G01X24424Y88966D01*
G01X25438Y89946D02*
G01X25384Y90055D01*
G01X25219Y90111D01*
G01X25110Y90111D01*
G01X24947Y90055D01*
G01X24838Y89893D01*
G01X24782Y89618D01*
G01X24782Y89347D01*
G01X24838Y89128D01*
G01X24947Y89019D01*
G01X25110Y88966D01*
G01X25166Y88966D01*
G01X25328Y89019D01*
G01X25438Y89128D01*
G01X25493Y89293D01*
G01X25493Y89347D01*
G01X25438Y89512D01*
G01X25328Y89618D01*
G01X25166Y89674D01*
G01X25110Y89674D01*
G01X24947Y89618D01*
G01X24838Y89512D01*
G01X24782Y89347D01*
G01X26398Y90111D02*
G01X25852Y89347D01*
G01X26670Y89347D01*
G01X26398Y90111D02*
G01X26398Y88966D01*
G01X27030Y89893D02*
G01X27139Y89946D01*
G01X27302Y90111D01*
G01X27302Y88966D01*
G01X28646Y90330D02*
G01X27663Y88582D01*
G01X29606Y89565D02*
G01X29550Y89674D01*
G01X29387Y89728D01*
G01X29222Y89728D01*
G01X29060Y89674D01*
G01X29004Y89565D01*
G01X29060Y89456D01*
G01X29169Y89402D01*
G01X29441Y89347D01*
G01X29550Y89293D01*
G01X29606Y89184D01*
G01X29606Y89128D01*
G01X29550Y89019D01*
G01X29387Y88966D01*
G01X29222Y88966D01*
G01X29060Y89019D01*
G01X29004Y89128D01*
G01X29964Y90111D02*
G01X29964Y88966D01*
G01X29964Y89565D02*
G01X30073Y89674D01*
G01X30182Y89728D01*
G01X30347Y89728D01*
G01X30457Y89674D01*
G01X30566Y89565D01*
G01X30619Y89402D01*
G01X30619Y89293D01*
G01X30566Y89128D01*
G01X30457Y89019D01*
G01X30347Y88966D01*
G01X30182Y88966D01*
G01X30073Y89019D01*
G01X29964Y89128D01*
G01X31635Y89565D02*
G01X31526Y89674D01*
G01X31417Y89728D01*
G01X31252Y89728D01*
G01X31142Y89674D01*
G01X31033Y89565D01*
G01X30980Y89402D01*
G01X30980Y89293D01*
G01X31033Y89128D01*
G01X31142Y89019D01*
G01X31252Y88966D01*
G01X31417Y88966D01*
G01X31526Y89019D01*
G01X31635Y89128D01*
G01X32649Y89946D02*
G01X32593Y90055D01*
G01X32430Y90111D01*
G01X32321Y90111D01*
G01X32158Y90055D01*
G01X32049Y89893D01*
G01X31993Y89618D01*
G01X31993Y89347D01*
G01X32049Y89128D01*
G01X32158Y89019D01*
G01X32321Y88966D01*
G01X32377Y88966D01*
G01X32539Y89019D01*
G01X32649Y89128D01*
G01X32702Y89293D01*
G01X32702Y89347D01*
G01X32649Y89512D01*
G01X32539Y89618D01*
G01X32377Y89674D01*
G01X32321Y89674D01*
G01X32158Y89618D01*
G01X32049Y89512D01*
G01X31993Y89347D01*
G01X33718Y90111D02*
G01X33172Y90111D01*
G01X33119Y89618D01*
G01X33172Y89674D01*
G01X33337Y89728D01*
G01X33500Y89728D01*
G01X33662Y89674D01*
G01X33771Y89565D01*
G01X33827Y89402D01*
G01X33827Y89293D01*
G01X33771Y89128D01*
G01X33662Y89019D01*
G01X33500Y88966D01*
G01X33337Y88966D01*
G01X33172Y89019D01*
G01X33119Y89075D01*
G01X33063Y89184D01*
G01X34513Y90111D02*
G01X34350Y90055D01*
G01X34241Y89893D01*
G01X34188Y89618D01*
G01X34188Y89456D01*
G01X34241Y89184D01*
G01X34350Y89019D01*
G01X34513Y88966D01*
G01X34622Y88966D01*
G01X34787Y89019D01*
G01X34897Y89184D01*
G01X34950Y89456D01*
G01X34950Y89618D01*
G01X34897Y89893D01*
G01X34787Y90055D01*
G01X34622Y90111D01*
G01X34513Y90111D01*
G01X35364Y89837D02*
G01X35364Y89893D01*
G01X35420Y90002D01*
G01X35473Y90055D01*
G01X35582Y90111D01*
G01X35801Y90111D01*
G01X35910Y90055D01*
G01X35966Y90002D01*
G01X36019Y89893D01*
G01X36019Y89783D01*
G01X35966Y89674D01*
G01X35857Y89512D01*
G01X35311Y88966D01*
G01X36075Y88966D01*
G01X2540Y91635D02*
G01X2540Y90490D01*
G01X2540Y91635D02*
G01X3030Y91635D01*
G01X3195Y91579D01*
G01X3248Y91526D01*
G01X3304Y91417D01*
G01X3304Y91307D01*
G01X3248Y91198D01*
G01X3195Y91142D01*
G01X3030Y91089D01*
G01X2540Y91089D01*
G01X2921Y91089D02*
G01X3304Y90490D01*
G01X3662Y90926D02*
G01X4318Y90926D01*
G01X4318Y91036D01*
G01X4264Y91142D01*
G01X4208Y91198D01*
G01X4099Y91252D01*
G01X3937Y91252D01*
G01X3827Y91198D01*
G01X3718Y91089D01*
G01X3662Y90926D01*
G01X3662Y90817D01*
G01X3718Y90652D01*
G01X3827Y90543D01*
G01X3937Y90490D01*
G01X4099Y90490D01*
G01X4208Y90543D01*
G01X4318Y90652D01*
G01X4678Y91252D02*
G01X5006Y90490D01*
G01X5331Y91252D02*
G01X5006Y90490D01*
G01X6532Y91417D02*
G01X6642Y91470D01*
G01X6804Y91635D01*
G01X6804Y90490D01*
G01X7221Y90761D02*
G01X7165Y90708D01*
G01X7221Y90652D01*
G01X7274Y90708D01*
G01X7221Y90761D01*
G01X7635Y91417D02*
G01X7744Y91470D01*
G01X7907Y91635D01*
G01X7907Y90490D01*
G54D34*
G01X41910Y99448D02*
G01X41910Y98600D01*
G01X42176Y99448D02*
G01X42176Y98600D01*
G01X42176Y99448D02*
G01X42743Y98600D01*
G01X42743Y99448D02*
G01X42743Y98600D01*
G01X30977Y70485D02*
G01X32067Y70485D01*
G01X30977Y70485D02*
G01X30977Y70952D01*
G01X31028Y71107D01*
G01X31081Y71160D01*
G01X31186Y71211D01*
G01X31290Y71211D01*
G01X31394Y71160D01*
G01X31445Y71107D01*
G01X31496Y70952D01*
G01X31496Y70485D01*
G01X31496Y70848D02*
G01X32067Y71211D01*
G01X30977Y72283D02*
G01X32067Y71762D01*
G01X30977Y71554D02*
G01X30977Y72283D01*
G01X23484Y70485D02*
G01X24574Y70485D01*
G01X23484Y70485D02*
G01X23484Y70952D01*
G01X23535Y71107D01*
G01X23588Y71160D01*
G01X23693Y71211D01*
G01X23797Y71211D01*
G01X23901Y71160D01*
G01X23952Y71107D01*
G01X24003Y70952D01*
G01X24003Y70485D01*
G01X24003Y70848D02*
G01X24574Y71211D01*
G01X23743Y71607D02*
G01X23693Y71607D01*
G01X23588Y71658D01*
G01X23535Y71711D01*
G01X23484Y71815D01*
G01X23484Y72021D01*
G01X23535Y72125D01*
G01X23588Y72179D01*
G01X23693Y72229D01*
G01X23797Y72229D01*
G01X23901Y72179D01*
G01X24056Y72075D01*
G01X24574Y71554D01*
G01X24574Y72283D01*
G01X116113Y117485D02*
G01X115697Y116395D01*
G01X116113Y117485D02*
G01X116527Y116395D01*
G01X115851Y116758D02*
G01X116372Y116758D01*
G01X117650Y117226D02*
G01X117599Y117330D01*
G01X117495Y117434D01*
G01X117391Y117485D01*
G01X117182Y117485D01*
G01X117078Y117434D01*
G01X116974Y117330D01*
G01X116923Y117226D01*
G01X116870Y117068D01*
G01X116870Y116809D01*
G01X116923Y116654D01*
G01X116974Y116550D01*
G01X117078Y116446D01*
G01X117182Y116395D01*
G01X117391Y116395D01*
G01X117495Y116446D01*
G01X117599Y116550D01*
G01X117650Y116654D01*
G01X117993Y117485D02*
G01X117993Y116395D01*
G01X118752Y117485D02*
G01X118336Y116395D01*
G01X118752Y117485D02*
G01X119166Y116395D01*
G01X118491Y116758D02*
G01X119011Y116758D01*
G01X83947Y117485D02*
G01X83947Y116705D01*
G01X83997Y116550D01*
G01X84101Y116446D01*
G01X84259Y116395D01*
G01X84363Y116395D01*
G01X84518Y116446D01*
G01X84622Y116550D01*
G01X84673Y116705D01*
G01X84673Y117485D01*
G01X85745Y117485D02*
G01X85224Y116395D01*
G01X85016Y117485D02*
G01X85745Y117485D01*
G01X40513Y5979D02*
G01X40513Y4889D01*
G01X40513Y5979D02*
G01X40980Y5979D01*
G01X41135Y5928D01*
G01X41188Y5875D01*
G01X41239Y5770D01*
G01X41239Y5615D01*
G01X41188Y5511D01*
G01X41135Y5461D01*
G01X40980Y5407D01*
G01X40513Y5407D01*
G01X41894Y5979D02*
G01X41790Y5928D01*
G01X41686Y5824D01*
G01X41635Y5720D01*
G01X41582Y5562D01*
G01X41582Y5303D01*
G01X41635Y5148D01*
G01X41686Y5044D01*
G01X41790Y4940D01*
G01X41894Y4889D01*
G01X42103Y4889D01*
G01X42207Y4940D01*
G01X42311Y5044D01*
G01X42362Y5148D01*
G01X42415Y5303D01*
G01X42415Y5562D01*
G01X42362Y5720D01*
G01X42311Y5824D01*
G01X42207Y5928D01*
G01X42103Y5979D01*
G01X41894Y5979D01*
G01X42758Y5979D02*
G01X42758Y4889D01*
G01X42758Y5979D02*
G01X43225Y5979D01*
G01X43380Y5928D01*
G01X43434Y5875D01*
G01X43484Y5770D01*
G01X43484Y5666D01*
G01X43434Y5562D01*
G01X43380Y5511D01*
G01X43225Y5461D01*
G01X42758Y5461D01*
G01X43121Y5461D02*
G01X43484Y4889D01*
G01X44190Y5979D02*
G01X44190Y4889D01*
G01X43827Y5979D02*
G01X44554Y5979D01*
G01X45697Y5979D02*
G01X45697Y4889D01*
G01X45697Y5979D02*
G01X46164Y5979D01*
G01X46321Y5928D01*
G01X46372Y5875D01*
G01X46426Y5770D01*
G01X46426Y5666D01*
G01X46372Y5562D01*
G01X46321Y5511D01*
G01X46164Y5461D01*
G01X45697Y5461D02*
G01X46164Y5461D01*
G01X46321Y5407D01*
G01X46372Y5356D01*
G01X46426Y5252D01*
G01X46426Y5095D01*
G01X46372Y4991D01*
G01X46321Y4940D01*
G01X46164Y4889D01*
G01X45697Y4889D01*
G01X14986Y5979D02*
G01X14986Y4889D01*
G01X14986Y5979D02*
G01X15453Y5979D01*
G01X15608Y5928D01*
G01X15661Y5875D01*
G01X15712Y5770D01*
G01X15712Y5615D01*
G01X15661Y5511D01*
G01X15608Y5461D01*
G01X15453Y5407D01*
G01X14986Y5407D01*
G01X16367Y5979D02*
G01X16263Y5928D01*
G01X16159Y5824D01*
G01X16108Y5720D01*
G01X16055Y5562D01*
G01X16055Y5303D01*
G01X16108Y5148D01*
G01X16159Y5044D01*
G01X16263Y4940D01*
G01X16367Y4889D01*
G01X16576Y4889D01*
G01X16680Y4940D01*
G01X16784Y5044D01*
G01X16835Y5148D01*
G01X16888Y5303D01*
G01X16888Y5562D01*
G01X16835Y5720D01*
G01X16784Y5824D01*
G01X16680Y5928D01*
G01X16576Y5979D01*
G01X16367Y5979D01*
G01X17231Y5979D02*
G01X17231Y4889D01*
G01X17231Y5979D02*
G01X17698Y5979D01*
G01X17853Y5928D01*
G01X17907Y5875D01*
G01X17957Y5770D01*
G01X17957Y5666D01*
G01X17907Y5562D01*
G01X17853Y5511D01*
G01X17698Y5461D01*
G01X17231Y5461D01*
G01X17594Y5461D02*
G01X17957Y4889D01*
G01X18663Y5979D02*
G01X18663Y4889D01*
G01X18300Y5979D02*
G01X19027Y5979D01*
G01X20586Y5979D02*
G01X20170Y4889D01*
G01X20586Y5979D02*
G01X21003Y4889D01*
G01X20327Y5252D02*
G01X20845Y5252D01*
G01X131953Y5979D02*
G01X131953Y4889D01*
G01X131953Y5979D02*
G01X132420Y5979D01*
G01X132575Y5928D01*
G01X132628Y5875D01*
G01X132679Y5770D01*
G01X132679Y5615D01*
G01X132628Y5511D01*
G01X132575Y5461D01*
G01X132420Y5407D01*
G01X131953Y5407D01*
G01X133334Y5979D02*
G01X133230Y5928D01*
G01X133126Y5824D01*
G01X133075Y5720D01*
G01X133022Y5562D01*
G01X133022Y5303D01*
G01X133075Y5148D01*
G01X133126Y5044D01*
G01X133230Y4940D01*
G01X133334Y4889D01*
G01X133543Y4889D01*
G01X133647Y4940D01*
G01X133751Y5044D01*
G01X133802Y5148D01*
G01X133855Y5303D01*
G01X133855Y5562D01*
G01X133802Y5720D01*
G01X133751Y5824D01*
G01X133647Y5928D01*
G01X133543Y5979D01*
G01X133334Y5979D01*
G01X134198Y5979D02*
G01X134198Y4889D01*
G01X134198Y5979D02*
G01X134665Y5979D01*
G01X134820Y5928D01*
G01X134874Y5875D01*
G01X134924Y5770D01*
G01X134924Y5666D01*
G01X134874Y5562D01*
G01X134820Y5511D01*
G01X134665Y5461D01*
G01X134198Y5461D01*
G01X134561Y5461D02*
G01X134924Y4889D01*
G01X135630Y5979D02*
G01X135630Y4889D01*
G01X135267Y5979D02*
G01X135994Y5979D01*
G01X137553Y5979D02*
G01X137137Y4889D01*
G01X137553Y5979D02*
G01X137970Y4889D01*
G01X137294Y5252D02*
G01X137812Y5252D01*
G01X157226Y5979D02*
G01X157226Y4889D01*
G01X157226Y5979D02*
G01X157693Y5979D01*
G01X157848Y5928D01*
G01X157901Y5875D01*
G01X157952Y5770D01*
G01X157952Y5615D01*
G01X157901Y5511D01*
G01X157848Y5461D01*
G01X157693Y5407D01*
G01X157226Y5407D01*
G01X158607Y5979D02*
G01X158503Y5928D01*
G01X158399Y5824D01*
G01X158348Y5720D01*
G01X158295Y5562D01*
G01X158295Y5303D01*
G01X158348Y5148D01*
G01X158399Y5044D01*
G01X158503Y4940D01*
G01X158607Y4889D01*
G01X158816Y4889D01*
G01X158920Y4940D01*
G01X159024Y5044D01*
G01X159075Y5148D01*
G01X159128Y5303D01*
G01X159128Y5562D01*
G01X159075Y5720D01*
G01X159024Y5824D01*
G01X158920Y5928D01*
G01X158816Y5979D01*
G01X158607Y5979D01*
G01X159471Y5979D02*
G01X159471Y4889D01*
G01X159471Y5979D02*
G01X159938Y5979D01*
G01X160093Y5928D01*
G01X160147Y5875D01*
G01X160197Y5770D01*
G01X160197Y5666D01*
G01X160147Y5562D01*
G01X160093Y5511D01*
G01X159938Y5461D01*
G01X159471Y5461D01*
G01X159834Y5461D02*
G01X160197Y4889D01*
G01X160903Y5979D02*
G01X160903Y4889D01*
G01X160540Y5979D02*
G01X161267Y5979D01*
G01X162410Y5979D02*
G01X162410Y4889D01*
G01X162410Y5979D02*
G01X162877Y5979D01*
G01X163034Y5928D01*
G01X163085Y5875D01*
G01X163139Y5770D01*
G01X163139Y5666D01*
G01X163085Y5562D01*
G01X163034Y5511D01*
G01X162877Y5461D01*
G01X162410Y5461D02*
G01X162877Y5461D01*
G01X163034Y5407D01*
G01X163085Y5356D01*
G01X163139Y5252D01*
G01X163139Y5095D01*
G01X163085Y4991D01*
G01X163034Y4940D01*
G01X162877Y4889D01*
G01X162410Y4889D01*
G01X36339Y80015D02*
G01X36286Y80119D01*
G01X36182Y80223D01*
G01X36080Y80274D01*
G01X35872Y80274D01*
G01X35768Y80223D01*
G01X35664Y80119D01*
G01X35610Y80015D01*
G01X35560Y79857D01*
G01X35560Y79598D01*
G01X35610Y79443D01*
G01X35664Y79339D01*
G01X35768Y79235D01*
G01X35872Y79184D01*
G01X36080Y79184D01*
G01X36182Y79235D01*
G01X36286Y79339D01*
G01X36339Y79443D01*
G01X36339Y79598D01*
G01X36080Y79598D02*
G01X36339Y79598D01*
G01X37096Y80274D02*
G01X36682Y79184D01*
G01X37096Y80274D02*
G01X37513Y79184D01*
G01X36837Y79547D02*
G01X37358Y79547D01*
G01X37856Y80274D02*
G01X37856Y79184D01*
G01X37856Y79184D02*
G01X38481Y79184D01*
G01X38874Y80015D02*
G01X38874Y80065D01*
G01X38925Y80170D01*
G01X38978Y80223D01*
G01X39082Y80274D01*
G01X39291Y80274D01*
G01X39395Y80223D01*
G01X39446Y80170D01*
G01X39497Y80065D01*
G01X39497Y79961D01*
G01X39446Y79857D01*
G01X39342Y79702D01*
G01X38823Y79184D01*
G01X39550Y79184D01*
G01X39944Y80015D02*
G01X39944Y80065D01*
G01X39997Y80170D01*
G01X40048Y80223D01*
G01X40152Y80274D01*
G01X40360Y80274D01*
G01X40464Y80223D01*
G01X40515Y80170D01*
G01X40568Y80065D01*
G01X40568Y79961D01*
G01X40515Y79857D01*
G01X40411Y79702D01*
G01X39893Y79184D01*
G01X40619Y79184D01*
G01X40962Y80274D02*
G01X41379Y79184D01*
G01X41795Y80274D02*
G01X41379Y79184D01*
G01X42138Y80065D02*
G01X42240Y80119D01*
G01X42397Y80274D01*
G01X42397Y79184D01*
G01X43053Y80274D02*
G01X42895Y80223D01*
G01X42791Y80065D01*
G01X42740Y79806D01*
G01X42740Y79651D01*
G01X42791Y79390D01*
G01X42895Y79235D01*
G01X43053Y79184D01*
G01X43154Y79184D01*
G01X43312Y79235D01*
G01X43416Y79390D01*
G01X43467Y79651D01*
G01X43467Y79806D01*
G01X43416Y80065D01*
G01X43312Y80223D01*
G01X43154Y80274D01*
G01X43053Y80274D01*
G01X33147Y80274D02*
G01X33147Y79494D01*
G01X33197Y79339D01*
G01X33301Y79235D01*
G01X33459Y79184D01*
G01X33563Y79184D01*
G01X33718Y79235D01*
G01X33822Y79339D01*
G01X33873Y79494D01*
G01X33873Y80274D01*
G01X34737Y80274D02*
G01X34216Y79547D01*
G01X34996Y79547D01*
G01X34737Y80274D02*
G01X34737Y79184D01*
G01X17871Y73924D02*
G01X17353Y72834D01*
G01X17145Y73924D02*
G01X17871Y73924D01*
G01X18735Y73924D02*
G01X18214Y73197D01*
G01X18994Y73197D01*
G01X18735Y73924D02*
G01X18735Y72834D01*
G01X19337Y73924D02*
G01X19337Y72834D01*
G01X20066Y73924D02*
G01X20066Y72834D01*
G01X19337Y73406D02*
G01X20066Y73406D01*
G01X21186Y73665D02*
G01X21135Y73769D01*
G01X21031Y73873D01*
G01X20927Y73924D01*
G01X20718Y73924D01*
G01X20614Y73873D01*
G01X20510Y73769D01*
G01X20459Y73665D01*
G01X20408Y73507D01*
G01X20408Y73248D01*
G01X20459Y73093D01*
G01X20510Y72989D01*
G01X20614Y72885D01*
G01X20718Y72834D01*
G01X20927Y72834D01*
G01X21031Y72885D01*
G01X21135Y72989D01*
G01X21186Y73093D01*
G01X21582Y73665D02*
G01X21582Y73715D01*
G01X21633Y73820D01*
G01X21686Y73873D01*
G01X21790Y73924D01*
G01X21996Y73924D01*
G01X22100Y73873D01*
G01X22153Y73820D01*
G01X22204Y73715D01*
G01X22204Y73611D01*
G01X22153Y73507D01*
G01X22049Y73352D01*
G01X21529Y72834D01*
G01X22258Y72834D01*
G01X22600Y73715D02*
G01X22705Y73769D01*
G01X22860Y73924D01*
G01X22860Y72834D01*
G01X12573Y74051D02*
G01X12573Y73271D01*
G01X12623Y73116D01*
G01X12727Y73012D01*
G01X12885Y72961D01*
G01X12989Y72961D01*
G01X13144Y73012D01*
G01X13248Y73116D01*
G01X13299Y73271D01*
G01X13299Y74051D01*
G01X14267Y74051D02*
G01X13746Y74051D01*
G01X13695Y73583D01*
G01X13746Y73634D01*
G01X13903Y73687D01*
G01X14058Y73687D01*
G01X14213Y73634D01*
G01X14317Y73533D01*
G01X14371Y73375D01*
G01X14371Y73271D01*
G01X14317Y73116D01*
G01X14213Y73012D01*
G01X14058Y72961D01*
G01X13903Y72961D01*
G01X13746Y73012D01*
G01X13695Y73063D01*
G01X13642Y73167D01*
G01X168910Y30998D02*
G01X169169Y29908D01*
G01X169430Y30998D02*
G01X169169Y29908D01*
G01X169430Y30998D02*
G01X169689Y29908D01*
G01X169948Y30998D02*
G01X169689Y29908D01*
G01X170916Y30843D02*
G01X170863Y30947D01*
G01X170708Y30998D01*
G01X170604Y30998D01*
G01X170446Y30947D01*
G01X170345Y30789D01*
G01X170291Y30530D01*
G01X170291Y30271D01*
G01X170345Y30063D01*
G01X170446Y29959D01*
G01X170604Y29908D01*
G01X170654Y29908D01*
G01X170812Y29959D01*
G01X170916Y30063D01*
G01X170967Y30218D01*
G01X170967Y30271D01*
G01X170916Y30426D01*
G01X170812Y30530D01*
G01X170654Y30581D01*
G01X170604Y30581D01*
G01X170446Y30530D01*
G01X170345Y30426D01*
G01X170291Y30271D01*
G01X171932Y30998D02*
G01X171414Y30998D01*
G01X171361Y30530D01*
G01X171414Y30581D01*
G01X171569Y30634D01*
G01X171726Y30634D01*
G01X171881Y30581D01*
G01X171985Y30480D01*
G01X172036Y30322D01*
G01X172036Y30218D01*
G01X171985Y30063D01*
G01X171881Y29959D01*
G01X171726Y29908D01*
G01X171569Y29908D01*
G01X171414Y29959D01*
G01X171361Y30010D01*
G01X171310Y30114D01*
G01X173159Y30739D02*
G01X173108Y30843D01*
G01X173004Y30947D01*
G01X172900Y30998D01*
G01X172692Y30998D01*
G01X172587Y30947D01*
G01X172483Y30843D01*
G01X172432Y30739D01*
G01X172379Y30581D01*
G01X172379Y30322D01*
G01X172432Y30167D01*
G01X172483Y30063D01*
G01X172587Y29959D01*
G01X172692Y29908D01*
G01X172900Y29908D01*
G01X173004Y29959D01*
G01X173108Y30063D01*
G01X173159Y30167D01*
G01X173555Y30739D02*
G01X173555Y30789D01*
G01X173606Y30894D01*
G01X173659Y30947D01*
G01X173761Y30998D01*
G01X173969Y30998D01*
G01X174073Y30947D01*
G01X174127Y30894D01*
G01X174177Y30789D01*
G01X174177Y30685D01*
G01X174127Y30581D01*
G01X174023Y30426D01*
G01X173502Y29908D01*
G01X174231Y29908D01*
G01X174625Y30739D02*
G01X174625Y30789D01*
G01X174675Y30894D01*
G01X174729Y30947D01*
G01X174833Y30998D01*
G01X175041Y30998D01*
G01X175145Y30947D01*
G01X175196Y30894D01*
G01X175247Y30789D01*
G01X175247Y30685D01*
G01X175196Y30581D01*
G01X175092Y30426D01*
G01X174574Y29908D01*
G01X175300Y29908D01*
G01X124714Y31125D02*
G01X124714Y30345D01*
G01X124764Y30190D01*
G01X124868Y30086D01*
G01X125026Y30035D01*
G01X125130Y30035D01*
G01X125285Y30086D01*
G01X125389Y30190D01*
G01X125440Y30345D01*
G01X125440Y31125D01*
G01X125783Y30916D02*
G01X125887Y30970D01*
G01X126044Y31125D01*
G01X126044Y30035D01*
G01X126697Y31125D02*
G01X126542Y31074D01*
G01X126438Y30916D01*
G01X126387Y30657D01*
G01X126387Y30502D01*
G01X126438Y30241D01*
G01X126542Y30086D01*
G01X126697Y30035D01*
G01X126801Y30035D01*
G01X126959Y30086D01*
G01X127063Y30241D01*
G01X127114Y30502D01*
G01X127114Y30657D01*
G01X127063Y30916D01*
G01X126959Y31074D01*
G01X126801Y31125D01*
G01X126697Y31125D01*
G01X52070Y30998D02*
G01X52329Y29908D01*
G01X52590Y30998D02*
G01X52329Y29908D01*
G01X52590Y30998D02*
G01X52849Y29908D01*
G01X53108Y30998D02*
G01X52849Y29908D01*
G01X54076Y30843D02*
G01X54023Y30947D01*
G01X53868Y30998D01*
G01X53764Y30998D01*
G01X53606Y30947D01*
G01X53505Y30789D01*
G01X53451Y30530D01*
G01X53451Y30271D01*
G01X53505Y30063D01*
G01X53606Y29959D01*
G01X53764Y29908D01*
G01X53814Y29908D01*
G01X53972Y29959D01*
G01X54076Y30063D01*
G01X54127Y30218D01*
G01X54127Y30271D01*
G01X54076Y30426D01*
G01X53972Y30530D01*
G01X53814Y30581D01*
G01X53764Y30581D01*
G01X53606Y30530D01*
G01X53505Y30426D01*
G01X53451Y30271D01*
G01X55092Y30998D02*
G01X54574Y30998D01*
G01X54521Y30530D01*
G01X54574Y30581D01*
G01X54729Y30634D01*
G01X54886Y30634D01*
G01X55041Y30581D01*
G01X55145Y30480D01*
G01X55196Y30322D01*
G01X55196Y30218D01*
G01X55145Y30063D01*
G01X55041Y29959D01*
G01X54886Y29908D01*
G01X54729Y29908D01*
G01X54574Y29959D01*
G01X54521Y30010D01*
G01X54470Y30114D01*
G01X56319Y30739D02*
G01X56268Y30843D01*
G01X56164Y30947D01*
G01X56060Y30998D01*
G01X55852Y30998D01*
G01X55747Y30947D01*
G01X55643Y30843D01*
G01X55592Y30739D01*
G01X55539Y30581D01*
G01X55539Y30322D01*
G01X55592Y30167D01*
G01X55643Y30063D01*
G01X55747Y29959D01*
G01X55852Y29908D01*
G01X56060Y29908D01*
G01X56164Y29959D01*
G01X56268Y30063D01*
G01X56319Y30167D01*
G01X56715Y30739D02*
G01X56715Y30789D01*
G01X56766Y30894D01*
G01X56819Y30947D01*
G01X56921Y30998D01*
G01X57129Y30998D01*
G01X57233Y30947D01*
G01X57287Y30894D01*
G01X57337Y30789D01*
G01X57337Y30685D01*
G01X57287Y30581D01*
G01X57183Y30426D01*
G01X56662Y29908D01*
G01X57391Y29908D01*
G01X57785Y30739D02*
G01X57785Y30789D01*
G01X57835Y30894D01*
G01X57889Y30947D01*
G01X57993Y30998D01*
G01X58201Y30998D01*
G01X58305Y30947D01*
G01X58356Y30894D01*
G01X58407Y30789D01*
G01X58407Y30685D01*
G01X58356Y30581D01*
G01X58252Y30426D01*
G01X57734Y29908D01*
G01X58460Y29908D01*
G01X7874Y31125D02*
G01X7874Y30345D01*
G01X7924Y30190D01*
G01X8028Y30086D01*
G01X8186Y30035D01*
G01X8290Y30035D01*
G01X8445Y30086D01*
G01X8549Y30190D01*
G01X8600Y30345D01*
G01X8600Y31125D01*
G01X9618Y30761D02*
G01X9568Y30607D01*
G01X9464Y30502D01*
G01X9309Y30449D01*
G01X9255Y30449D01*
G01X9100Y30502D01*
G01X8996Y30607D01*
G01X8943Y30761D01*
G01X8943Y30812D01*
G01X8996Y30970D01*
G01X9100Y31074D01*
G01X9255Y31125D01*
G01X9309Y31125D01*
G01X9464Y31074D01*
G01X9568Y30970D01*
G01X9618Y30761D01*
G01X9618Y30502D01*
G01X9568Y30241D01*
G01X9464Y30086D01*
G01X9309Y30035D01*
G01X9204Y30035D01*
G01X9047Y30086D01*
G01X8996Y30190D01*
G01X68059Y90279D02*
G01X68008Y90383D01*
G01X67853Y90434D01*
G01X67749Y90434D01*
G01X67591Y90383D01*
G01X67487Y90225D01*
G01X67437Y89966D01*
G01X67437Y89707D01*
G01X67487Y89499D01*
G01X67591Y89395D01*
G01X67749Y89344D01*
G01X67800Y89344D01*
G01X67957Y89395D01*
G01X68059Y89499D01*
G01X68112Y89654D01*
G01X68112Y89707D01*
G01X68059Y89862D01*
G01X67957Y89966D01*
G01X67800Y90017D01*
G01X67749Y90017D01*
G01X67591Y89966D01*
G01X67487Y89862D01*
G01X67437Y89707D01*
G01X69077Y90434D02*
G01X68559Y90434D01*
G01X68506Y89966D01*
G01X68559Y90017D01*
G01X68714Y90070D01*
G01X68872Y90070D01*
G01X69027Y90017D01*
G01X69131Y89916D01*
G01X69181Y89758D01*
G01X69181Y89654D01*
G01X69131Y89499D01*
G01X69027Y89395D01*
G01X68872Y89344D01*
G01X68714Y89344D01*
G01X68559Y89395D01*
G01X68506Y89446D01*
G01X68455Y89550D01*
G01X70304Y90175D02*
G01X70253Y90279D01*
G01X70149Y90383D01*
G01X70045Y90434D01*
G01X69837Y90434D01*
G01X69733Y90383D01*
G01X69629Y90279D01*
G01X69578Y90175D01*
G01X69524Y90017D01*
G01X69524Y89758D01*
G01X69578Y89603D01*
G01X69629Y89499D01*
G01X69733Y89395D01*
G01X69837Y89344D01*
G01X70045Y89344D01*
G01X70149Y89395D01*
G01X70253Y89499D01*
G01X70304Y89603D01*
G01X70959Y90434D02*
G01X70802Y90383D01*
G01X70700Y90225D01*
G01X70647Y89966D01*
G01X70647Y89811D01*
G01X70700Y89550D01*
G01X70802Y89395D01*
G01X70959Y89344D01*
G01X71064Y89344D01*
G01X71219Y89395D01*
G01X71323Y89550D01*
G01X71374Y89811D01*
G01X71374Y89966D01*
G01X71323Y90225D01*
G01X71219Y90383D01*
G01X71064Y90434D01*
G01X70959Y90434D01*
G01X71770Y90175D02*
G01X71770Y90225D01*
G01X71821Y90330D01*
G01X71874Y90383D01*
G01X71978Y90434D01*
G01X72186Y90434D01*
G01X72288Y90383D01*
G01X72341Y90330D01*
G01X72392Y90225D01*
G01X72392Y90121D01*
G01X72341Y90017D01*
G01X72237Y89862D01*
G01X71716Y89344D01*
G01X72445Y89344D01*
G01X54737Y90434D02*
G01X54737Y89654D01*
G01X54787Y89499D01*
G01X54891Y89395D01*
G01X55049Y89344D01*
G01X55153Y89344D01*
G01X55308Y89395D01*
G01X55412Y89499D01*
G01X55463Y89654D01*
G01X55463Y90434D01*
G01X55806Y90225D02*
G01X55910Y90279D01*
G01X56067Y90434D01*
G01X56067Y89344D01*
G01X21971Y116215D02*
G01X21971Y115435D01*
G01X22021Y115280D01*
G01X22125Y115176D01*
G01X22283Y115125D01*
G01X22387Y115125D01*
G01X22542Y115176D01*
G01X22646Y115280D01*
G01X22697Y115435D01*
G01X22697Y116215D01*
G01X23665Y116060D02*
G01X23611Y116164D01*
G01X23456Y116215D01*
G01X23352Y116215D01*
G01X23197Y116164D01*
G01X23093Y116006D01*
G01X23040Y115747D01*
G01X23040Y115488D01*
G01X23093Y115280D01*
G01X23197Y115176D01*
G01X23352Y115125D01*
G01X23406Y115125D01*
G01X23561Y115176D01*
G01X23665Y115280D01*
G01X23715Y115435D01*
G01X23715Y115488D01*
G01X23665Y115643D01*
G01X23561Y115747D01*
G01X23406Y115798D01*
G01X23352Y115798D01*
G01X23197Y115747D01*
G01X23093Y115643D01*
G01X23040Y115488D01*
G01X154559Y109357D02*
G01X154559Y108267D01*
G01X154559Y109357D02*
G01X155026Y109357D01*
G01X155181Y109306D01*
G01X155234Y109253D01*
G01X155285Y109148D01*
G01X155285Y109044D01*
G01X155234Y108940D01*
G01X155181Y108889D01*
G01X155026Y108839D01*
G01X154559Y108839D01*
G01X154922Y108839D02*
G01X155285Y108267D01*
G01X156253Y109202D02*
G01X156199Y109306D01*
G01X156044Y109357D01*
G01X155940Y109357D01*
G01X155785Y109306D01*
G01X155681Y109148D01*
G01X155628Y108889D01*
G01X155628Y108630D01*
G01X155681Y108422D01*
G01X155785Y108318D01*
G01X155940Y108267D01*
G01X155994Y108267D01*
G01X156149Y108318D01*
G01X156253Y108422D01*
G01X156303Y108577D01*
G01X156303Y108630D01*
G01X156253Y108785D01*
G01X156149Y108889D01*
G01X155994Y108940D01*
G01X155940Y108940D01*
G01X155785Y108889D01*
G01X155681Y108785D01*
G01X155628Y108630D01*
G01X137297Y104521D02*
G01X136207Y104521D01*
G01X137297Y104521D02*
G01X137297Y104053D01*
G01X137246Y103898D01*
G01X137193Y103845D01*
G01X137088Y103794D01*
G01X136984Y103794D01*
G01X136880Y103845D01*
G01X136829Y103898D01*
G01X136779Y104053D01*
G01X136779Y104521D01*
G01X136779Y104157D02*
G01X136207Y103794D01*
G01X137297Y102930D02*
G01X136570Y103451D01*
G01X136570Y102671D01*
G01X137297Y102930D02*
G01X136207Y102930D01*
G01X154432Y114437D02*
G01X154432Y113347D01*
G01X154432Y114437D02*
G01X154899Y114437D01*
G01X155054Y114386D01*
G01X155107Y114333D01*
G01X155158Y114228D01*
G01X155158Y114124D01*
G01X155107Y114020D01*
G01X155054Y113969D01*
G01X154899Y113919D01*
G01X154432Y113919D01*
G01X154795Y113919D02*
G01X155158Y113347D01*
G01X156126Y114437D02*
G01X155605Y114437D01*
G01X155554Y113969D01*
G01X155605Y114020D01*
G01X155762Y114073D01*
G01X155917Y114073D01*
G01X156072Y114020D01*
G01X156176Y113919D01*
G01X156230Y113761D01*
G01X156230Y113657D01*
G01X156176Y113502D01*
G01X156072Y113398D01*
G01X155917Y113347D01*
G01X155762Y113347D01*
G01X155605Y113398D01*
G01X155554Y113449D01*
G01X155501Y113553D01*
G01X45582Y80899D02*
G01X46672Y80899D01*
G01X45582Y80899D02*
G01X45582Y81366D01*
G01X45633Y81521D01*
G01X45686Y81574D01*
G01X45791Y81625D01*
G01X45895Y81625D01*
G01X45999Y81574D01*
G01X46050Y81521D01*
G01X46101Y81366D01*
G01X46101Y80899D01*
G01X46101Y81262D02*
G01X46672Y81625D01*
G01X45791Y81968D02*
G01X45737Y82072D01*
G01X45582Y82229D01*
G01X46672Y82229D01*
G01X132344Y104648D02*
G01X131254Y104648D01*
G01X132344Y104648D02*
G01X132344Y104180D01*
G01X132293Y104025D01*
G01X132240Y103972D01*
G01X132135Y103921D01*
G01X132031Y103921D01*
G01X131927Y103972D01*
G01X131876Y104025D01*
G01X131826Y104180D01*
G01X131826Y104648D01*
G01X131826Y104284D02*
G01X131254Y103921D01*
G01X132344Y103474D02*
G01X132344Y102903D01*
G01X131927Y103212D01*
G01X131927Y103057D01*
G01X131876Y102953D01*
G01X131826Y102903D01*
G01X131668Y102849D01*
G01X131564Y102849D01*
G01X131409Y102903D01*
G01X131305Y103007D01*
G01X131254Y103162D01*
G01X131254Y103317D01*
G01X131305Y103474D01*
G01X131356Y103525D01*
G01X131460Y103578D01*
G01X176928Y94366D02*
G01X176875Y94470D01*
G01X176771Y94574D01*
G01X176669Y94625D01*
G01X176461Y94625D01*
G01X176357Y94574D01*
G01X176253Y94470D01*
G01X176199Y94366D01*
G01X176149Y94208D01*
G01X176149Y93949D01*
G01X176199Y93794D01*
G01X176253Y93690D01*
G01X176357Y93586D01*
G01X176461Y93535D01*
G01X176669Y93535D01*
G01X176771Y93586D01*
G01X176875Y93690D01*
G01X176928Y93794D01*
G01X177271Y94416D02*
G01X177375Y94470D01*
G01X177530Y94625D01*
G01X177530Y93535D01*
G01X140335Y113802D02*
G01X140335Y113022D01*
G01X140385Y112867D01*
G01X140489Y112763D01*
G01X140647Y112712D01*
G01X140751Y112712D01*
G01X140906Y112763D01*
G01X141010Y112867D01*
G01X141061Y113022D01*
G01X141061Y113802D01*
G01X141665Y113802D02*
G01X141508Y113751D01*
G01X141457Y113647D01*
G01X141457Y113543D01*
G01X141508Y113438D01*
G01X141612Y113385D01*
G01X141820Y113334D01*
G01X141975Y113284D01*
G01X142079Y113179D01*
G01X142133Y113075D01*
G01X142133Y112918D01*
G01X142079Y112814D01*
G01X142029Y112763D01*
G01X141871Y112712D01*
G01X141665Y112712D01*
G01X141508Y112763D01*
G01X141457Y112814D01*
G01X141404Y112918D01*
G01X141404Y113075D01*
G01X141457Y113179D01*
G01X141561Y113284D01*
G01X141716Y113334D01*
G01X141925Y113385D01*
G01X142029Y113438D01*
G01X142079Y113543D01*
G01X142079Y113647D01*
G01X142029Y113751D01*
G01X141871Y113802D01*
G01X141665Y113802D01*
G01X69723Y116895D02*
G01X69827Y116949D01*
G01X69982Y117104D01*
G01X69982Y116014D01*
G01X70378Y116273D02*
G01X70324Y116220D01*
G01X70378Y116169D01*
G01X70429Y116220D01*
G01X70378Y116273D01*
G01X71031Y117104D02*
G01X70876Y117053D01*
G01X70825Y116949D01*
G01X70825Y116845D01*
G01X70876Y116740D01*
G01X70980Y116687D01*
G01X71188Y116636D01*
G01X71343Y116586D01*
G01X71447Y116481D01*
G01X71501Y116377D01*
G01X71501Y116220D01*
G01X71447Y116116D01*
G01X71396Y116065D01*
G01X71239Y116014D01*
G01X71031Y116014D01*
G01X70876Y116065D01*
G01X70825Y116116D01*
G01X70772Y116220D01*
G01X70772Y116377D01*
G01X70825Y116481D01*
G01X70929Y116586D01*
G01X71084Y116636D01*
G01X71292Y116687D01*
G01X71396Y116740D01*
G01X71447Y116845D01*
G01X71447Y116949D01*
G01X71396Y117053D01*
G01X71239Y117104D01*
G01X71031Y117104D01*
G01X72362Y117104D02*
G01X71843Y116377D01*
G01X72621Y116377D01*
G01X72362Y117104D02*
G01X72362Y116014D01*
G01X73068Y117104D02*
G01X73639Y117104D01*
G01X73329Y116687D01*
G01X73484Y116687D01*
G01X73588Y116636D01*
G01X73639Y116586D01*
G01X73693Y116428D01*
G01X73693Y116324D01*
G01X73639Y116169D01*
G01X73535Y116065D01*
G01X73380Y116014D01*
G01X73225Y116014D01*
G01X73068Y116065D01*
G01X73017Y116116D01*
G01X72964Y116220D01*
G01X74086Y116845D02*
G01X74086Y116895D01*
G01X74140Y117000D01*
G01X74190Y117053D01*
G01X74295Y117104D01*
G01X74503Y117104D01*
G01X74607Y117053D01*
G01X74658Y117000D01*
G01X74711Y116895D01*
G01X74711Y116791D01*
G01X74658Y116687D01*
G01X74554Y116532D01*
G01X74035Y116014D01*
G01X74762Y116014D01*
G01X75905Y117104D02*
G01X75905Y116014D01*
G01X75905Y117104D02*
G01X76321Y116014D01*
G01X76735Y117104D02*
G01X76321Y116014D01*
G01X76735Y117104D02*
G01X76735Y116014D01*
G01X77078Y117104D02*
G01X77078Y116014D01*
G01X77807Y117104D02*
G01X77807Y116014D01*
G01X77078Y116586D02*
G01X77807Y116586D01*
G01X78877Y117104D02*
G01X78150Y116014D01*
G01X78150Y117104D02*
G01X78877Y117104D01*
G01X78150Y116014D02*
G01X78877Y116014D01*
G01X58674Y117104D02*
G01X59400Y116014D01*
G01X59400Y117104D02*
G01X58674Y116014D01*
G01X59796Y116845D02*
G01X59796Y116895D01*
G01X59847Y117000D01*
G01X59900Y117053D01*
G01X60004Y117104D01*
G01X60210Y117104D01*
G01X60314Y117053D01*
G01X60368Y117000D01*
G01X60418Y116895D01*
G01X60418Y116791D01*
G01X60368Y116687D01*
G01X60264Y116532D01*
G01X59743Y116014D01*
G01X60472Y116014D01*
G01X48895Y116895D02*
G01X48999Y116949D01*
G01X49154Y117104D01*
G01X49154Y116014D01*
G01X50297Y117104D02*
G01X50297Y116014D01*
G01X50297Y117104D02*
G01X50713Y116014D01*
G01X51130Y117104D02*
G01X50713Y116014D01*
G01X51130Y117104D02*
G01X51130Y116014D01*
G01X51473Y117104D02*
G01X51473Y116014D01*
G01X52199Y117104D02*
G01X52199Y116014D01*
G01X51473Y116586D02*
G01X52199Y116586D01*
G01X53268Y117104D02*
G01X52542Y116014D01*
G01X52542Y117104D02*
G01X53268Y117104D01*
G01X52542Y116014D02*
G01X53268Y116014D01*
G01X33147Y117231D02*
G01X33873Y116141D01*
G01X33873Y117231D02*
G01X33147Y116141D01*
G01X34216Y117022D02*
G01X34320Y117076D01*
G01X34477Y117231D01*
G01X34477Y116141D01*
G01X146431Y98943D02*
G01X146431Y97853D01*
G01X146431Y98943D02*
G01X146898Y98943D01*
G01X147053Y98892D01*
G01X147106Y98839D01*
G01X147157Y98734D01*
G01X147157Y98630D01*
G01X147106Y98526D01*
G01X147053Y98475D01*
G01X146898Y98425D01*
G01X146431Y98425D01*
G01X146794Y98425D02*
G01X147157Y97853D01*
G01X147500Y98943D02*
G01X148229Y97853D01*
G01X148229Y98943D02*
G01X147500Y97853D01*
G01X141714Y98943D02*
G01X141714Y97853D01*
G01X141351Y98943D02*
G01X142077Y98943D01*
G01X142420Y98943D02*
G01X143149Y97853D01*
G01X143149Y98943D02*
G01X142420Y97853D01*
G01X144162Y120528D02*
G01X144109Y120632D01*
G01X144005Y120736D01*
G01X143903Y120787D01*
G01X143695Y120787D01*
G01X143591Y120736D01*
G01X143487Y120632D01*
G01X143433Y120528D01*
G01X143383Y120370D01*
G01X143383Y120111D01*
G01X143433Y119956D01*
G01X143487Y119852D01*
G01X143591Y119748D01*
G01X143695Y119697D01*
G01X143903Y119697D01*
G01X144005Y119748D01*
G01X144109Y119852D01*
G01X144162Y119956D01*
G01X145181Y120423D02*
G01X145127Y120269D01*
G01X145023Y120164D01*
G01X144868Y120111D01*
G01X144818Y120111D01*
G01X144660Y120164D01*
G01X144556Y120269D01*
G01X144505Y120423D01*
G01X144505Y120474D01*
G01X144556Y120632D01*
G01X144660Y120736D01*
G01X144818Y120787D01*
G01X144868Y120787D01*
G01X145023Y120736D01*
G01X145127Y120632D01*
G01X145181Y120423D01*
G01X145181Y120164D01*
G01X145127Y119903D01*
G01X145023Y119748D01*
G01X144868Y119697D01*
G01X144764Y119697D01*
G01X144609Y119748D01*
G01X144556Y119852D01*
G01X61866Y25659D02*
G01X61813Y25763D01*
G01X61709Y25867D01*
G01X61607Y25918D01*
G01X61399Y25918D01*
G01X61295Y25867D01*
G01X61191Y25763D01*
G01X61137Y25659D01*
G01X61087Y25501D01*
G01X61087Y25242D01*
G01X61137Y25087D01*
G01X61191Y24983D01*
G01X61295Y24879D01*
G01X61399Y24828D01*
G01X61607Y24828D01*
G01X61709Y24879D01*
G01X61813Y24983D01*
G01X61866Y25087D01*
G01X62209Y25709D02*
G01X62313Y25763D01*
G01X62468Y25918D01*
G01X62468Y24828D01*
G01X63124Y25918D02*
G01X62966Y25867D01*
G01X62865Y25709D01*
G01X62811Y25450D01*
G01X62811Y25295D01*
G01X62865Y25034D01*
G01X62966Y24879D01*
G01X63124Y24828D01*
G01X63228Y24828D01*
G01X63383Y24879D01*
G01X63487Y25034D01*
G01X63538Y25295D01*
G01X63538Y25450D01*
G01X63487Y25709D01*
G01X63383Y25867D01*
G01X63228Y25918D01*
G01X63124Y25918D01*
G01X122953Y107066D02*
G01X122900Y107170D01*
G01X122796Y107274D01*
G01X122694Y107325D01*
G01X122486Y107325D01*
G01X122382Y107274D01*
G01X122278Y107170D01*
G01X122224Y107066D01*
G01X122174Y106908D01*
G01X122174Y106649D01*
G01X122224Y106494D01*
G01X122278Y106390D01*
G01X122382Y106286D01*
G01X122486Y106235D01*
G01X122694Y106235D01*
G01X122796Y106286D01*
G01X122900Y106390D01*
G01X122953Y106494D01*
G01X123555Y107325D02*
G01X123400Y107274D01*
G01X123347Y107170D01*
G01X123347Y107066D01*
G01X123400Y106961D01*
G01X123504Y106908D01*
G01X123710Y106857D01*
G01X123868Y106807D01*
G01X123972Y106702D01*
G01X124023Y106598D01*
G01X124023Y106441D01*
G01X123972Y106337D01*
G01X123918Y106286D01*
G01X123764Y106235D01*
G01X123555Y106235D01*
G01X123400Y106286D01*
G01X123347Y106337D01*
G01X123296Y106441D01*
G01X123296Y106598D01*
G01X123347Y106702D01*
G01X123451Y106807D01*
G01X123609Y106857D01*
G01X123814Y106908D01*
G01X123918Y106961D01*
G01X123972Y107066D01*
G01X123972Y107170D01*
G01X123918Y107274D01*
G01X123764Y107325D01*
G01X123555Y107325D01*
G01X158386Y94493D02*
G01X158333Y94597D01*
G01X158229Y94701D01*
G01X158127Y94752D01*
G01X157919Y94752D01*
G01X157815Y94701D01*
G01X157711Y94597D01*
G01X157657Y94493D01*
G01X157607Y94335D01*
G01X157607Y94076D01*
G01X157657Y93921D01*
G01X157711Y93817D01*
G01X157815Y93713D01*
G01X157919Y93662D01*
G01X158127Y93662D01*
G01X158229Y93713D01*
G01X158333Y93817D01*
G01X158386Y93921D01*
G01X158729Y94543D02*
G01X158833Y94597D01*
G01X158988Y94752D01*
G01X158988Y93662D01*
G01X159435Y94752D02*
G01X160007Y94752D01*
G01X159694Y94335D01*
G01X159852Y94335D01*
G01X159956Y94284D01*
G01X160007Y94234D01*
G01X160058Y94076D01*
G01X160058Y93972D01*
G01X160007Y93817D01*
G01X159903Y93713D01*
G01X159748Y93662D01*
G01X159590Y93662D01*
G01X159435Y93713D01*
G01X159385Y93764D01*
G01X159331Y93868D01*
G01X153179Y94493D02*
G01X153126Y94597D01*
G01X153022Y94701D01*
G01X152920Y94752D01*
G01X152712Y94752D01*
G01X152608Y94701D01*
G01X152504Y94597D01*
G01X152450Y94493D01*
G01X152400Y94335D01*
G01X152400Y94076D01*
G01X152450Y93921D01*
G01X152504Y93817D01*
G01X152608Y93713D01*
G01X152712Y93662D01*
G01X152920Y93662D01*
G01X153022Y93713D01*
G01X153126Y93817D01*
G01X153179Y93921D01*
G01X153522Y94543D02*
G01X153626Y94597D01*
G01X153781Y94752D01*
G01X153781Y93662D01*
G01X154178Y94493D02*
G01X154178Y94543D01*
G01X154228Y94648D01*
G01X154279Y94701D01*
G01X154383Y94752D01*
G01X154592Y94752D01*
G01X154696Y94701D01*
G01X154749Y94648D01*
G01X154800Y94543D01*
G01X154800Y94439D01*
G01X154749Y94335D01*
G01X154645Y94180D01*
G01X154124Y93662D01*
G01X154851Y93662D01*
G01X19702Y107828D02*
G01X19649Y107932D01*
G01X19545Y108036D01*
G01X19443Y108087D01*
G01X19235Y108087D01*
G01X19131Y108036D01*
G01X19027Y107932D01*
G01X18973Y107828D01*
G01X18923Y107670D01*
G01X18923Y107411D01*
G01X18973Y107256D01*
G01X19027Y107152D01*
G01X19131Y107048D01*
G01X19235Y106997D01*
G01X19443Y106997D01*
G01X19545Y107048D01*
G01X19649Y107152D01*
G01X19702Y107256D01*
G01X20772Y108087D02*
G01X20253Y106997D01*
G01X20045Y108087D02*
G01X20772Y108087D01*
G01X14622Y82555D02*
G01X14569Y82659D01*
G01X14465Y82763D01*
G01X14363Y82814D01*
G01X14155Y82814D01*
G01X14051Y82763D01*
G01X13947Y82659D01*
G01X13893Y82555D01*
G01X13843Y82397D01*
G01X13843Y82138D01*
G01X13893Y81983D01*
G01X13947Y81879D01*
G01X14051Y81775D01*
G01X14155Y81724D01*
G01X14363Y81724D01*
G01X14465Y81775D01*
G01X14569Y81879D01*
G01X14622Y81983D01*
G01X15587Y82659D02*
G01X15537Y82763D01*
G01X15379Y82814D01*
G01X15278Y82814D01*
G01X15120Y82763D01*
G01X15016Y82605D01*
G01X14965Y82346D01*
G01X14965Y82087D01*
G01X15016Y81879D01*
G01X15120Y81775D01*
G01X15278Y81724D01*
G01X15328Y81724D01*
G01X15483Y81775D01*
G01X15587Y81879D01*
G01X15641Y82034D01*
G01X15641Y82087D01*
G01X15587Y82242D01*
G01X15483Y82346D01*
G01X15328Y82397D01*
G01X15278Y82397D01*
G01X15120Y82346D01*
G01X15016Y82242D01*
G01X14965Y82087D01*
G01X34815Y87508D02*
G01X34762Y87612D01*
G01X34658Y87716D01*
G01X34556Y87767D01*
G01X34348Y87767D01*
G01X34244Y87716D01*
G01X34140Y87612D01*
G01X34086Y87508D01*
G01X34036Y87350D01*
G01X34036Y87091D01*
G01X34086Y86936D01*
G01X34140Y86832D01*
G01X34244Y86728D01*
G01X34348Y86677D01*
G01X34556Y86677D01*
G01X34658Y86728D01*
G01X34762Y86832D01*
G01X34815Y86936D01*
G01X35780Y87767D02*
G01X35262Y87767D01*
G01X35209Y87299D01*
G01X35262Y87350D01*
G01X35417Y87403D01*
G01X35572Y87403D01*
G01X35730Y87350D01*
G01X35834Y87249D01*
G01X35885Y87091D01*
G01X35885Y86987D01*
G01X35834Y86832D01*
G01X35730Y86728D01*
G01X35572Y86677D01*
G01X35417Y86677D01*
G01X35262Y86728D01*
G01X35209Y86779D01*
G01X35158Y86883D01*
G01X133875Y87508D02*
G01X133822Y87612D01*
G01X133718Y87716D01*
G01X133616Y87767D01*
G01X133408Y87767D01*
G01X133304Y87716D01*
G01X133200Y87612D01*
G01X133146Y87508D01*
G01X133096Y87350D01*
G01X133096Y87091D01*
G01X133146Y86936D01*
G01X133200Y86832D01*
G01X133304Y86728D01*
G01X133408Y86677D01*
G01X133616Y86677D01*
G01X133718Y86728D01*
G01X133822Y86832D01*
G01X133875Y86936D01*
G01X134736Y87767D02*
G01X134218Y87040D01*
G01X134998Y87040D01*
G01X134736Y87767D02*
G01X134736Y86677D01*
G01X164482Y87762D02*
G01X164429Y87866D01*
G01X164325Y87970D01*
G01X164223Y88021D01*
G01X164015Y88021D01*
G01X163911Y87970D01*
G01X163807Y87866D01*
G01X163753Y87762D01*
G01X163703Y87604D01*
G01X163703Y87345D01*
G01X163753Y87190D01*
G01X163807Y87086D01*
G01X163911Y86982D01*
G01X164015Y86931D01*
G01X164223Y86931D01*
G01X164325Y86982D01*
G01X164429Y87086D01*
G01X164482Y87190D01*
G01X164929Y88021D02*
G01X165501Y88021D01*
G01X165188Y87604D01*
G01X165343Y87604D01*
G01X165447Y87553D01*
G01X165501Y87503D01*
G01X165552Y87345D01*
G01X165552Y87241D01*
G01X165501Y87086D01*
G01X165397Y86982D01*
G01X165239Y86931D01*
G01X165084Y86931D01*
G01X164929Y86982D01*
G01X164876Y87033D01*
G01X164825Y87137D01*
G01X60215Y97795D02*
G01X60162Y97899D01*
G01X60058Y98003D01*
G01X59956Y98054D01*
G01X59748Y98054D01*
G01X59644Y98003D01*
G01X59540Y97899D01*
G01X59486Y97795D01*
G01X59436Y97637D01*
G01X59436Y97378D01*
G01X59486Y97223D01*
G01X59540Y97119D01*
G01X59644Y97015D01*
G01X59748Y96964D01*
G01X59956Y96964D01*
G01X60058Y97015D01*
G01X60162Y97119D01*
G01X60215Y97223D01*
G01X60609Y97795D02*
G01X60609Y97845D01*
G01X60662Y97950D01*
G01X60713Y98003D01*
G01X60817Y98054D01*
G01X61026Y98054D01*
G01X61130Y98003D01*
G01X61180Y97950D01*
G01X61234Y97845D01*
G01X61234Y97741D01*
G01X61180Y97637D01*
G01X61076Y97482D01*
G01X60558Y96964D01*
G01X61285Y96964D01*
G01X117619Y25786D02*
G01X117566Y25890D01*
G01X117462Y25994D01*
G01X117360Y26045D01*
G01X117152Y26045D01*
G01X117048Y25994D01*
G01X116944Y25890D01*
G01X116890Y25786D01*
G01X116840Y25628D01*
G01X116840Y25369D01*
G01X116890Y25214D01*
G01X116944Y25110D01*
G01X117048Y25006D01*
G01X117152Y24955D01*
G01X117360Y24955D01*
G01X117462Y25006D01*
G01X117566Y25110D01*
G01X117619Y25214D01*
G01X117962Y25836D02*
G01X118066Y25890D01*
G01X118221Y26045D01*
G01X118221Y24955D01*
G01X118564Y25836D02*
G01X118668Y25890D01*
G01X118823Y26045D01*
G01X118823Y24955D01*
G01X141719Y80246D02*
G01X141668Y80350D01*
G01X141513Y80401D01*
G01X141409Y80401D01*
G01X141251Y80350D01*
G01X141147Y80192D01*
G01X141097Y79933D01*
G01X141097Y79674D01*
G01X141147Y79466D01*
G01X141251Y79362D01*
G01X141409Y79311D01*
G01X141460Y79311D01*
G01X141617Y79362D01*
G01X141719Y79466D01*
G01X141772Y79621D01*
G01X141772Y79674D01*
G01X141719Y79829D01*
G01X141617Y79933D01*
G01X141460Y79984D01*
G01X141409Y79984D01*
G01X141251Y79933D01*
G01X141147Y79829D01*
G01X141097Y79674D01*
G01X142166Y80142D02*
G01X142166Y80192D01*
G01X142219Y80297D01*
G01X142270Y80350D01*
G01X142374Y80401D01*
G01X142582Y80401D01*
G01X142687Y80350D01*
G01X142737Y80297D01*
G01X142791Y80192D01*
G01X142791Y80088D01*
G01X142737Y79984D01*
G01X142633Y79829D01*
G01X142115Y79311D01*
G01X142841Y79311D01*
G01X143238Y80142D02*
G01X143238Y80192D01*
G01X143289Y80297D01*
G01X143342Y80350D01*
G01X143446Y80401D01*
G01X143652Y80401D01*
G01X143756Y80350D01*
G01X143809Y80297D01*
G01X143860Y80192D01*
G01X143860Y80088D01*
G01X143809Y79984D01*
G01X143705Y79829D01*
G01X143184Y79311D01*
G01X143913Y79311D01*
G01X144879Y80401D02*
G01X144360Y80401D01*
G01X144307Y79933D01*
G01X144360Y79984D01*
G01X144515Y80037D01*
G01X144670Y80037D01*
G01X144828Y79984D01*
G01X144932Y79883D01*
G01X144983Y79725D01*
G01X144983Y79621D01*
G01X144932Y79466D01*
G01X144828Y79362D01*
G01X144670Y79311D01*
G01X144515Y79311D01*
G01X144360Y79362D01*
G01X144307Y79413D01*
G01X144256Y79517D01*
G01X145948Y80246D02*
G01X145897Y80350D01*
G01X145742Y80401D01*
G01X145638Y80401D01*
G01X145481Y80350D01*
G01X145376Y80192D01*
G01X145326Y79933D01*
G01X145326Y79674D01*
G01X145376Y79466D01*
G01X145481Y79362D01*
G01X145638Y79311D01*
G01X145689Y79311D01*
G01X145846Y79362D01*
G01X145948Y79466D01*
G01X146001Y79621D01*
G01X146001Y79674D01*
G01X145948Y79829D01*
G01X145846Y79933D01*
G01X145689Y79984D01*
G01X145638Y79984D01*
G01X145481Y79933D01*
G01X145376Y79829D01*
G01X145326Y79674D01*
G01X128143Y80274D02*
G01X128143Y79494D01*
G01X128193Y79339D01*
G01X128297Y79235D01*
G01X128455Y79184D01*
G01X128559Y79184D01*
G01X128714Y79235D01*
G01X128818Y79339D01*
G01X128869Y79494D01*
G01X128869Y80274D01*
G01X129316Y80274D02*
G01X129887Y80274D01*
G01X129578Y79857D01*
G01X129733Y79857D01*
G01X129837Y79806D01*
G01X129887Y79756D01*
G01X129941Y79598D01*
G01X129941Y79494D01*
G01X129887Y79339D01*
G01X129783Y79235D01*
G01X129628Y79184D01*
G01X129473Y79184D01*
G01X129316Y79235D01*
G01X129265Y79286D01*
G01X129212Y79390D01*
G01X7874Y108087D02*
G01X7874Y106997D01*
G01X7874Y108087D02*
G01X8341Y108087D01*
G01X8496Y108036D01*
G01X8549Y107983D01*
G01X8600Y107878D01*
G01X8600Y107774D01*
G01X8549Y107670D01*
G01X8496Y107619D01*
G01X8341Y107569D01*
G01X7874Y107569D01*
G01X8237Y107569D02*
G01X8600Y106997D01*
G01X8943Y107411D02*
G01X9568Y107411D01*
G01X9568Y107515D01*
G01X9514Y107619D01*
G01X9464Y107670D01*
G01X9359Y107723D01*
G01X9204Y107723D01*
G01X9100Y107670D01*
G01X8996Y107569D01*
G01X8943Y107411D01*
G01X8943Y107307D01*
G01X8996Y107152D01*
G01X9100Y107048D01*
G01X9204Y106997D01*
G01X9359Y106997D01*
G01X9464Y107048D01*
G01X9568Y107152D01*
G01X10482Y107569D02*
G01X10429Y107670D01*
G01X10274Y107723D01*
G01X10119Y107723D01*
G01X9961Y107670D01*
G01X9911Y107569D01*
G01X9961Y107464D01*
G01X10066Y107411D01*
G01X10325Y107360D01*
G01X10429Y107307D01*
G01X10482Y107203D01*
G01X10482Y107152D01*
G01X10429Y107048D01*
G01X10274Y106997D01*
G01X10119Y106997D01*
G01X9961Y107048D01*
G01X9911Y107152D01*
G01X10825Y107411D02*
G01X11447Y107411D01*
G01X11447Y107515D01*
G01X11396Y107619D01*
G01X11343Y107670D01*
G01X11239Y107723D01*
G01X11084Y107723D01*
G01X10980Y107670D01*
G01X10876Y107569D01*
G01X10825Y107411D01*
G01X10825Y107307D01*
G01X10876Y107152D01*
G01X10980Y107048D01*
G01X11084Y106997D01*
G01X11239Y106997D01*
G01X11343Y107048D01*
G01X11447Y107152D01*
G01X11948Y108087D02*
G01X11948Y107203D01*
G01X11998Y107048D01*
G01X12103Y106997D01*
G01X12207Y106997D01*
G01X11790Y107723D02*
G01X12153Y107723D01*
G01X170611Y80269D02*
G01X170611Y80319D01*
G01X170665Y80424D01*
G01X170715Y80477D01*
G01X170820Y80528D01*
G01X171028Y80528D01*
G01X171132Y80477D01*
G01X171183Y80424D01*
G01X171236Y80319D01*
G01X171236Y80215D01*
G01X171183Y80111D01*
G01X171081Y79956D01*
G01X170561Y79438D01*
G01X171287Y79438D01*
G01X171891Y80528D02*
G01X171734Y80477D01*
G01X171683Y80373D01*
G01X171683Y80269D01*
G01X171734Y80164D01*
G01X171838Y80111D01*
G01X172046Y80060D01*
G01X172201Y80010D01*
G01X172305Y79905D01*
G01X172359Y79801D01*
G01X172359Y79644D01*
G01X172305Y79540D01*
G01X172255Y79489D01*
G01X172097Y79438D01*
G01X171891Y79438D01*
G01X171734Y79489D01*
G01X171683Y79540D01*
G01X171630Y79644D01*
G01X171630Y79801D01*
G01X171683Y79905D01*
G01X171787Y80010D01*
G01X171942Y80060D01*
G01X172151Y80111D01*
G01X172255Y80164D01*
G01X172305Y80269D01*
G01X172305Y80373D01*
G01X172255Y80477D01*
G01X172097Y80528D01*
G01X171891Y80528D01*
G01X173482Y80269D02*
G01X173428Y80373D01*
G01X173324Y80477D01*
G01X173220Y80528D01*
G01X173012Y80528D01*
G01X172910Y80477D01*
G01X172806Y80373D01*
G01X172753Y80269D01*
G01X172702Y80111D01*
G01X172702Y79852D01*
G01X172753Y79697D01*
G01X172806Y79593D01*
G01X172910Y79489D01*
G01X173012Y79438D01*
G01X173220Y79438D01*
G01X173324Y79489D01*
G01X173428Y79593D01*
G01X173482Y79697D01*
G01X173875Y80269D02*
G01X173875Y80319D01*
G01X173926Y80424D01*
G01X173979Y80477D01*
G01X174083Y80528D01*
G01X174292Y80528D01*
G01X174396Y80477D01*
G01X174447Y80424D01*
G01X174498Y80319D01*
G01X174498Y80215D01*
G01X174447Y80111D01*
G01X174343Y79956D01*
G01X173824Y79438D01*
G01X174551Y79438D01*
G01X175516Y80528D02*
G01X174998Y80528D01*
G01X174945Y80060D01*
G01X174998Y80111D01*
G01X175153Y80164D01*
G01X175310Y80164D01*
G01X175465Y80111D01*
G01X175569Y80010D01*
G01X175620Y79852D01*
G01X175620Y79748D01*
G01X175569Y79593D01*
G01X175465Y79489D01*
G01X175310Y79438D01*
G01X175153Y79438D01*
G01X174998Y79489D01*
G01X174945Y79540D01*
G01X174894Y79644D01*
G01X176588Y80373D02*
G01X176535Y80477D01*
G01X176380Y80528D01*
G01X176276Y80528D01*
G01X176121Y80477D01*
G01X176016Y80319D01*
G01X175963Y80060D01*
G01X175963Y79801D01*
G01X176016Y79593D01*
G01X176121Y79489D01*
G01X176276Y79438D01*
G01X176326Y79438D01*
G01X176484Y79489D01*
G01X176588Y79593D01*
G01X176639Y79748D01*
G01X176639Y79801D01*
G01X176588Y79956D01*
G01X176484Y80060D01*
G01X176326Y80111D01*
G01X176276Y80111D01*
G01X176121Y80060D01*
G01X176016Y79956D01*
G01X175963Y79801D01*
G01X158750Y80401D02*
G01X158750Y79621D01*
G01X158800Y79466D01*
G01X158904Y79362D01*
G01X159062Y79311D01*
G01X159166Y79311D01*
G01X159321Y79362D01*
G01X159425Y79466D01*
G01X159476Y79621D01*
G01X159476Y80401D01*
G01X159872Y80142D02*
G01X159872Y80192D01*
G01X159923Y80297D01*
G01X159976Y80350D01*
G01X160080Y80401D01*
G01X160286Y80401D01*
G01X160390Y80350D01*
G01X160444Y80297D01*
G01X160494Y80192D01*
G01X160494Y80088D01*
G01X160444Y79984D01*
G01X160340Y79829D01*
G01X159819Y79311D01*
G01X160548Y79311D01*
G54D30*
G75*
G01X119500Y107680D02*
G03X119500Y105680I0J-1000D01*
G01*
G75*
G01X37100Y78860D02*
G03X39100Y78860I1000J0D01*
G01*
G75*
G01X16780Y72510D02*
G03X18780Y72510I1000J0D01*
G01*
G75*
G01X124340Y19320D02*
G03X124340Y21320I0J1000D01*
G01*
G75*
G01X7500Y19320D02*
G03X7500Y21320I0J1000D01*
G01*
G75*
G01X62500Y89020D02*
G03X64500Y89020I1000J0D01*
G01*
G54D10*
G75*
G01X20765Y110109D02*
G02X22074Y114308I2095J1651D01*
G01*
G75*
G01X23647Y114308D02*
G02X24955Y110109I-786J-2548D01*
G01*
G75*
G01X143090Y111970D02*
G02X141389Y111970I-850J5D01*
G01*
G54D30*
G75*
G01X79030Y103520D02*
G02X78280Y102770I-750J0D01*
G01*
G75*
G01X78280Y115670D02*
G02X79030Y114920I0J-750D01*
G01*
G75*
G01X58130Y114920D02*
G02X58880Y115670I750J0D01*
G01*
G75*
G01X53630Y103520D02*
G02X52880Y102770I-750J0D01*
G01*
G75*
G01X52880Y115670D02*
G02X53630Y114920I0J-750D01*
G01*
G75*
G01X32730Y114920D02*
G02X33480Y115670I750J0D01*
G01*
G54D10*
G75*
G01X148280Y99846D02*
G03X148643Y103100I-960J1754D01*
G01*
G75*
G01X145997Y103100D02*
G03X146360Y99846I1323J-1500D01*
G01*
G75*
G01X143200Y99846D02*
G03X143563Y103100I-960J1754D01*
G01*
G75*
G01X140917Y103100D02*
G03X141280Y99846I1323J-1500D01*
G01*
G54D30*
G75*
G01X136160Y78860D02*
G03X138160Y78860I1000J0D01*
G01*
G75*
G01X166640Y78860D02*
G03X168640Y78860I1000J0D01*
G01*
G54D10*
G75*
G01X175179Y93980D02*
G03X175179Y93980I-4999J0D01*
G01*
G75*
G01X139700Y112270D02*
G03X139700Y112270I-254J0D01*
G01*
G75*
G01X10864Y111808D02*
G03X10864Y111808I-749J0D01*
G01*
G75*
G01X11864Y111808D02*
G03X11864Y111808I-1750J0D01*
G01*

%LPD*%
G36*
G01X166624Y90424D02*
G01X166624Y97536D01*
G01X165862Y96520D01*
G01X165354Y94996D01*
G01X165100Y93472D01*
G01X165354Y92456D01*
G01X166624Y90424D01*
G37*
M00*
M02*
