;Layer: Drill PTH
;EasyEDA v6.3.22, 2020-04-01T16:04:37--7:00
;e4bcf462cb0447a68219b7cdce75b0ac,1d979999f33e43778db822881d36423c,10
;Gerber Generator version 0.2
M48
METRIC,LZ,000.000
;Holesize 1 = 0.301 METRIC
T01C0.301
;Holesize 2 = 0.800 METRIC
T02C0.800
;Holesize 3 = 0.813 METRIC
T03C0.813
;Holesize 4 = 0.900 METRIC
T04C0.900
;Holesize 5 = 0.901 METRIC
T05C0.901
;Holesize 6 = 0.915 METRIC
T06C0.915
;Holesize 7 = 1.000 METRIC
T07C1.000
;Holesize 8 = 1.200 METRIC
T08C1.200
;Holesize 9 = 1.301 METRIC
T09C1.301
;Holesize 10 = 2.000 METRIC
T10C2.000
%
G05
G90
T01
X+147320Y+110236
X+157480Y+053594
X+156083Y+051054
X+154940Y+048514
X+153670Y+045974
X+151130Y+045466
X+149860Y+048006
X+147320Y+053086
X+148463Y+050546
X+138430Y+063246
X+137160Y+060706
X+135763Y+058166
X+134620Y+055626
X+121920Y+101600
X+081280Y+020320
X+083820Y+085090
X+083820Y+088900
X+082550Y+030480
X+082550Y+072390
X+082550Y+086360
X+081280Y+087630
X+146685Y+110871
X+141351Y+109347
X+137160Y+110845
X+129540Y+110871
X+143637Y+108244
X+139700Y+105410
X+085090Y+022860
X+086360Y+022860
X+087630Y+022860
X+088900Y+022860
X+090170Y+022860
X+091440Y+022860
X+092837Y+022860
X+093980Y+022860
X+095123Y+022860
X+096520Y+022860
X+097790Y+022860
X+099060Y+022860
X+100330Y+022860
X+101600Y+022860
X+102997Y+022860
X+104140Y+022860
X+085090Y+049530
X+086360Y+046990
X+086360Y+077470
X+087630Y+044450
X+087630Y+071374
X+088900Y+074930
X+088900Y+041910
X+083820Y+030988
X+161163Y+030988
X+081280Y+026543
X+085090Y+026035
X+090170Y+063754
X+091440Y+058674
X+092837Y+066294
X+095123Y+072390
X-919480Y+920369
X+096520Y+069850
X+097790Y+067310
X+093980Y+068834
X+099060Y+064770
X+100330Y+062230
X+101600Y+059690
X+102997Y+057150
X+104140Y+054610
X+110490Y+043434
X+105410Y+053594
X+106680Y+051054
X+107950Y+048514
X+109220Y+045974
X+111760Y+046990
X+113157Y+049530
X+114300Y+052070
X+104140Y+068326
X+102997Y+065786
X+113157Y+066802
X+114300Y+069342
X+101600Y+063246
X+100330Y+060706
X+099060Y+058166
X+097790Y+056134
X+096520Y+053086
X+095123Y+050546
X+093980Y+048006
X+092837Y+045466
X+091440Y+042926
X+090170Y+040386
X+111760Y+064262
X+110490Y+061595
X+109220Y+059182
X+107950Y+056642
X+106680Y+054102
X+105410Y+052070
X+105410Y+031496
X+106680Y+032004
X+107950Y+032512
X+109220Y+033020
X+110490Y+033528
X+111760Y+034036
X+113157Y+034544
X+114300Y+035052
X+100330Y+035560
X+101600Y+036068
X+102997Y+036576
X+104140Y+037084
X+114300Y+089408
X+113157Y+089916
X+111760Y+090424
X+110490Y+090932
X+109220Y+091440
X+107950Y+096520
X+104394Y+108712
X+103886Y+108077
X+109220Y+110490
X+113030Y+104140
X+056134Y+023495
X+053086Y+025527
X+036068Y+048514
X+036703Y+046863
X+040386Y+025400
X+040386Y+021717
X+058420Y+088138
X+068580Y+097663
X+025400Y+091440
X+172720Y+037592
X+037211Y+044577
X+037719Y+042037
X+038354Y+039370
X+038989Y+040894
X+032131Y+043434
X+031369Y+045974
X+030607Y+048006
X+078740Y+068834
X+083820Y+105410
X+061849Y+070866
X+064897Y+071374
X+061849Y+037592
X+063500Y+058674
X+063500Y+038100
X+140335Y+038100
X+139700Y+038608
X+074549Y+038608
T02
X+118110Y+114302G85X+118110Y+114297
X+085090Y+099062G85X+085090Y+099057
X+115570Y+114302G85X+115570Y+114297
X+087630Y+099062G85X+087630Y+099057
X+113030Y+114302G85X+113030Y+114297
X+090170Y+099062G85X+090170Y+099057
X+110490Y+114302G85X+110490Y+114297
X+092710Y+099062G85X+092710Y+099057
X+107950Y+114302G85X+107950Y+114297
X+095250Y+099062G85X+095250Y+099057
X+105410Y+114302G85X+105410Y+114297
X+097790Y+099062G85X+097790Y+099057
X+102870Y+114302G85X+102870Y+114297
X+100330Y+099062G85X+100330Y+099057
X+100330Y+114302G85X+100330Y+114297
X+102870Y+099062G85X+102870Y+099057
X+097790Y+114302G85X+097790Y+114297
X+105410Y+099062G85X+105410Y+099057
X+095250Y+114302G85X+095250Y+114297
X+107950Y+099062G85X+107950Y+099057
X+092710Y+114302G85X+092710Y+114297
X+110490Y+099062G85X+110490Y+099057
X+090170Y+114302G85X+090170Y+114297
X+113030Y+099062G85X+113030Y+099057
X+087630Y+114302G85X+087630Y+114297
X+115570Y+099062G85X+115570Y+099057
X+085090Y+114302G85X+085090Y+114297
X+118110Y+099062G85X+118110Y+099057
X+034287Y+077470G85X+034292Y+077470
X+041907Y+049530G85X+041912Y+049530
X+034287Y+074930G85X+034292Y+074930
X+041907Y+052070G85X+041912Y+052070
X+034287Y+072390G85X+034292Y+072390
X+041907Y+054610G85X+041912Y+054610
X+034287Y+069850G85X+034292Y+069850
X+041907Y+057150G85X+041912Y+057150
X+034287Y+067310G85X+034292Y+067310
X+041907Y+059690G85X+041912Y+059690
X+034287Y+064770G85X+034292Y+064770
X+041907Y+062230G85X+041912Y+062230
X+034287Y+062230G85X+034292Y+062230
X+041907Y+064770G85X+041912Y+064770
X+034287Y+059690G85X+034292Y+059690
X+041907Y+067310G85X+041912Y+067310
X+034287Y+057150G85X+034292Y+057150
X+041907Y+069850G85X+041912Y+069850
X+034287Y+054610G85X+034292Y+054610
X+041907Y+072390G85X+041912Y+072390
X+034287Y+052070G85X+034292Y+052070
X+041907Y+074930G85X+041912Y+074930
X+034287Y+049530G85X+034292Y+049530
X+041907Y+077470G85X+041912Y+077470
X+060957Y+105410G85X+060962Y+105410
X+060957Y+113030G85X+060962Y+113030
X+076197Y+113030G85X+076202Y+113030
X+076197Y+105410G85X+076202Y+105410
X+035557Y+105410G85X+035562Y+105410
X+035557Y+113030G85X+035562Y+113030
X+050797Y+113030G85X+050802Y+113030
X+050797Y+105410G85X+050802Y+105410
X+129537Y+077470G85X+129542Y+077470
X+144777Y+044450G85X+144782Y+044450
X+129537Y+074930G85X+129542Y+074930
X+144777Y+046990G85X+144782Y+046990
X+129537Y+072390G85X+129542Y+072390
X+144777Y+049530G85X+144782Y+049530
X+129537Y+069850G85X+129542Y+069850
X+144777Y+052070G85X+144782Y+052070
X+129537Y+067310G85X+129542Y+067310
X+144777Y+054610G85X+144782Y+054610
X+129537Y+064770G85X+129542Y+064770
X+144777Y+057150G85X+144782Y+057150
X+129537Y+062230G85X+129542Y+062230
X+144777Y+059690G85X+144782Y+059690
X+129537Y+059690G85X+129542Y+059690
X+144777Y+062230G85X+144782Y+062230
X+129537Y+057150G85X+129542Y+057150
X+144777Y+064770G85X+144782Y+064770
X+129537Y+054610G85X+129542Y+054610
X+144777Y+067310G85X+144782Y+067310
X+129537Y+052070G85X+129542Y+052070
X+144777Y+069850G85X+144782Y+069850
X+129537Y+049530G85X+129542Y+049530
X+144777Y+072390G85X+144782Y+072390
X+129537Y+046990G85X+129542Y+046990
X+144777Y+074930G85X+144782Y+074930
X+129537Y+044450G85X+129542Y+044450
X+144777Y+077470G85X+144782Y+077470
X+169679Y+106580
X+167688Y+106580
X+167687Y+109119
X+169679Y+109120
X+013967Y+071120G85X+013972Y+071120
X+021587Y+055880G85X+021592Y+055880
X+013967Y+068580G85X+013972Y+068580
X+021587Y+058420G85X+021592Y+058420
X+013967Y+066040G85X+013972Y+066040
X+021587Y+060960G85X+021592Y+060960
X+013967Y+063500G85X+013972Y+063500
X+021587Y+063500G85X+021592Y+063500
X+013967Y+060960G85X+013972Y+060960
X+021587Y+066040G85X+021592Y+066040
X+013967Y+058420G85X+013972Y+058420
X+021587Y+068580G85X+021592Y+068580
X+013967Y+055880G85X+013972Y+055880
X+021587Y+071120G85X+021592Y+071120
X+125730Y+012697G85X+125730Y+012702
X+173990Y+027937G85X+173990Y+027942
X+128270Y+012697G85X+128270Y+012702
X+171450Y+027937G85X+171450Y+027942
X+130810Y+012697G85X+130810Y+012702
X+168910Y+027937G85X+168910Y+027942
X+133350Y+012697G85X+133350Y+012702
X+166370Y+027937G85X+166370Y+027942
X+135890Y+012697G85X+135890Y+012702
X+163830Y+027937G85X+163830Y+027942
X+138430Y+012697G85X+138430Y+012702
X+161290Y+027937G85X+161290Y+027942
X+140970Y+012697G85X+140970Y+012702
X+158750Y+027937G85X+158750Y+027942
X+143510Y+012697G85X+143510Y+012702
X+156210Y+027937G85X+156210Y+027942
X+146050Y+012697G85X+146050Y+012702
X+153670Y+027937G85X+153670Y+027942
X+148590Y+012697G85X+148590Y+012702
X+151130Y+027937G85X+151130Y+027942
X+151130Y+012697G85X+151130Y+012702
X+148590Y+027937G85X+148590Y+027942
X+153670Y+012697G85X+153670Y+012702
X+146050Y+027937G85X+146050Y+027942
X+156210Y+012697G85X+156210Y+012702
X+143510Y+027937G85X+143510Y+027942
X+158750Y+012697G85X+158750Y+012702
X+140970Y+027937G85X+140970Y+027942
X+161290Y+012697G85X+161290Y+012702
X+138430Y+027937G85X+138430Y+027942
X+163830Y+012697G85X+163830Y+012702
X+135890Y+027937G85X+135890Y+027942
X+166370Y+012697G85X+166370Y+012702
X+133350Y+027937G85X+133350Y+027942
X+168910Y+012697G85X+168910Y+012702
X+130810Y+027937G85X+130810Y+027942
X+171450Y+012697G85X+171450Y+012702
X+128270Y+027937G85X+128270Y+027942
X+173990Y+012697G85X+173990Y+012702
X+125730Y+027937G85X+125730Y+027942
X+008890Y+012697G85X+008890Y+012702
X+057150Y+027937G85X+057150Y+027942
X+011430Y+012697G85X+011430Y+012702
X+054610Y+027937G85X+054610Y+027942
X+013970Y+012697G85X+013970Y+012702
X+052070Y+027937G85X+052070Y+027942
X+016510Y+012697G85X+016510Y+012702
X+049530Y+027937G85X+049530Y+027942
X+019050Y+012697G85X+019050Y+012702
X+046990Y+027937G85X+046990Y+027942
X+021590Y+012697G85X+021590Y+012702
X+044450Y+027937G85X+044450Y+027942
X+024130Y+012697G85X+024130Y+012702
X+041910Y+027937G85X+041910Y+027942
X+026670Y+012697G85X+026670Y+012702
X+039370Y+027937G85X+039370Y+027942
X+029210Y+012697G85X+029210Y+012702
X+036830Y+027937G85X+036830Y+027942
X+031750Y+012697G85X+031750Y+012702
X+034290Y+027937G85X+034290Y+027942
X+034290Y+012697G85X+034290Y+012702
X+031750Y+027937G85X+031750Y+027942
X+036830Y+012697G85X+036830Y+012702
X+029210Y+027937G85X+029210Y+027942
X+039370Y+012697G85X+039370Y+012702
X+026670Y+027937G85X+026670Y+027942
X+041910Y+012697G85X+041910Y+012702
X+024130Y+027937G85X+024130Y+027942
X+044450Y+012697G85X+044450Y+012702
X+021590Y+027937G85X+021590Y+027942
X+046990Y+012697G85X+046990Y+012702
X+019050Y+027937G85X+019050Y+027942
X+049530Y+012697G85X+049530Y+012702
X+016510Y+027937G85X+016510Y+027942
X+052070Y+012697G85X+052070Y+012702
X+013970Y+027937G85X+013970Y+027942
X+054610Y+012697G85X+054610Y+012702
X+011430Y+027937G85X+011430Y+027942
X+057150Y+012697G85X+057150Y+012702
X+008890Y+027937G85X+008890Y+027942
X+055877Y+087630G85X+055882Y+087630
X+071117Y+039370G85X+071122Y+039370
X+055877Y+085090G85X+055882Y+085090
X+071117Y+041910G85X+071122Y+041910
X+055877Y+082550G85X+055882Y+082550
X+071117Y+044450G85X+071122Y+044450
X+055877Y+080010G85X+055882Y+080010
X+071117Y+046990G85X+071122Y+046990
X+055877Y+077470G85X+055882Y+077470
X+071117Y+049530G85X+071122Y+049530
X+055877Y+074930G85X+055882Y+074930
X+071117Y+052070G85X+071122Y+052070
X+055877Y+072390G85X+055882Y+072390
X+071117Y+054610G85X+071122Y+054610
X+055877Y+069850G85X+055882Y+069850
X+071117Y+057150G85X+071122Y+057150
X+055877Y+067310G85X+055882Y+067310
X+071117Y+059690G85X+071122Y+059690
X+055877Y+064770G85X+055882Y+064770
X+071117Y+062230G85X+071122Y+062230
X+055877Y+062230G85X+055882Y+062230
X+071117Y+064770G85X+071122Y+064770
X+055877Y+059690G85X+055882Y+059690
X+071117Y+067310G85X+071122Y+067310
X+055877Y+057150G85X+055882Y+057150
X+071117Y+069850G85X+071122Y+069850
X+055877Y+054610G85X+055882Y+054610
X+071117Y+072390G85X+071122Y+072390
X+055877Y+052070G85X+055882Y+052070
X+071117Y+074930G85X+071122Y+074930
X+055877Y+049530G85X+055882Y+049530
X+071117Y+077470G85X+071122Y+077470
X+055877Y+046990G85X+055882Y+046990
X+071117Y+080010G85X+071122Y+080010
X+055877Y+044450G85X+055882Y+044450
X+071117Y+082550G85X+071122Y+082550
X+055877Y+041910G85X+055882Y+041910
X+071117Y+085090G85X+071122Y+085090
X+055877Y+039370G85X+055882Y+039370
X+071117Y+087630G85X+071122Y+087630
X+160017Y+077470G85X+160022Y+077470
X+175257Y+044450G85X+175262Y+044450
X+160017Y+074930G85X+160022Y+074930
X+175257Y+046990G85X+175262Y+046990
X+160017Y+072390G85X+160022Y+072390
X+175257Y+049530G85X+175262Y+049530
X+160017Y+069850G85X+160022Y+069850
X+175257Y+052070G85X+175262Y+052070
X+160017Y+067310G85X+160022Y+067310
X+175257Y+054610G85X+175262Y+054610
X+160017Y+064770G85X+160022Y+064770
X+175257Y+057150G85X+175262Y+057150
X+160017Y+062230G85X+160022Y+062230
X+175257Y+059690G85X+175262Y+059690
X+160017Y+059690G85X+160022Y+059690
X+175257Y+062230G85X+175262Y+062230
X+160017Y+057150G85X+160022Y+057150
X+175257Y+064770G85X+175262Y+064770
X+160017Y+054610G85X+160022Y+054610
X+175257Y+067310G85X+175262Y+067310
X+160017Y+052070G85X+160022Y+052070
X+175257Y+069850G85X+175262Y+069850
X+160017Y+049530G85X+160022Y+049530
X+175257Y+072390G85X+175262Y+072390
X+160017Y+046990G85X+160022Y+046990
X+175257Y+074930G85X+175262Y+074930
X+160017Y+044450G85X+160022Y+044450
X+175257Y+077470G85X+175262Y+077470
T03
X+020701Y+111760
X+022860Y+111760
X+025019Y+111760
T04
X+152400Y+106680
X+162560Y+106680
X+134620Y+106680
X+134620Y+096520
X+027940Y+068580
X+027940Y+078740
X+152400Y+111760
X+162560Y+111760
X+048260Y+078740
X+048260Y+088900
X+129540Y+106680
X+129540Y+096520
T05
X+147320Y+100330
X+147320Y+102870
X+142240Y+100330
X+142240Y+102870
T06
X+172720Y+093980
X+167640Y+093980
T07
X+006350Y+007620
X+008890Y+007620
X+011430Y+007620
X+013970Y+007620
X+016510Y+007620
X+019050Y+007620
X+021590Y+007620
X+024130Y+007620
X+026670Y+007620
X+029210Y+007620
X+031750Y+007620
X+034290Y+007620
X+036830Y+007620
X+039370Y+007620
X+041910Y+007620
X+044450Y+007620
X+046990Y+007620
X+049530Y+007620
X+052070Y+007620
X+054610Y+007620
X+123190Y+007620
X+125730Y+007620
X+128270Y+007620
X+130810Y+007620
X+133350Y+007620
X+135890Y+007620
X+138430Y+007620
X+140970Y+007620
X+143510Y+007620
X+146050Y+007620
X+148590Y+007620
X+151130Y+007620
X+153670Y+007620
X+156210Y+007620
X+158750Y+007620
X+161290Y+007620
X+163830Y+007620
X+166370Y+007620
X+168910Y+007620
X+171450Y+007620
T08
X+135890Y+114300
X+133350Y+114300
X+130810Y+114300
X+128270Y+114300
X+125730Y+114300
X+123190Y+114300
X+149860Y+116840
X+144780Y+116840
X+063500Y+017780
X+063500Y+022860
X+124460Y+099060
X+124460Y+104140
X+160020Y+101600
X+160020Y+096520
X+154940Y+101600
X+154940Y+096520
X+025400Y+104140
X+020320Y+104140
X+020320Y+078740
X+015240Y+078740
X+040640Y+083820
X+035560Y+083820
X+139700Y+083820
X+134620Y+083820
X+170180Y+083820
X+165100Y+083820
X+066040Y+093980
X+060960Y+093980
X+119380Y+017780
X+119380Y+022860
X+110490Y+008890
X+110490Y+006350
X+107950Y+008890
X+107950Y+006350
X+105410Y+008890
X+105410Y+006350
X+102870Y+008890
X+102870Y+006350
X+100330Y+008890
X+100330Y+006350
X+097790Y+008890
X+097790Y+006350
X+095250Y+008890
X+095250Y+006350
X+092710Y+008890
X+092710Y+006350
X+090170Y+008890
X+090170Y+006350
X+087630Y+008890
X+087630Y+006350
X+085090Y+008890
X+085090Y+006350
X+082550Y+008890
X+082550Y+006350
X+080010Y+008890
X+080010Y+006350
X+077470Y+008890
X+077470Y+006350
X+074930Y+008890
X+074930Y+006350
X+072390Y+008890
X+072390Y+006350
X+006910Y+109510
X+013409Y+109510
X+013409Y+114009
X+006910Y+114009
T09
X+046990Y+099060
X+044450Y+099060
T10
X+172379Y+113880
X+172379Y+101780
M30
